<?xml version="1.0" encoding="UTF-8" standalone="no"?>
<!-- Created with Inkscape (http://www.inkscape.org/). Yes, that's what we use. -->

<svg
   width="50"
   height="50"
   viewBox="0 0 13.229166 13.229167"
   version="1.1"
   id="svg1"
   xmlns="http://www.w3.org/2000/svg"
   xmlns:svg="http://www.w3.org/2000/svg">
  <defs
     id="defs1" />
  <g
     id="layer1">
    <path
       style="color:#000000;fill:#6dfa00;stroke-linecap:round;stroke-linejoin:round;-inkscape-stroke:none;paint-order:markers stroke fill;stroke:#000000;stroke-opacity:1;fill-opacity:1"
       d="M 6.683913,1.182472 C 6.037145,1.193212 5.647234,1.513963 5.431839,1.7245272 5.216444,1.9350912 5.104242,2.1105884 5.004509,2.2762174 c -0.199465,0.331259 -0.328825,0.634903 -0.453446,0.924851 -0.08409,0.195656 -0.146859,0.338937 -0.213315,0.490602 -0.168624,0.01853 -0.330483,0.03769 -0.547512,0.06071 -0.314767,0.03338 -0.645921,0.06698 -1.02262,0.161761 -0.18835,0.04739 -0.389028,0.102813 -0.651815,0.246943 -0.262788,0.14413 -0.670003,0.418244 -0.875006,1.011118 -0.221286,0.639967 -0.01754,1.172563 0.133292,1.454846 0.150827,0.282283 0.295517,0.439753 0.432827,0.583534 0.274621,0.287562 0.541341,0.494729 0.794314,0.695082 0.116261,0.09208 0.186942,0.149808 0.288169,0.230173 -0.0475,0.128846 -0.08097,0.225059 -0.135927,0.373561 -0.113414,0.30648 -0.233919,0.624625 -0.319762,1.012462 -0.04292,0.193919 -0.08538,0.400916 -0.0682,0.7223046 0.01718,0.321388 0.121169,0.902665 0.671488,1.336158 0.589383,0.464263 1.221266,0.39232 1.539755,0.315858 0.318486,-0.07647 0.507262,-0.177613 0.684467,-0.275483 0.354409,-0.19574 0.638609,-0.40816 0.915957,-0.612809 0.133833,-0.09875 0.222187,-0.162868 0.339709,-0.249312 0.111214,0.08807 0.192884,0.149914 0.319509,0.250798 0.270046,0.215149 0.548646,0.439884 0.896076,0.650314 0.173715,0.105215 0.359743,0.213103 0.667612,0.302783 0.307869,0.08968 0.89347,0.198699 1.507222,-0.202889 0.562052,-0.36776 0.74062,-0.935388 0.788909,-1.262039 0.04829,-0.32665 0.01961,-0.5434976 -0.0082,-0.7426596 -0.05568,-0.398325 -0.15299,-0.721322 -0.245067,-1.03253 -0.05624,-0.190077 -0.09502,-0.32437 -0.140671,-0.479271 0.122698,-0.10819 0.228304,-0.202676 0.380733,-0.335511 0.247364,-0.215566 0.505694,-0.441376 0.765406,-0.734159 0.129857,-0.146392 0.265002,-0.30554 0.402366,-0.567024 0.137364,-0.261484 0.339243,-0.704811 0.17162,-1.339999 -0.172819,-0.654876 -0.686208,-1.019105 -0.99473,-1.162914 -0.308522,-0.14381 -0.528856,-0.17671 -0.729126,-0.204872 -0.400541,-0.05632 -0.735316,-0.05028 -1.057704,-0.04683 -0.131758,0.0014 -0.211297,0.0016 -0.329247,0.0031 C 8.877562,3.7355964 8.853832,3.6565514 8.815962,3.5224564 8.725592,3.2024454 8.633162,2.8698744 8.473838,2.5009114 8.394178,2.3164294 8.308463,2.1200614 8.098723,1.8629733 7.888983,1.6058852 7.416032,1.1702615 6.683949,1.182418 Z M 6.470977,6.1080964 c 0.09338,0.167161 0.143177,0.327662 0.472718,0.548441 0.298072,0.199695 0.333965,0.08665 0.512723,0.134758 -0.127673,0.152368 -0.253069,0.120112 -0.370751,0.548392 -0.02513,0.09147 0.02324,0.06517 0.0074,0.142509 -0.156604,-0.0634 -0.237928,-0.150009 -0.559078,-0.148103 -0.203287,0.0012 -0.229304,0.06049 -0.354353,0.09179 -0.01581,-0.07909 0.0096,-0.09392 -0.01542,-0.186876 -0.10488,-0.389727 -0.224095,-0.551833 -0.342545,-0.70962 0.154438,-0.05585 0.198142,0.02201 0.441236,-0.148904 0.182042,-0.12799 0.107328,-0.169245 0.208102,-0.272386 z"
       id="path3" />
    <path
       style="fill:#6dfa00;fill-opacity:1;stroke:#000000;stroke-width:0.565;stroke-linecap:round;stroke-linejoin:round;stroke-dasharray:none;stroke-opacity:1;paint-order:markers stroke fill"
       id="path1"
       d="M 4.3896603,4.8890095 C 3.9781218,5.1067804 2.5108308,3.1858889 2.0429057,3.1451872 1.5749807,3.1044854 -0.27646119,4.6391077 -0.60560518,4.326334 -0.93474915,4.0135603 0.33981866,2.1669448 0.26092177,1.7078567 0.18202488,1.2487685 -1.6411308,0.00133657 -1.4498397,-0.42064583 -1.2585486,-0.84262821 0.8031059,-0.54532308 1.2114731,-0.77918684 1.6198402,-1.0130506 2.3250093,-2.9997407 2.7784377,-2.9651702 c 0.4534284,0.034571 0.5080707,2.37427484 0.8698509,2.66861722 0.3617802,0.2943424 2.5493868,0.11514336 2.6260646,0.57473881 C 6.3510309,0.73778126 4.3743534,1.7440608 4.2087166,2.1829668 4.0430798,2.6218728 4.8011989,4.6712387 4.3896603,4.8890095 Z"
       transform="rotate(-5.3112571,66.524561,-42.506108)" />
  </g>
</svg>
