<?xml version="1.0" encoding="UTF-8" standalone="no"?>
<!-- Created with Inkscape (http://www.inkscape.org/) -->

<svg
   width="1080"
   height="1920"
   viewBox="0 0 285.74999 508"
   version="1.1"
   id="svg1"
   xml:space="preserve"
   sodipodi:docname="bigBanner.svg"
   inkscape:version="1.3.2 (091e20e, 2023-11-25, custom)"
   xmlns:inkscape="http://www.inkscape.org/namespaces/inkscape"
   xmlns:sodipodi="http://sodipodi.sourceforge.net/DTD/sodipodi-0.dtd"
   xmlns="http://www.w3.org/2000/svg"
   xmlns:svg="http://www.w3.org/2000/svg"><sodipodi:namedview
     id="namedview1"
     pagecolor="#ffffff"
     bordercolor="#666666"
     borderopacity="1.0"
     inkscape:showpageshadow="2"
     inkscape:pageopacity="0.0"
     inkscape:pagecheckerboard="0"
     inkscape:deskcolor="#d1d1d1"
     inkscape:document-units="mm"
     inkscape:zoom="0.19698311"
     inkscape:cx="880.78619"
     inkscape:cy="434.04737"
     inkscape:window-width="1920"
     inkscape:window-height="991"
     inkscape:window-x="-9"
     inkscape:window-y="-9"
     inkscape:window-maximized="1"
     inkscape:current-layer="layer1" /><defs
     id="defs1"><inkscape:path-effect
       effect="envelope"
       id="path-effect19"
       is_visible="true"
       lpeversion="1"
       yy="true"
       xx="true"
       bendpath1="m 284.95306,-10.484734 h 19.56621"
       bendpath2="m 304.51927,-10.484734 c 24.3088,-8.026453 7.3629,22.775051 0,44.557264"
       bendpath3="m 284.95306,34.07253 h 19.56621"
       bendpath4="m 284.95306,-10.484734 6.68398,43.443268"
       bendpath2-nodetypes="cc"
       bendpath4-nodetypes="cc" /><inkscape:path-effect
       effect="spiro"
       id="path-effect14"
       is_visible="true"
       lpeversion="1" /><inkscape:path-effect
       effect="spiro"
       id="path-effect10"
       is_visible="true"
       lpeversion="1" /><inkscape:path-effect
       effect="spiro"
       id="path-effect9"
       is_visible="true"
       lpeversion="1" /><inkscape:path-effect
       effect="spiro"
       id="path-effect8"
       is_visible="true"
       lpeversion="1" /><inkscape:path-effect
       effect="spiro"
       id="path-effect7"
       is_visible="true"
       lpeversion="1" /><inkscape:path-effect
       effect="spiro"
       id="path-effect6"
       is_visible="true"
       lpeversion="1" /><inkscape:path-effect
       effect="spiro"
       id="path-effect5"
       is_visible="true"
       lpeversion="1" /><inkscape:path-effect
       effect="spiro"
       id="path-effect4"
       is_visible="true"
       lpeversion="1" /><inkscape:path-effect
       effect="spiro"
       id="path-effect3"
       is_visible="true"
       lpeversion="1" /><clipPath
       id="clipEmfPath1"><path
         d="m 27.199,19.039 h 220.79 v 193.91 H 27.199 Z"
         id="path316" /></clipPath></defs><g
     inkscape:label="Layer 1"
     inkscape:groupmode="layer"
     id="layer1"><rect
       style="fill:#33abff;fill-opacity:1;stroke:none;stroke-width:5.73402;stroke-linecap:round;stroke-linejoin:round;stroke-dasharray:none;stroke-opacity:1;paint-order:markers stroke fill"
       id="rect22"
       width="508.61856"
       height="504.46555"
       x="-114.47939"
       y="-50.257965" /><path
       id="rect21"
       style="fill:#fdff33;fill-opacity:1;stroke:#2c2c00;stroke-width:5.365;stroke-linecap:round;stroke-linejoin:round;stroke-dasharray:none;stroke-opacity:1;paint-order:markers stroke fill"
       d="m -105.81526,459.50682 c 172.043298,-124.48966 429.6032,-88.08165 488.75942,0.8355 l 22.55813,50.96462 h -523.01434 z"
       sodipodi:nodetypes="ccccc" /><path
       id="path13"
       style="fill:#2eff3f;fill-opacity:1;stroke:#000901;stroke-width:5.20439;stroke-linecap:round;stroke-linejoin:round;stroke-dasharray:none;stroke-opacity:1;paint-order:markers stroke fill"
       d="m 106.45463,301.20858 c 0.47042,-0.0237 0.80595,0.12802 0.96547,0.48839 2.15554,4.86944 -0.15799,8.69245 -4.90022,14.56288 -1.30035,1.60972 -2.51073,2.83723 -3.631402,3.76075 1.286402,1.04191 2.630832,2.37841 4.135412,3.96997 4.79315,5.07026 5.0819,8.42612 3.5989,10.15928 -1.48301,1.73316 -3.84841,2.37399 -8.731842,-2.59352 -4.21136,-4.28388 -8.19169,-10.88735 -7.80911,-13.03155 0.0559,-1.5637 0.97428,-3.72259 3.35421,-6.78949 3.99959,-5.15407 10.478302,-10.39888 13.018582,-10.52671 z" /><path
       id="path12"
       style="fill:#2eff3f;fill-opacity:1;stroke:#000901;stroke-width:5.20439;stroke-linecap:round;stroke-linejoin:round;stroke-dasharray:none;stroke-opacity:1;paint-order:markers stroke fill"
       d="m 170.99041,291.36154 c -0.47042,-0.0237 -0.80595,0.12803 -0.96547,0.4884 -2.15553,4.86944 0.15799,8.69245 4.90022,14.56288 1.30036,1.60971 2.51074,2.83723 3.6314,3.76075 -1.2864,1.0419 -2.63083,2.37841 -4.1354,3.96996 -4.79316,5.07026 -5.08191,8.42613 -3.5989,10.15928 1.483,1.73316 3.84841,2.374 8.73184,-2.59351 4.21135,-4.28389 8.19169,-10.88735 7.8091,-13.03155 -0.0559,-1.5637 -0.97428,-3.72259 -3.35421,-6.78949 -3.99958,-5.15407 -10.4783,-10.39888 -13.01858,-10.52672 z" /><path
       id="path4"
       style="fill:#d8d8d8;fill-opacity:1;stroke:#000901;stroke-width:7.89235;stroke-linecap:round;stroke-linejoin:round;stroke-dasharray:none;stroke-opacity:1;paint-order:markers stroke fill"
       d="m 140.73585,322.8107 c -0.6412,0.31474 -0.97451,0.76276 -0.92088,1.35799 0.72453,8.04298 6.60521,11.41014 17.21285,15.70523 2.90869,1.17774 5.41686,1.91488 7.5824,2.31493 -0.93918,2.32809 -1.73856,5.08953 -2.56263,8.307 -2.62523,10.24998 -0.53895,14.91239 2.70276,16.11942 3.24172,1.20705 6.84981,0.3164 9.67036,-9.86376 2.43237,-8.77915 2.85169,-20.46413 0.76672,-23.02589 -1.22469,-2.03235 -4.03093,-4.21938 -9.44333,-6.53506 -9.09578,-3.8916 -21.54572,-6.07943 -25.00825,-4.37986 z" /><path
       id="path17"
       style="fill:#2eff3f;fill-opacity:1;stroke:#000901;stroke-width:7.89235;stroke-linecap:round;stroke-linejoin:round;stroke-dasharray:none;stroke-opacity:1;paint-order:markers stroke fill"
       d="m 132.21035,367.88041 c 2.6477,-11.42259 2.11208,-27.06379 -1.57799,-26.05703 -7.7908,2.12556 -10.07312,8.50599 -12.43886,19.70302 -2.42783,11.49081 0.10577,16.56328 3.7577,17.74894 3.65192,1.18566 7.61146,0.0276 10.25915,-11.39493 z"
       sodipodi:nodetypes="sssss" /><ellipse
       style="fill:#58bfff;fill-opacity:1;stroke:#000901;stroke-width:2.94465;stroke-linecap:round;stroke-linejoin:round;stroke-opacity:1;paint-order:markers stroke fill"
       id="path6"
       cx="251.44481"
       cy="292.50034"
       rx="3.1666508"
       ry="5.1550126"
       transform="rotate(14.595361)" /><path
       style="fill:none;stroke:#000000;stroke-width:1.49994;stroke-linecap:butt;stroke-linejoin:miter;stroke-dasharray:none;stroke-opacity:1"
       d="m 169.40086,340.67806 -1.32558,-3.68215 -7.65888,0.29457"
       id="path8" /><path
       style="fill:none;stroke:#000000;stroke-width:1.32998;stroke-linecap:butt;stroke-linejoin:miter;stroke-dasharray:none;stroke-opacity:1"
       d="m 168.22256,352.75552 0.14729,5.30229 5.3023,2.94573"
       id="path9" /><g
       id="g21"
       transform="translate(-109.99268,117.79331)"><path
         style="fill:#b3b3b3;stroke:#000000;stroke-width:3.865;stroke-linecap:butt;stroke-linejoin:miter;stroke-dasharray:none;stroke-opacity:1"
         d="m 249.8083,306.10653 c 0,0 6.88836,-47.48396 9.63966,-50.23526 2.75131,-2.75131 42.92035,-6.87826 42.92035,-6.87826 0,0 5.77774,-1.10052 8.52903,3.57669 2.7513,4.67722 20.14511,50.52047 20.14511,50.52047"
         id="path16"
         sodipodi:nodetypes="cscsc" /><path
         style="fill:none;stroke:#000000;stroke-width:3.765;stroke-linecap:round;stroke-linejoin:miter;stroke-dasharray:none;stroke-opacity:0.359499"
         d="m 263.01887,260.73412 25.87382,11.45935"
         id="path18"
         sodipodi:nodetypes="cc" /><path
         style="fill:none;stroke:#ffffff;stroke-width:3.765;stroke-linecap:round;stroke-linejoin:miter;stroke-dasharray:none;stroke-opacity:0.492605"
         d="m 306.14076,255.79888 -9.1957,15.5521"
         id="path19"
         sodipodi:nodetypes="cc" /><path
         style="fill:none;stroke:#d6d6d6;stroke-width:3.765;stroke-linecap:round;stroke-linejoin:miter;stroke-dasharray:none;stroke-opacity:0.492605"
         d="m 294.99585,278.51043 4.0451,23.01462"
         id="path20"
         sodipodi:nodetypes="cc" /></g><path
       id="path21"
       style="fill:#fffedb;fill-opacity:1;stroke:#000901;stroke-width:8.26465;stroke-linecap:round;stroke-linejoin:round;stroke-dasharray:none;stroke-opacity:1;paint-order:markers stroke fill"
       d="m 168.3745,304.93128 c 0.14491,20.29079 -9.25629,44.54244 -29.45389,44.44153 -20.6539,-0.10318 -31.71175,-18.59553 -31.0041,-43.60301 0.7073,-24.99577 11.90795,-39.87414 29.45389,-39.41041 17.84178,0.47156 30.86712,19.38908 31.0041,38.57189 z"
       sodipodi:nodetypes="sssss" /><path
       id="text16"
       style="font-weight:bold;font-size:16.9478px;line-height:1.25;font-family:'Bai Jamjuree';-inkscape-font-specification:'Bai Jamjuree Bold';stroke-width:0.51438"
       d="m 131.62347,311.37035 v 6.48111 c 0,0.58571 -0.12496,1.06109 -0.3746,1.42596 -0.24005,0.35526 -0.55667,0.5327 -0.95034,0.5327 h -1.10932 c -0.39367,0 -0.71518,-0.17299 -0.96483,-0.51865 -0.24004,-0.34566 -0.36011,-0.80148 -0.36011,-1.36798 h -1.95865 c 0,0.72013 0.1343,1.35871 0.40314,1.91561 0.27846,0.5473 0.66266,0.97465 1.15236,1.28191 0.49929,0.29765 1.07517,0.44618 1.72809,0.44618 h 1.19584 c 0.63371,0 1.19536,-0.14853 1.68505,-0.44618 0.48969,-0.30726 0.86901,-0.73461 1.13786,-1.28191 0.26886,-0.5473 0.40315,-1.18099 0.40315,-1.90112 v -6.56763 z m 11.24029,7.65279 v 6.48112 c 0,0.58571 -0.12496,1.06108 -0.3746,1.42595 -0.24004,0.35527 -0.55711,0.5327 -0.95078,0.5327 h -1.10888 c -0.39367,0 -0.71518,-0.17254 -0.96483,-0.51821 -0.24004,-0.34566 -0.36011,-0.80191 -0.36011,-1.36842 h -1.95866 c 0,0.72014 0.13431,1.35872 0.40315,1.91562 0.27846,0.5473 0.66267,0.97465 1.15236,1.2819 0.49929,0.29766 1.07517,0.44619 1.72809,0.44619 h 1.19539 c 0.63373,0 1.19538,-0.14853 1.68506,-0.44619 0.48969,-0.30725 0.86901,-0.7346 1.13786,-1.2819 0.26885,-0.5473 0.40359,-1.18099 0.40359,-1.90112 v -6.56764 z" /><g
       id="g14"
       transform="matrix(0.84982578,0,0,0.84982578,-116.33557,60.966774)"><path
         id="path341"
         style="fill:#2eff3f;fill-opacity:1;fill-rule:evenodd;stroke:#000901;stroke-width:5.0881;stroke-linejoin:round;stroke-dasharray:none;stroke-opacity:1"
         d="m 331.42657,164.66713 c -1.14646,-0.15565 -2.31369,-0.19903 -3.4848,-0.11891 -7.27564,0.49767 -14.18664,8.55846 -16.61125,16.53433 -6.85908,-0.93585 -14.14302,-1.17095 -21.716,-0.65302 -8.12208,0.55617 -15.75494,1.82879 -22.77057,3.75721 -3.87055,-6.74942 -11.04053,-12.53657 -17.65828,-12.08394 -9.37661,0.64 -17.38819,9.08246 -16.74283,18.47503 0.21525,3.16825 1.46304,6.8843 3.37803,10.39417 -9.41821,9.34279 -14.43896,21.62077 -13.42751,36.43683 2.30054,33.61484 34.85128,46.37155 75.64269,43.58175 40.78983,-2.78961 69.42662,-17.16206 67.12417,-50.77724 l 0.004,-7.7e-4 c -1.077,-15.76362 -8.78831,-28.30331 -20.88088,-36.8893 1.95794,-4.33082 3.0198,-9.01848 2.76322,-12.75895 -0.56469,-8.21849 -7.59501,-14.8079 -15.62022,-15.89748 z" /><path
         style="fill:none;stroke:#000901;stroke-width:4.465;stroke-linecap:round;stroke-linejoin:miter;stroke-dasharray:none;stroke-opacity:1"
         d="m 248.74786,186.35886 4.04073,11.96058"
         id="path5"
         inkscape:path-effect="#path-effect6"
         inkscape:original-d="m 248.74786,186.35886 c 1.34691,3.8791 2.69382,7.97372 4.04073,11.96058"
         transform="translate(-0.16162954,-0.16162954)" /><path
         style="fill:none;stroke:#000901;stroke-width:4.665;stroke-linecap:round;stroke-linejoin:miter;stroke-dasharray:none;stroke-opacity:1"
         d="m 327.13818,181.34834 -1.93955,13.57688"
         id="path7"
         inkscape:path-effect="#path-effect8"
         inkscape:original-d="m 327.13818,181.34834 c -0.64653,4.47175 -1.29304,9.05125 -1.93955,13.57688"
         transform="translate(2.101184,-2.2628135)" /><circle
         style="fill:#000901;fill-opacity:1;stroke:none;stroke-width:2.86499;stroke-linecap:round;stroke-linejoin:round;stroke-dasharray:none;stroke-opacity:1;paint-order:markers stroke fill"
         id="path10"
         cx="244.6866"
         cy="259.85663"
         r="2.5283346" /><circle
         style="fill:#000901;fill-opacity:1;stroke:none;stroke-width:2.86499;stroke-linecap:round;stroke-linejoin:round;stroke-dasharray:none;stroke-opacity:1;paint-order:markers stroke fill"
         id="circle10"
         cx="253.67624"
         cy="255.36182"
         r="2.5283346" /><circle
         style="fill:#000901;fill-opacity:1;stroke:none;stroke-width:2.86499;stroke-linecap:round;stroke-linejoin:round;stroke-dasharray:none;stroke-opacity:1;paint-order:markers stroke fill"
         id="circle11"
         cx="255.3618"
         cy="264.9133"
         r="2.5283346" /><circle
         style="fill:#000901;fill-opacity:1;stroke:none;stroke-width:2.86499;stroke-linecap:round;stroke-linejoin:round;stroke-dasharray:none;stroke-opacity:1;paint-order:markers stroke fill"
         id="circle12"
         cx="341.88702"
         cy="258.73294"
         r="2.5283346" /><circle
         style="fill:#000901;fill-opacity:1;stroke:none;stroke-width:2.86499;stroke-linecap:round;stroke-linejoin:round;stroke-dasharray:none;stroke-opacity:1;paint-order:markers stroke fill"
         id="circle13"
         cx="344.69629"
         cy="249.7433"
         r="2.5283346" /><circle
         style="fill:#000901;fill-opacity:1;stroke:none;stroke-width:2.86499;stroke-linecap:round;stroke-linejoin:round;stroke-dasharray:none;stroke-opacity:1;paint-order:markers stroke fill"
         id="circle14"
         cx="352.00037"
         cy="252.55257"
         r="2.5283346" /><path
         style="fill:none;stroke:#000901;stroke-width:2.49309;stroke-linecap:round;stroke-linejoin:miter;stroke-dasharray:none;stroke-opacity:1"
         d="m 286.30536,188.87994 c 0.45985,0.90997 1.22152,1.66418 2.13596,2.11507 0.91444,0.45089 1.97649,0.5959 2.97834,0.40667 1.00184,-0.18924 1.93782,-0.71166 2.62479,-1.46504 0.68697,-0.75337 1.12104,-1.73345 1.21729,-2.74846 0.0282,-0.29765 0.0282,-0.59798 0,-0.89563"
         id="path14"
         inkscape:path-effect="#path-effect14"
         inkscape:original-d="m 286.30536,188.87994 c 3.01863,-0.56392 5.97093,-1.12784 8.95638,-1.69176 2.98545,-0.56392 0,-0.59709 0,-0.89563"
         transform="matrix(1.215455,0.18462983,-0.18462983,1.215455,-27.308998,-91.968916)" /></g></g></svg>
