<?xml version="1.0" encoding="UTF-8" standalone="no"?>
<!-- Created with Inkscape (http://www.inkscape.org/) -->

<svg
   width="66.153954mm"
   height="100.21725mm"
   viewBox="0 0 66.153954 100.21725"
   version="1.1"
   id="svg1"
   xml:space="preserve"
   inkscape:version="1.3.2 (091e20e, 2023-11-25, custom)"
   sodipodi:docname="canOfDestiny.svg"
   xmlns:inkscape="http://www.inkscape.org/namespaces/inkscape"
   xmlns:sodipodi="http://sodipodi.sourceforge.net/DTD/sodipodi-0.dtd"
   xmlns="http://www.w3.org/2000/svg"
   xmlns:svg="http://www.w3.org/2000/svg"><sodipodi:namedview
     id="namedview1"
     pagecolor="#ffffff"
     bordercolor="#666666"
     borderopacity="1.0"
     inkscape:showpageshadow="2"
     inkscape:pageopacity="0.0"
     inkscape:pagecheckerboard="0"
     inkscape:deskcolor="#d1d1d1"
     inkscape:document-units="mm"
     inkscape:zoom="0.65477694"
     inkscape:cx="-322.24715"
     inkscape:cy="147.37843"
     inkscape:window-width="1920"
     inkscape:window-height="991"
     inkscape:window-x="-9"
     inkscape:window-y="-9"
     inkscape:window-maximized="1"
     inkscape:current-layer="layer1" /><defs
     id="defs1"><inkscape:path-effect
       effect="simplify"
       id="path-effect15"
       is_visible="true"
       lpeversion="1.3"
       threshold="100"
       steps="1"
       smooth_angles="360"
       helper_size="0"
       simplify_individual_paths="false"
       simplify_just_coalesce="false" /></defs><g
     inkscape:label="Layer 1"
     inkscape:groupmode="layer"
     id="layer1"
     transform="translate(-73.428449,-33.793489)"><g
       id="g24"
       inkscape:label="can"><path
         style="fill:#f5f5f5;fill-opacity:1;stroke:#000000;stroke-width:0.865;stroke-linecap:round;stroke-linejoin:round;stroke-dasharray:none;stroke-opacity:1"
         d="m 78.861166,75.503852 c 0,0 6.428899,-19.072401 27.572824,-16.929435 0,0 0,5.285985 7.71468,2.714425 l 25.00128,46.145208 c -0.50559,-0.15557 -10.35777,7.22013 -7.00036,12.8578 0,0 -16.858,12.71494 -22.14398,13.2864 1.7038,-1.217 -4.93546,-4.63836 -10.429105,-1.42865 L 73.860911,84.290014 c 0.05023,0.01005 7.848634,-2.187607 5.000255,-8.786162 z"
         id="path1"
         sodipodi:nodetypes="ccccccccc" /><path
         style="fill:none;stroke:#000000;stroke-width:0.865;stroke-linecap:round;stroke-linejoin:round;stroke-dasharray:none;stroke-opacity:1"
         d="m 108.24337,127.84133 c 0,0 15.96122,-6.56633 20.8102,-14.09235"
         id="path2" /><path
         style="fill:none;stroke:#000000;stroke-width:0.865;stroke-linecap:round;stroke-linejoin:miter;stroke-dasharray:none;stroke-opacity:1"
         d="m 81.321427,76.371428 c -0.45303,-0.419968 17.41561,-0.18475 24.952043,-13.486225"
         id="path3"
         sodipodi:nodetypes="cc" /></g><g
       id="g23"
       inkscape:label="Destiny"><g
         id="g9"
         inkscape:label="D"
         transform="translate(-5.7860095,3.5716107)"><path
           style="fill:none;stroke:#000000;stroke-width:0.865;stroke-linecap:round;stroke-linejoin:round;stroke-dasharray:none;stroke-opacity:1"
           d="m 102.03061,82.533672 17.07245,28.386738"
           id="path4"
           sodipodi:nodetypes="cc" /><path
           style="fill:none;stroke:#000000;stroke-width:0.865;stroke-linecap:round;stroke-linejoin:miter;stroke-dasharray:none;stroke-opacity:1"
           d="m 101.92959,87.685713 c 1.536,-2.956803 5.61605,-4.706836 8.85879,-2.381258 2.99315,2.146572 5.95401,8.109403 7.17847,11.843257 1.32589,4.043138 0.0697,6.943648 -4.62195,10.843098"
           id="path5"
           sodipodi:nodetypes="cssc" /><path
           style="fill:none;stroke:#000000;stroke-width:0.865;stroke-linecap:round;stroke-linejoin:miter;stroke-dasharray:none;stroke-opacity:1"
           d="m 98.242346,80.841582 3.182144,4.621683"
           id="path6" /><path
           style="fill:none;stroke:#000000;stroke-width:0.865;stroke-linecap:round;stroke-linejoin:miter;stroke-dasharray:none;stroke-opacity:1"
           d="M 97.585714,83.392346 101.07092,80.74056"
           id="path7" /></g><g
         id="g10"
         inkscape:label="e"
         transform="matrix(0.822719,0,0,0.822719,16.035379,16.853918)"
         style="stroke-width:1.05139;stroke-dasharray:none"><path
           id="path8"
           style="fill:none;stroke:#000000;stroke-width:1.05139;stroke-linecap:round;stroke-linejoin:miter;stroke-dasharray:none;stroke-opacity:1"
           d="m 114.95507,91.068038 3.31954,-1.902647 m 0,0 c -0.0695,-0.715309 -5.26187,-8.398792 -6.56163,-7.343753 -0.0341,0.02766 -2.6145,0.335567 3.0875,9.279257 3.37987,5.4184 6.39682,3.431246 4.62139,-0.226848"
           sodipodi:nodetypes="cccscc"
           inkscape:label="e" /></g><g
         id="g13"
         inkscape:label="s"><path
           style="fill:none;stroke:#000000;stroke-width:0.865;stroke-linecap:round;stroke-linejoin:round;stroke-dasharray:none;stroke-opacity:1"
           d="m 115.23305,81.06541 c -0.46063,-1.464957 -5.00951,-1.999684 -2.50013,2.10725 2.13997,3.502351 10.43912,6.887291 10.89341,11.357725 0.38165,3.755533 -5.16865,8.742775 -5.75029,2.571559 -0.45682,-4.846907 3.50124,-2.095116 3.17873,-1.071483"
           id="path10"
           sodipodi:nodetypes="csssc"
           inkscape:label="s" /></g><g
         id="g12"
         inkscape:label="t"
         transform="translate(64.754082,-13.132653)"
         style="stroke:#000000;stroke-width:0.855;stroke-dasharray:none;stroke-opacity:1"><path
           style="fill:none;stroke:#000000;stroke-width:0.855;stroke-linecap:round;stroke-linejoin:miter;stroke-dasharray:none;stroke-opacity:1"
           d="m 50.094916,88.343091 c 0.824296,-0.117165 4.890144,11.037316 7.511971,12.626809 0.451002,0.27342 1.31922,0.13384 1.389031,-0.75766"
           id="path11"
           sodipodi:nodetypes="csc" /><path
           style="fill:none;stroke:#000000;stroke-width:0.855;stroke-linecap:round;stroke-linejoin:miter;stroke-dasharray:none;stroke-opacity:1"
           d="M 54.092312,97.660734 55.759149,96.70104"
           id="path12" /></g><g
         id="g22"
         inkscape:label="i"><path
           style="fill:none;stroke:#000000;stroke-width:0.865;stroke-linecap:round;stroke-linejoin:miter;stroke-dasharray:none;stroke-opacity:1"
           d="m 120.31531,77.937245 c 5.15204,8.435203 5.15204,8.435203 5.15204,8.435203"
           id="path13"
           inkscape:label="stem" /><path
           id="path14"
           style="fill:#000000;stroke:none;stroke-width:0.865;stroke-linecap:round;stroke-linejoin:round;stroke-dasharray:none;stroke-opacity:1;paint-order:fill markers stroke"
           inkscape:label="dot"
           d="m 119.47953,76.07546 a 0.46430939,0.46430939 0 0 0 -0.46457,0.464054 0.46430939,0.46430939 0 0 0 0.46457,0.464571 0.46430939,0.46430939 0 0 0 0.46405,-0.464571 0.46430939,0.46430939 0 0 0 -0.46405,-0.464054 z" /></g></g><g
       id="g21"
       inkscape:label="other"><path
         style="fill:none;stroke:#000000;stroke-width:0.865;stroke-linecap:round;stroke-linejoin:miter;stroke-dasharray:none;stroke-opacity:1"
         d="m 87.736224,96.322958 c 4.192346,5.303572 4.141838,5.303572 4.141838,5.303572"
         id="path16" /><path
         style="fill:none;stroke:#000000;stroke-width:0.865;stroke-linecap:round;stroke-linejoin:miter;stroke-dasharray:none;stroke-opacity:1"
         d="M 90.059694,96.373467 87.02908,99.151529"
         id="path17" /><path
         style="fill:none;stroke:#000000;stroke-width:0.865;stroke-linecap:round;stroke-linejoin:miter;stroke-dasharray:none;stroke-opacity:1"
         d="m 95.060203,115.46632 0.808164,2.98011"
         id="path18" /><path
         style="fill:none;stroke:#000000;stroke-width:0.865;stroke-linecap:round;stroke-linejoin:miter;stroke-dasharray:none;stroke-opacity:1"
         d="m 96.272447,116.27449 -1.919386,0.40408"
         id="path19" /><path
         style="fill:none;stroke:#000000;stroke-width:0.865;stroke-linecap:round;stroke-linejoin:miter;stroke-dasharray:none;stroke-opacity:1"
         d="m 93.948979,111.72857 1.212244,1.81837"
         id="path20" /><path
         style="fill:none;stroke:#000000;stroke-width:0.865;stroke-linecap:round;stroke-linejoin:miter;stroke-dasharray:none;stroke-opacity:1"
         d="m 94.959182,112.03163 -1.010203,0.5051"
         id="path21" /><path
         style="fill:none;stroke:#000000;stroke-width:0.865;stroke-linecap:round;stroke-linejoin:miter;stroke-dasharray:none;stroke-opacity:1"
         d="m 83.706914,93.255553 c 13.256868,-2.288943 11.40159,11.616187 12.868615,16.757417 1.050511,3.68156 2.266288,2.24435 3.872351,4.22606 0.9702,1.19712 0.47723,3.10412 0.91087,4.60835 0.47323,1.64156 2.07881,2.00321 3.584,2.08993 1.77938,0.10251 3.31712,-1.08895 5.08665,-1.37681 1.45422,-0.23656 3.76129,-0.79152 4.48796,0.77316 0.16387,0.35285 0.17226,0.75161 0.34564,1.10111"
         id="path15"
         sodipodi:nodetypes="cssssssc" /></g><rect
       style="fill:none;fill-opacity:1;stroke:#c8c8c8;stroke-width:0.920031;stroke-linecap:round;stroke-linejoin:round;stroke-dasharray:none;stroke-opacity:1;paint-order:fill markers stroke"
       id="rect24"
       width="6.5365505"
       height="8.5569582"
       x="35.222347"
       y="103.78085"
       ry="3.7598755"
       transform="rotate(-34.693707)" /><path
       id="path24"
       style="fill:#c8c8c8;stroke-width:0.982539;stroke-linecap:round;stroke-linejoin:round;paint-order:fill markers stroke"
       d="m 94.309949,64.42832 c 0.585806,0.581549 1.367353,1.650748 1.208551,2.497183 -0.153114,0.816117 -2.537694,1.543966 -3.013993,1.69878 -1.05287,0.342221 -2.237999,-1.174406 -2.2946,-2.242347 -0.07142,-1.347576 0.536742,-2.148299 1.589613,-2.49052 1.05287,-0.342221 1.897275,-0.07179 2.510429,0.536904 z"
       sodipodi:nodetypes="ssssss" /><path
       style="fill:#1ef858;fill-opacity:1;stroke:#000000;stroke-width:0.865;stroke-linecap:round;stroke-linejoin:round;stroke-dasharray:none;stroke-opacity:1"
       d="m 99.760187,46.06023 c 0.282563,3.271806 1.202803,8.511054 1.462263,8.69283 0,0 6.15296,-10.675827 12.32449,-9.394897 6.85281,1.422332 8.18218,-13.491962 -4.74796,-10.809184 -9.216941,1.912353 -9.392502,7.415594 -9.038793,11.511251 z"
       id="path25"
       sodipodi:nodetypes="scsss" /><path
       style="fill:#1ef858;fill-opacity:1;stroke:#000000;stroke-width:0.865;stroke-linecap:round;stroke-linejoin:round;stroke-dasharray:none;stroke-opacity:1"
       d="m 109.09329,52.753122 c -0.68554,0.809866 -1.71805,2.287344 -1.69609,2.387318 1.16518,-0.29282 4.36618,-0.686355 5.12871,0.460696 1.2519,1.8832 5.07318,-1.746442 1.23457,-3.609221 -1.81971,-0.883059 -3.81014,-0.251265 -4.66719,0.761207 z"
       id="path25-2"
       sodipodi:nodetypes="scsss" /></g></svg>
