<?xml version="1.0" encoding="UTF-8" standalone="no"?>
<!-- Created with Inkscape (http://www.inkscape.org/) -->

<svg
   width="60.603088mm"
   height="82.59182mm"
   viewBox="0 0 60.603088 82.59182"
   version="1.1"
   id="svg1"
   xml:space="preserve"
   xmlns="http://www.w3.org/2000/svg"
   xmlns:svg="http://www.w3.org/2000/svg"><defs
     id="defs1" /><g
     id="layer1"
     transform="translate(-6.8418352,-5.6878556)"><g
       id="g10"><g
         id="text6"
         style="font-size:12.8964px;line-height:0.85;font-family:'JetBrains Mono';-inkscape-font-specification:'JetBrains Mono, @wght=700';font-variation-settings:'wght' 700;white-space:pre;stroke-width:0.460585"
         transform="matrix(0,2.2882305,-2.2882305,0,584.41395,-205.49837)"
         aria-label="interesting&#10;duck."><path
           style="font-size:5.82083px;font-family:'Shantell Sans';-inkscape-font-specification:'Shantell Sans, @BNCE=32,INFM=100,wght=800';font-variation-settings:'BNCE' 32, 'INFM' 100, 'wght' 800;text-align:center;text-anchor:middle"
           d="m 94.332284,230.30259 q -0.186267,0 -0.331788,-0.0873 -0.1397,-0.0873 -0.221191,-0.22701 -0.07567,-0.14552 -0.07567,-0.31433 0,-0.24447 -0.0058,-0.40745 0,-0.16881 -0.0058,-0.29104 -0.0058,-0.12806 -0.01164,-0.23284 0,-0.11059 0,-0.23283 0,-0.19791 0.08731,-0.36089 0.08731,-0.16299 0.238654,-0.26194 0.151342,-0.10477 0.331787,-0.10477 0.20955,0 0.34925,0.1397 0.1397,0.13387 0.145521,0.40745 0,0.0873 -0.0058,0.23866 -0.0058,0.15134 -0.01746,0.33178 -0.0058,0.18045 -0.01746,0.36672 -0.01164,0.18044 -0.01746,0.33761 -0.0058,0.15134 -0.0058,0.24447 0,0.20373 -0.110596,0.33179 -0.104775,0.12223 -0.325966,0.12223 z m -0.08731,-3.20727 q -0.302683,0 -0.471487,-0.15134 -0.168804,-0.15135 -0.168804,-0.37254 0,-0.26776 0.197908,-0.4191 0.197908,-0.15716 0.512233,-0.15716 0.192087,0 0.320146,0.0815 0.128058,0.0815 0.192087,0.20955 0.06403,0.12224 0.06403,0.25612 0,0.22701 -0.168804,0.38999 -0.168804,0.16299 -0.477308,0.16299 z m 4.307417,3.60891 q -0.279399,0 -0.483128,-0.23283 -0.197909,-0.22701 -0.308504,-0.68104 -0.104775,-0.45402 -0.104775,-1.12342 0,-0.099 -0.0058,-0.18044 -0.0058,-0.0815 -0.02328,-0.1397 -0.01746,-0.0582 -0.05821,-0.099 -0.04075,-0.0466 -0.110596,-0.0815 0.157163,0.006 0.261938,0.0291 0.110596,0.0175 0.162983,0.0931 0.05239,0.0699 0.03493,0.23865 -0.116417,-0.12806 -0.186267,-0.18044 -0.06985,-0.0524 -0.151341,-0.0524 -0.110596,0 -0.256117,0.14552 -0.14552,0.14552 -0.302683,0.40746 -0.157162,0.26193 -0.308504,0.61701 -0.151341,0.34924 -0.273579,0.76252 -0.05821,0.19209 -0.174625,0.26776 -0.110595,0.0757 -0.314324,0.0757 -0.267759,0 -0.401638,-0.26776 -0.133879,-0.27357 -0.133879,-0.69267 0,-0.24448 0.01746,-0.43075 0.01746,-0.19208 0.04075,-0.34925 0.02911,-0.16298 0.04657,-0.33178 0.01746,-0.17463 0.01746,-0.40164 0,-0.15134 0.08149,-0.2503 0.08731,-0.099 0.250296,-0.099 0.238654,0 0.401637,0.1688 0.168804,0.16881 0.168804,0.45985 0,0.12224 -0.01746,0.22701 -0.01164,0.10478 -0.0291,0.22119 -0.01746,0.1106 -0.03493,0.2503 -0.01164,0.1397 -0.01164,0.33179 l -0.267758,-0.38418 q 0.197908,-0.59372 0.459845,-0.96626 0.261938,-0.37835 0.547158,-0.55297 0.291042,-0.18045 0.576263,-0.18045 0.28522,0 0.49477,0.12806 0.215371,0.12224 0.331787,0.33761 0.116417,0.20955 0.116417,0.47148 0,0.44239 0.02328,0.75671 0.02328,0.30851 0.08149,0.50641 0.06403,0.19791 0.180446,0.30269 0.07567,0.0699 0.104775,0.15134 0.03493,0.0757 0.03493,0.18626 0,0.23284 -0.157163,0.38418 -0.151341,0.15716 -0.320146,0.15716 z m 2.305049,-0.0757 q -0.53552,0 -0.85566,-0.22119 -0.320144,-0.22119 -0.465665,-0.62283 -0.1397,-0.40164 -0.1397,-0.93133 0,-0.28522 0.02328,-0.50641 0.0291,-0.22702 0.05239,-0.43657 0.02328,-0.20955 0.02328,-0.45402 0,-0.23866 -0.03493,-0.38418 -0.0291,-0.15134 -0.0291,-0.29686 0,-0.16298 0.104775,-0.28522 0.104775,-0.12806 0.343429,-0.12806 0.291041,0 0.465671,0.21537 0.17462,0.20955 0.17462,0.72761 0,0.14552 -0.0175,0.3085 -0.0175,0.16298 -0.0408,0.34925 -0.0233,0.18045 -0.0407,0.39582 -0.0175,0.20955 -0.0175,0.45984 0,0.30269 0.0699,0.48313 0.0699,0.17463 0.20372,0.2503 0.1397,0.0757 0.33761,0.0757 0.13388,0 0.21537,-0.0233 0.0873,-0.0291 0.15717,-0.0524 0.0699,-0.0233 0.15134,-0.0233 0.15134,0 0.23283,0.0931 0.0815,0.0931 0.0815,0.28522 0,0.3085 -0.23283,0.51223 -0.23283,0.20955 -0.76253,0.20955 z m -0.59372,-1.96744 q -0.26776,0.1106 -0.419101,-0.0116 -0.145521,-0.12806 -0.145521,-0.36089 0,-0.18627 0.06403,-0.33761 0.06403,-0.15134 0.331782,-0.2503 0.2503,-0.0815 0.55298,-0.13388 0.3085,-0.0582 0.58208,-0.0582 0.39,0 0.54716,0.15134 0.15716,0.14552 0.15716,0.37253 0,0.15716 -0.099,0.2503 -0.099,0.0931 -0.2503,0.10477 -0.2794,0.0175 -0.49477,0.0466 -0.20955,0.0291 -0.40163,0.0815 -0.19209,0.0524 -0.42492,0.14552 z m 3.55653,1.76953 q -0.5588,0 -0.9197,-0.18626 -0.35507,-0.19209 -0.52387,-0.52388 -0.1688,-0.33761 -0.1688,-0.76253 0,-0.34925 0.12805,-0.70432 0.12806,-0.36089 0.3609,-0.65775 0.23865,-0.29686 0.57044,-0.47731 0.33761,-0.18045 0.7567,-0.18045 0.37254,0 0.65194,0.12806 0.2794,0.12806 0.43656,0.37836 0.16298,0.24447 0.16298,0.60536 0,0.38418 -0.21537,0.62865 -0.21537,0.23866 -0.56462,0.34925 -0.34343,0.1106 -0.73342,0.1106 -0.35507,0 -0.54134,-0.13388 -0.18627,-0.1397 -0.18627,-0.31433 0,-0.12805 0.0466,-0.18626 0.0466,-0.064 0.14552,-0.064 0.064,0 0.16298,0.0233 0.10478,0.0233 0.26194,0.0233 0.16881,0 0.31433,-0.0466 0.15134,-0.0524 0.24447,-0.13388 0.099,-0.0873 0.099,-0.18627 0,-0.099 -0.064,-0.15134 -0.0582,-0.0524 -0.20373,-0.0524 -0.18045,0 -0.33179,0.0931 -0.15134,0.0931 -0.26776,0.25029 -0.11059,0.15717 -0.17462,0.35507 -0.0582,0.19209 -0.0582,0.40164 0,0.17463 0.0466,0.28522 0.0524,0.1106 0.16298,0.16299 0.11642,0.0524 0.3085,0.0524 0.36671,0 0.61701,-0.064 0.2503,-0.064 0.4191,-0.14552 0.1688,-0.0815 0.29686,-0.14552 0.12806,-0.064 0.25612,-0.064 0.12806,0 0.18627,0.0815 0.064,0.0757 0.064,0.23284 0,0.19209 -0.12223,0.37253 -0.12224,0.18045 -0.34925,0.32597 -0.22701,0.14552 -0.55298,0.23283 -0.32015,0.0873 -0.72178,0.0873 z m 2.92206,0.064 q -0.15134,0 -0.29104,-0.10477 -0.13388,-0.099 -0.2212,-0.26194 -0.0815,-0.1688 -0.0815,-0.37253 0,-0.33179 -0.0175,-0.57044 -0.0116,-0.23866 -0.0466,-0.42493 -0.0349,-0.19208 -0.10477,-0.35507 -0.0582,-0.16298 -0.0815,-0.23865 -0.0175,-0.0757 -0.0175,-0.15716 0,-0.11642 0.0931,-0.18045 0.0989,-0.0699 0.23865,-0.0699 0.19791,0 0.34343,0.0408 0.15134,0.0407 0.25612,0.15134 0.10477,0.10477 0.17462,0.2794 0.0757,0.1688 0.11642,0.43074 l -0.41328,0.22119 q 0.12806,-0.33179 0.32014,-0.60536 0.19791,-0.27358 0.42493,-0.47149 0.23283,-0.20373 0.4773,-0.30851 0.24448,-0.10477 0.47149,-0.10477 0.22119,0 0.30268,0.18045 0.0873,0.17462 0.0873,0.46566 0,0.12806 -0.0582,0.2503 -0.0524,0.12223 -0.25612,0.20373 -0.36089,0.14552 -0.59954,0.29686 -0.23284,0.14552 -0.37254,0.30268 -0.1397,0.15716 -0.21537,0.34925 -0.0699,0.19209 -0.11059,0.42492 -0.0408,0.24448 -0.0873,0.38418 -0.0466,0.13388 -0.12223,0.18626 -0.0757,0.0582 -0.20955,0.0582 z m 3.71368,0.10478 q -0.53551,0 -0.87894,-0.16881 -0.34343,-0.1688 -0.50641,-0.46566 -0.16299,-0.29687 -0.16299,-0.67522 0,-0.32597 0.12224,-0.65193 0.12224,-0.33179 0.34925,-0.59955 0.23283,-0.27358 0.55298,-0.44238 0.32015,-0.16881 0.72178,-0.16881 0.5297,0 0.86149,0.26776 0.33178,0.26194 0.33178,0.76835 0,0.34343 -0.20955,0.56462 -0.20955,0.21537 -0.55298,0.31433 -0.3376,0.0931 -0.74506,0.0931 -0.31433,0 -0.49477,-0.12224 -0.17463,-0.12805 -0.17463,-0.29104 0,-0.0931 0.0408,-0.1397 0.0466,-0.0466 0.1397,-0.0466 0.064,0 0.14552,0.0175 0.0873,0.0116 0.23283,0.0116 0.16299,0 0.32015,-0.0408 0.15716,-0.0407 0.26194,-0.11641 0.10477,-0.0815 0.10477,-0.17463 0,-0.10477 -0.0582,-0.15716 -0.0524,-0.0524 -0.18626,-0.0524 -0.22702,0 -0.40164,0.15716 -0.17463,0.15717 -0.27358,0.40746 -0.099,0.2503 -0.099,0.52388 0,0.12224 0.0407,0.19791 0.0466,0.0757 0.15134,0.11641 0.1106,0.0349 0.29104,0.0349 0.34925,0 0.58209,-0.0582 0.23283,-0.064 0.38999,-0.13388 0.16299,-0.0757 0.2794,-0.1397 0.12224,-0.064 0.24448,-0.064 0.12806,0 0.18626,0.0815 0.064,0.0757 0.064,0.23284 0,0.1688 -0.11641,0.33178 -0.11642,0.16299 -0.33761,0.29687 -0.21537,0.13387 -0.52388,0.20955 -0.3085,0.0815 -0.69268,0.0815 z m 3.09086,-0.22119 q -0.35507,0 -0.59372,-0.12224 -0.23284,-0.12806 -0.35507,-0.32015 -0.11642,-0.19209 -0.11642,-0.39581 0,-0.12806 0.0757,-0.20955 0.0815,-0.0873 0.22701,-0.0873 0.0873,0 0.17463,0.0291 0.0931,0.0233 0.18626,0.0582 0.099,0.0291 0.20955,0.0582 0.1106,0.0233 0.24448,0.0233 0.30268,0 0.47731,-0.0582 0.18044,-0.0582 0.31432,-0.18627 -0.0757,-0.064 -0.23865,-0.099 -0.16299,-0.0408 -0.36671,-0.0699 -0.19791,-0.0349 -0.40746,-0.0873 -0.20955,-0.0582 -0.39,-0.16299 -0.17462,-0.10477 -0.28522,-0.2794 -0.10477,-0.18044 -0.10477,-0.45984 0,-0.34343 0.15716,-0.57626 0.15716,-0.23284 0.41328,-0.37254 0.25611,-0.14552 0.57044,-0.20373 0.31432,-0.064 0.62865,-0.0582 0.22701,0 0.38417,0.10477 0.15717,0.099 0.23866,0.25612 0.0815,0.15134 0.0815,0.32596 0,0.16881 -0.0815,0.26194 -0.0815,0.0931 -0.22119,0.0931 -0.0757,0 -0.1397,-0.006 -0.064,-0.0116 -0.13388,-0.0175 -0.0699,-0.006 -0.17463,-0.006 -0.29686,0 -0.49477,0.0582 -0.19209,0.0524 -0.26776,0.1688 0.0698,0.0931 0.22702,0.14552 0.16298,0.0466 0.36671,0.0815 0.20373,0.0291 0.4191,0.0757 0.21537,0.0466 0.39581,0.1397 0.18045,0.0873 0.29105,0.24448 0.11641,0.15716 0.11641,0.41328 0,0.43074 -0.25611,0.71014 -0.2503,0.27358 -0.6694,0.40164 -0.41328,0.12806 -0.90223,0.12806 z m 3.68459,0.0233 q -0.51223,0 -0.81492,-0.22119 -0.29686,-0.22702 -0.43074,-0.62283 -0.12806,-0.40164 -0.12806,-0.93133 0,-0.30851 0.0233,-0.54716 0.0291,-0.24448 0.0524,-0.47149 0.0233,-0.23283 0.0233,-0.50059 0,-0.29104 -0.0524,-0.47149 -0.0466,-0.18626 -0.0466,-0.36089 0,-0.15134 0.0699,-0.2503 0.0757,-0.099 0.30851,-0.099 0.33761,0 0.54134,0.27358 0.20372,0.27358 0.20372,0.87894 0,0.14553 -0.0175,0.30851 -0.0175,0.16298 -0.0407,0.34925 -0.0233,0.18044 -0.0408,0.39582 -0.0175,0.20954 -0.0175,0.45984 0,0.2794 0.0582,0.4482 0.064,0.16881 0.19208,0.24448 0.12806,0.0699 0.31433,0.0699 0.099,0 0.1688,-0.0175 0.0699,-0.0175 0.13388,-0.0291 0.064,-0.0175 0.13388,-0.0175 0.15134,0 0.22119,0.0873 0.0698,0.0873 0.0698,0.26194 0,0.33761 -0.23865,0.55298 -0.23284,0.20955 -0.68686,0.20955 z m -0.50641,-1.86267 q -0.26776,0.1106 -0.4191,-0.0116 -0.14552,-0.12806 -0.14552,-0.36089 0,-0.18627 0.064,-0.33761 0.064,-0.15134 0.33178,-0.25029 0.19209,-0.0699 0.4191,-0.1106 0.23284,-0.0408 0.45985,-0.0582 0.22701,-0.0233 0.42492,-0.0233 0.22701,0 0.40746,0.0873 0.18044,0.0815 0.28522,0.21537 0.10477,0.13388 0.10477,0.29686 0,0.10478 -0.064,0.18627 -0.0582,0.0815 -0.17462,0.0931 -0.36089,0.0175 -0.64611,0.0408 -0.2794,0.0175 -0.5297,0.0699 -0.25029,0.0524 -0.51805,0.16298 z m 2.67175,2.08968 q -0.19209,0 -0.32015,-0.0873 -0.12224,-0.0815 -0.18626,-0.22701 -0.0582,-0.14552 -0.0582,-0.31433 0,-0.32597 -0.006,-0.5588 -0.006,-0.23283 -0.0116,-0.40164 0,-0.17462 -0.006,-0.32014 -0.006,-0.14552 -0.006,-0.32015 0,-0.20955 0.0699,-0.37835 0.0757,-0.17463 0.22119,-0.27358 0.15135,-0.10477 0.38418,-0.10477 0.22701,0 0.35507,0.14552 0.13388,0.1397 0.1397,0.44238 0,0.11059 -0.006,0.29686 -0.006,0.18627 -0.0175,0.4191 -0.006,0.22701 -0.0175,0.45403 -0.006,0.22119 -0.0116,0.4191 -0.006,0.19208 -0.006,0.30268 0,0.21537 -0.12806,0.36089 -0.12223,0.14552 -0.38999,0.14552 z m 0.0524,-3.37026 q -0.32015,0 -0.51224,-0.16298 -0.19208,-0.16881 -0.19208,-0.39582 0,-0.26776 0.18044,-0.40164 0.18045,-0.1397 0.46567,-0.1397 0.20373,0 0.34343,0.0931 0.14552,0.0873 0.22119,0.22119 0.0757,0.13388 0.0757,0.26776 0,0.19208 -0.1397,0.35507 -0.13388,0.16298 -0.44238,0.16298 z m 4.11532,3.13743 q -0.27358,0 -0.47731,-0.22119 -0.19791,-0.2212 -0.30268,-0.65194 -0.10478,-0.43656 -0.10478,-1.08267 0,-0.099 -0.006,-0.17463 -0.006,-0.0757 -0.0233,-0.13387 -0.0175,-0.0582 -0.0582,-0.099 -0.0407,-0.0466 -0.11059,-0.0815 0.15716,0.006 0.26193,0.0291 0.1106,0.0175 0.16299,0.0931 0.0524,0.0699 0.0349,0.23865 -0.11059,-0.13388 -0.18626,-0.18044 -0.0698,-0.0524 -0.15135,-0.0524 -0.11059,0 -0.25611,0.1397 -0.1397,0.13388 -0.29686,0.38417 -0.15717,0.2503 -0.30851,0.59373 -0.14552,0.33761 -0.27358,0.74506 -0.064,0.20373 -0.17462,0.28522 -0.1106,0.0757 -0.30269,0.0757 -0.2794,0 -0.41327,-0.26775 -0.13388,-0.26776 -0.13388,-0.68104 0,-0.26194 0.0175,-0.45403 0.0233,-0.19208 0.0524,-0.36089 0.0291,-0.1688 0.0466,-0.34343 0.0233,-0.18044 0.0233,-0.40745 0,-0.18045 0.0931,-0.2794 0.0931,-0.10478 0.27358,-0.10478 0.22701,0 0.37835,0.15716 0.15134,0.15135 0.15134,0.44239 0,0.13388 -0.0175,0.24447 -0.0175,0.1106 -0.0407,0.23283 -0.0175,0.11642 -0.0408,0.2794 -0.0175,0.15717 -0.0175,0.39 l -0.26194,-0.36671 q 0.19791,-0.57626 0.45985,-0.94298 0.26775,-0.37253 0.5588,-0.55298 0.29686,-0.18044 0.58208,-0.18044 0.43074,0 0.66939,0.26194 0.24448,0.26193 0.24448,0.65775 0,0.43074 0.0233,0.7276 0.0233,0.29687 0.0815,0.48313 0.064,0.18045 0.17463,0.28522 0.0815,0.0757 0.11641,0.16299 0.0349,0.0815 0.0349,0.20373 0,0.21537 -0.14552,0.36089 -0.14552,0.14552 -0.33761,0.14552 z m 3.03848,1.5658 q -0.5588,0 -0.90223,-0.0815 -0.34343,-0.0815 -0.52388,-0.20955 -0.18044,-0.12806 -0.24447,-0.2794 -0.0582,-0.14552 -0.0582,-0.27358 0,-0.23865 0.16298,-0.40164 0.16881,-0.15716 0.45403,-0.15716 0.11642,0 0.15716,0.0466 0.0408,0.0466 0.0408,0.1397 0,0.0582 0.0699,0.10477 0.0699,0.0524 0.25611,0.0815 0.18627,0.0291 0.5297,0.0291 0.32014,0 0.44238,-0.1106 0.12224,-0.10477 0.12224,-0.3085 0,-0.23283 -0.0291,-0.41328 -0.0291,-0.18627 -0.0757,-0.36089 -0.0466,-0.17463 -0.0931,-0.37253 -0.0407,-0.20373 -0.0757,-0.47149 l 0.31433,0.0407 q -0.0873,0.2794 -0.2503,0.46567 -0.15716,0.18627 -0.36671,0.29686 -0.20955,0.10478 -0.42492,0.15134 -0.20955,0.0408 -0.39582,0.0408 -0.42492,0 -0.73342,-0.1397 -0.30851,-0.1397 -0.47731,-0.40164 -0.16881,-0.26193 -0.16881,-0.62865 0,-0.35507 0.1397,-0.65775 0.14552,-0.3085 0.39,-0.53552 0.25029,-0.22701 0.56462,-0.35507 0.32015,-0.12806 0.66939,-0.12806 0.32597,0 0.51224,0.11642 0.19209,0.11642 0.27358,0.29686 0.0815,0.18045 0.0815,0.37254 0,0.1688 -0.0699,0.26775 -0.0698,0.099 -0.14552,0.099 -0.0757,0 -0.12806,-0.0291 -0.0524,-0.0291 -0.10478,-0.0699 -0.0466,-0.0407 -0.11059,-0.0699 -0.064,-0.0291 -0.16298,-0.0291 -0.15135,0 -0.30851,0.0582 -0.15716,0.0582 -0.29686,0.15134 -0.13388,0.0931 -0.21537,0.20955 -0.0815,0.1106 -0.0815,0.22119 0,0.1106 0.0931,0.17463 0.0931,0.0582 0.28522,0.0582 0.30851,0 0.54716,-0.12223 0.23865,-0.12806 0.37253,-0.37254 0.1397,-0.24447 0.1397,-0.59954 0,-0.22701 0.0815,-0.32597 0.0815,-0.10477 0.30269,-0.10477 0.18626,0 0.30268,0.0815 0.12224,0.0815 0.18627,0.20373 0.064,0.12224 0.0698,0.25611 0.0349,0.38418 0.099,0.68104 0.064,0.29686 0.12806,0.58208 0.0698,0.28523 0.11642,0.61701 0.0524,0.33179 0.0524,0.78581 0,0.6403 -0.39581,1.00701 -0.39,0.37253 -1.1176,0.37253 z"
           id="path7" /><path
           style="font-family:'Shantell Sans';-inkscape-font-specification:'Shantell Sans, @BNCE=32,INFM=100,wght=800';font-variation-settings:'BNCE' 32, 'INFM' 100, 'wght' 800;text-align:center;text-anchor:middle"
           d="m 96.351906,240.9344 q -0.747991,0 -1.379914,-0.27083 -0.619028,-0.28372 -1.070402,-0.76088 -0.451374,-0.47717 -0.696405,-1.0962 -0.245032,-0.63192 -0.245032,-1.32833 0,-0.91564 0.399788,-1.59915 0.412685,-0.68351 1.14778,-1.05751 0.735095,-0.38689 1.702325,-0.37399 0.722198,0 1.238054,0.20634 0.515856,0.19345 0.799577,0.59324 0.283721,0.38689 0.283721,0.98012 0,0.32241 -0.14186,0.52875 -0.128964,0.19345 -0.32241,0.19345 -0.128964,0 -0.245032,-0.0387 -0.103171,-0.0387 -0.232135,-0.0774 -0.128964,-0.0516 -0.32241,-0.0903 -0.18055,-0.0387 -0.477167,-0.0387 -0.657716,0 -1.057505,0.20634 -0.399788,0.19345 -0.399788,0.56744 0,0.25793 0.154757,0.54165 0.154756,0.28372 0.373995,0.47717 0.232135,0.18055 0.425581,0.18055 0.631924,0 1.121987,-0.74799 0.490063,-0.76089 0.773784,-2.20529 0.296617,-1.44439 0.296617,-3.50782 0,-0.50296 0.206343,-0.7222 0.219239,-0.21924 0.554545,-0.21924 0.79958,0 1.21226,0.55455 0.41269,0.54165 0.3482,1.59915 -0.0516,0.81248 -0.18055,1.41861 -0.12896,0.60613 -0.24503,1.17357 -0.10317,0.56744 -0.10317,1.26385 0,0.7093 0.0903,1.13488 0.10317,0.41268 0.24503,0.64482 0.15476,0.21924 0.29662,0.3482 0.14186,0.11607 0.23213,0.21924 0.10317,0.0903 0.10317,0.27083 0,0.46427 -0.3353,0.82537 -0.33531,0.3482 -0.88986,0.3482 -0.399784,0 -0.747987,-0.19345 -0.335307,-0.19344 -0.593235,-0.51585 -0.257928,-0.33531 -0.399788,-0.76089 -0.128964,-0.42558 -0.128964,-0.88985 l 1.250951,-0.374 q -0.309514,0.96723 -0.838266,1.53467 -0.528753,0.56744 -1.121987,0.81248 -0.593234,0.24503 -1.083298,0.24503 z m 9.414374,0.18055 q -0.87696,0 -1.58626,-0.34821 -0.7093,-0.36109 -1.21226,-0.92854 -0.50296,-0.56744 -0.77379,-1.19936 -0.27082,-0.64482 -0.27082,-1.22516 0,-0.56744 0.10317,-1.0704 0.10317,-0.50296 0.30951,-1.01882 0.0774,-0.21923 0.25793,-0.3611 0.19345,-0.14186 0.43848,-0.14186 0.59323,0 0.99302,0.374 0.41269,0.374 0.41269,1.00592 0,0.11607 -0.0516,0.27082 -0.0387,0.14186 -0.0903,0.29662 -0.0516,0.15476 -0.10317,0.32241 -0.0387,0.16765 -0.0387,0.32241 0,0.25793 0.12896,0.51586 0.14186,0.25792 0.3611,0.46427 0.21924,0.20634 0.46427,0.3353 0.25793,0.12897 0.50296,0.12897 0.41269,0 0.68351,-0.25793 0.27082,-0.27082 0.41268,-0.67061 0.14186,-0.41269 0.14186,-0.83827 0,-0.25793 -0.0129,-0.46427 -0.0129,-0.20634 -0.0258,-0.38689 -0.0129,-0.19345 -0.0129,-0.39979 0,-0.47717 0.18055,-0.73509 0.19344,-0.27083 0.7093,-0.27083 0.42558,0 0.7222,0.19345 0.29662,0.18055 0.45137,0.56744 0.15476,0.38689 0.15476,0.96723 0,1.52177 -0.43848,2.54059 -0.42558,1.01881 -1.16067,1.52177 -0.7351,0.49007 -1.65074,0.49007 z m 7.60887,0.7222 q -1.0833,0 -1.83129,-0.374 -0.73509,-0.374 -1.10909,-1.03171 -0.374,-0.65772 -0.374,-1.52178 0,-0.81247 0.33531,-1.50888 0.3482,-0.7093 0.95433,-1.23805 0.60614,-0.54165 1.39282,-0.83827 0.78668,-0.29661 1.66363,-0.29661 0.43848,0 0.76089,0.15475 0.32241,0.14186 0.50296,0.43848 0.18055,0.28372 0.18055,0.7093 0,0.54165 -0.21924,0.91565 -0.21924,0.37399 -0.61903,0.37399 -0.19344,0 -0.27082,-0.0903 -0.0774,-0.10317 -0.15476,-0.19345 -0.0774,-0.0903 -0.30951,-0.0903 -0.56744,0 -1.00592,0.24503 -0.43848,0.24503 -0.69641,0.63192 -0.24503,0.38689 -0.24503,0.81248 0,0.19344 0.0645,0.3482 0.0774,0.15476 0.29662,0.25793 0.23214,0.0903 0.69641,0.0903 0.49006,0 0.76088,-0.11607 0.28372,-0.12896 0.46427,-0.28372 0.18055,-0.16765 0.34821,-0.28372 0.16765,-0.12896 0.42558,-0.12896 0.3353,0 0.50296,0.21924 0.16765,0.20634 0.16765,0.67061 0,0.60613 -0.3482,1.09619 -0.33531,0.47717 -0.94144,0.748 -0.60613,0.28372 -1.39281,0.28372 z m 10.33003,-0.63193 q -0.52875,0 -1.17357,-0.19344 -0.64482,-0.20635 -1.28964,-0.54165 -0.63193,-0.33531 -1.17358,-0.7351 -0.52875,-0.39979 -0.85116,-0.81247 -0.32241,-0.41269 -0.32241,-0.76089 0,-0.54165 0.29662,-1.0575 0.30951,-0.52876 0.79958,-0.99303 0.49006,-0.46427 1.0446,-0.81247 0.56745,-0.3611 1.0962,-0.56744 0.54165,-0.20634 0.92854,-0.20634 0.56744,0 0.90275,0.30951 0.3353,0.30951 0.3353,0.87696 0,0.3611 -0.21924,0.60613 -0.21923,0.23213 -0.86405,0.42558 -0.42559,0.12896 -0.77379,0.29662 -0.3482,0.15475 -0.59323,0.32241 -0.23214,0.15475 -0.3611,0.29661 -0.12897,0.12897 -0.12897,0.20634 0,0.11607 0.19345,0.27083 0.20634,0.15476 0.69641,0.3482 0.49006,0.18055 1.32833,0.38689 0.60613,0.12897 0.85116,0.52876 0.25793,0.39978 0.25793,0.83826 0,0.43848 -0.24504,0.7093 -0.24503,0.25793 -0.73509,0.25793 z m -5.0296,0.0387 q -0.3353,0 -0.65771,-0.15476 -0.32241,-0.15475 -0.52876,-0.56744 -0.19344,-0.41268 -0.19344,-1.17357 0,-0.49006 0.0903,-1.30254 0.0903,-0.81247 0.16766,-1.81839 0.0903,-1.01881 0.0903,-2.08921 0,-0.39979 -0.0258,-0.68351 -0.0129,-0.29662 -0.0387,-0.50296 -0.0129,-0.21924 -0.0387,-0.3869 -0.0129,-0.16765 -0.0129,-0.32241 0,-0.45137 0.21924,-0.6835 0.23214,-0.24504 0.67062,-0.24504 0.51585,0 0.85116,0.27083 0.3353,0.27082 0.50296,0.87695 0.16765,0.60613 0.16765,1.61205 0,0.47717 -0.0516,0.94144 -0.0387,0.46427 -0.11606,0.91564 -0.0645,0.43848 -0.14186,0.86406 -0.0645,0.42558 -0.11607,0.83827 -0.0387,0.39979 -0.0387,0.78668 0,0.59323 0.0258,1.04461 0.0387,0.45137 0.0387,0.90275 0,0.46427 -0.23213,0.67061 -0.21924,0.20634 -0.63193,0.20634 z m 8.2021,0.59324 q -0.65772,0 -0.99302,-0.34821 -0.32241,-0.3611 -0.32241,-1.03171 0,-0.7222 0.46427,-1.10909 0.47716,-0.38689 1.13488,-0.38689 0.43848,0 0.7093,0.20634 0.27083,0.20634 0.38689,0.52875 0.12897,0.32241 0.12897,0.68351 0,0.58034 -0.38689,1.01882 -0.374,0.43848 -1.12199,0.43848 z"
           id="path8" /></g><path
         id="path6"
         style="font-variation-settings:'opsz' 32, 'wght' 900;fill:#ffda0f;fill-opacity:1;stroke-width:0.465;stroke-linecap:round;stroke-linejoin:round;paint-order:markers stroke fill"
         d="m 39.365939,38.524857 c 2.05731,6.77867 -2.01844,9.59918 -8.43443,9.58024 -5.92611,-0.0175 -8.80476,-13.38867 -12.57208,-20.33812 -1.59958,-2.95068 3.13753,-4.38974 5.32891,-5.23433 2.19138,-0.84459 4.55225,-2.06006 7.24317,-0.081 2.26029,1.66235 6.51999,9.76529 8.43443,16.07316 z" /><path
         style="fill:none;stroke:#000000;stroke-width:0.865;stroke-linecap:round;stroke-linejoin:round;stroke-dasharray:none;stroke-opacity:1"
         d="m 10.213554,87.362277 v -63.89521 c -0.173468,1.19964 -3.9376797,-7.15816 -2.6594857,-10.55325 2.064129,-5.4826696 9.6758107,-8.7384496 15.5608307,-5.4951296 4.34666,2.39551 7.53601,9.6200896 6.45576,13.4167996 3.56563,4.19423 9.45553,14.13922 9.95314,17.21558 2.02313,12.50762 -9.73735,10.07426 -9.85479,10.05592 -3.37386,-0.52683 -5.93925,-5.84614 -11.62516,-22.44744"
         id="path1" /><path
         style="fill:none;stroke:#000000;stroke-width:0.865;stroke-linecap:round;stroke-linejoin:round;stroke-dasharray:none;stroke-opacity:1"
         d="M 24.651209,87.84717 V 43.69587"
         id="path2" /><path
         id="path3"
         style="font-variation-settings:'opsz' 32, 'wght' 900;stroke-width:1.12728;stroke-linecap:round;stroke-linejoin:round;paint-order:markers stroke fill"
         d="m 15.90736,17.001961 a 1.2485991,1.2485991 0 0 1 -1.248599,1.248599 1.2485991,1.2485991 0 0 1 -1.248599,-1.248599 1.2485991,1.2485991 0 0 1 1.248599,-1.248599 1.2485991,1.2485991 0 0 1 1.248599,1.248599 z" /><path
         id="path3-6"
         style="font-variation-settings:'opsz' 32, 'wght' 900;stroke-width:1.12728;stroke-linecap:round;stroke-linejoin:round;paint-order:markers stroke fill"
         d="m 23.469396,15.732643 a 1.2485991,1.2485991 0 0 1 -1.248599,1.248599 1.2485991,1.2485991 0 0 1 -1.248599,-1.248599 1.2485991,1.2485991 0 0 1 1.248599,-1.248599 1.2485991,1.2485991 0 0 1 1.248599,1.248599 z" /><path
         style="fill:none;stroke:#000000;stroke-width:0.865;stroke-linecap:round;stroke-linejoin:miter;stroke-dasharray:none;stroke-opacity:1"
         d="m 32.074089,42.101797 2.22488,3.69414"
         id="path4" /><path
         style="fill:none;stroke:#000000;stroke-width:0.865;stroke-linecap:round;stroke-linejoin:miter;stroke-dasharray:none;stroke-opacity:1"
         d="m 34.005109,41.472117 2.05697,3.48424"
         id="path5" /></g></g></svg>
