<?xml version="1.0" encoding="UTF-8" standalone="no"?>
<!-- Created with Inkscape (http://www.inkscape.org/) -->

<svg
   width="188.80905mm"
   height="154.26018mm"
   viewBox="0 0 188.80905 154.26018"
   version="1.1"
   id="svg1"
   xmlns="http://www.w3.org/2000/svg"
   xmlns:svg="http://www.w3.org/2000/svg">
  <defs
     id="defs1" />
  <g
     id="layer1"
     transform="translate(-10.332827,-71.257365)">
    <path
       id="path341"
       style="fill:#2eff3f;fill-opacity:1;fill-rule:evenodd;stroke:none;stroke-width:6.71689;stroke-linejoin:round;stroke-dasharray:none;stroke-opacity:1"
       d="m 154.43859,71.46632 c -1.51346,-0.205477 -3.05435,-0.262743 -4.60036,-0.156975 -9.60468,0.656982 -18.72801,11.298168 -21.92877,21.827246 C 118.85467,91.901159 109.23902,91.59079 99.241805,92.274518 88.519709,93.008731 78.443445,94.688745 69.181996,97.234482 64.072417,88.324463 54.607208,80.684749 45.871007,81.282263 33.492789,82.12714 22.91657,93.272171 23.76852,105.67146 c 0.284155,4.18246 1.931383,9.08809 4.459393,13.72153 -12.433135,12.33356 -19.0611093,28.54192 -17.725878,48.10085 3.036981,44.37551 46.007751,61.21585 99.857165,57.533 53.84733,-3.68261 91.65123,-22.65592 88.61173,-67.03188 l 0.005,-0.001 c -1.42176,-20.80982 -11.60159,-37.36368 -27.5652,-48.69818 2.58472,-5.71718 3.9865,-11.905451 3.64778,-16.843311 C 174.31305,81.603112 165.03221,72.90432 154.438,71.465946 Z" />
  </g>
</svg>
