<?xml version="1.0" encoding="UTF-8" standalone="no"?>
<!-- Created with Inkscape (http://www.inkscape.org/) -->
<!--Modified. Original fill colour: #1a1a1a-->

<svg
   width="5000"
   height="5000"
   viewBox="0 0 1322.9167 1322.9167"
   version="1.1"
   id="svg1"
   xml:space="preserve"
   sodipodi:docname="jjlogo-duotone.svg"
   inkscape:export-filename="jjlogo.png"
   inkscape:export-xdpi="120"
   inkscape:export-ydpi="120"
   inkscape:version="1.3.2 (091e20e, 2023-11-25, custom)"
   xmlns:inkscape="http://www.inkscape.org/namespaces/inkscape"
   xmlns:sodipodi="http://sodipodi.sourceforge.net/DTD/sodipodi-0.dtd"
   xmlns="http://www.w3.org/2000/svg"
   xmlns:svg="http://www.w3.org/2000/svg"><sodipodi:namedview
     id="namedview1"
     pagecolor="#ffffff"
     bordercolor="#666666"
     borderopacity="1.0"
     inkscape:showpageshadow="2"
     inkscape:pageopacity="0.0"
     inkscape:pagecheckerboard="0"
     inkscape:deskcolor="#d1d1d1"
     inkscape:document-units="mm"
     inkscape:zoom="0.058314562"
     inkscape:cx="351.5417"
     inkscape:cy="3043.8366"
     inkscape:window-width="1920"
     inkscape:window-height="991"
     inkscape:window-x="-9"
     inkscape:window-y="-9"
     inkscape:window-maximized="1"
     inkscape:current-layer="svg1"
     showgrid="false" /><defs
     id="defs1" /><path
     id="path341"
     style="fill:#000000;fill-opacity:1;fill-rule:evenodd;stroke:none;stroke-width:42.0802;stroke-linejoin:round;stroke-dasharray:none;stroke-opacity:1"
     d="M 958.49447 178.33743 C 953.68523 178.16966 948.85076 178.24539 944.00801 178.5767 C 883.83635 182.69257 826.67998 249.35795 806.62777 315.3208 C 749.90106 307.58104 689.66025 305.63667 627.02943 309.9201 C 559.85734 314.51982 496.73154 325.04505 438.71017 340.99366 C 406.69953 285.17392 347.4013 237.31225 292.67051 241.05557 C 215.12311 246.34859 148.86463 316.17046 154.20196 393.84986 C 155.98214 420.05226 166.30173 450.78486 182.13927 479.81257 C 104.24783 557.0802 62.724724 658.62313 71.089718 781.15645 C 90.115879 1059.1613 359.32112 1164.6638 696.67841 1141.5913 C 1034.0226 1118.5204 1270.8581 999.65567 1251.8161 721.64794 L 1251.8471 721.64174 C 1242.9401 591.27181 1179.165 487.56466 1079.1558 416.55597 C 1095.3486 380.73883 1104.1302 341.97013 1102.0082 311.03528 C 1097.338 243.06594 1039.1952 188.56919 972.82434 179.55803 L 972.82847 179.5601 C 968.08769 178.91646 963.3037 178.50521 958.49447 178.33743 z M 655.37705 481.49826 C 686.96749 480.97369 707.37649 499.77174 716.42707 510.86546 C 725.47766 521.95919 729.17623 530.43283 732.61368 538.39349 C 739.48873 554.31479 743.47701 568.66559 747.3766 582.47452 C 749.01074 588.26092 750.03504 591.67185 751.50348 596.81887 C 756.5932 596.7541 760.02534 596.74543 765.71088 596.68503 C 779.62239 596.53616 794.06861 596.2758 811.35254 598.70609 C 819.99447 599.92132 829.50205 601.34077 842.81522 607.54638 C 856.12839 613.75194 878.28182 629.46897 885.73922 657.72781 C 892.97239 685.13709 884.26092 704.26722 878.33347 715.55064 C 872.40601 726.83405 866.57422 733.70188 860.9707 740.01891 C 849.76375 752.65292 838.61685 762.39665 827.94274 771.69863 C 821.36521 777.43066 816.80786 781.50826 811.51326 786.17682 C 813.48316 792.86102 815.15685 798.65563 817.58369 806.85773 C 821.55694 820.2868 825.75608 834.22484 828.15875 851.41315 C 829.3588 860.00727 830.596 869.36435 828.51222 883.45977 C 826.42847 897.55524 818.72321 922.0496 794.46985 937.91898 C 767.98556 955.24808 742.71593 950.54383 729.43093 946.674 C 716.14594 942.80418 708.1184 938.14832 700.62235 933.60813 C 685.63025 924.52778 673.60834 914.83027 661.95546 905.54628 C 656.49142 901.19298 652.96723 898.52403 648.16819 894.72368 C 643.09695 898.45387 639.28422 901.22099 633.50913 905.4822 C 621.54117 914.3131 609.27767 923.47908 593.98442 931.92555 C 586.33776 936.14878 578.19136 940.5134 564.44823 943.81319 C 550.70497 947.11263 523.43851 950.21715 498.00578 930.18353 C 474.25872 911.47768 469.77163 886.39443 469.03029 872.52607 C 468.28895 858.65769 470.12067 849.72584 471.97274 841.35795 C 475.67699 824.62222 480.87741 810.89368 485.77138 797.66862 C 488.14286 791.26055 489.58696 787.10856 491.63666 781.54868 C 487.26856 778.08081 484.21859 775.58985 479.20176 771.61647 C 468.28561 762.97095 456.77611 754.03115 444.92581 741.62243 C 439.00069 735.41808 432.75732 728.62349 426.24892 716.44257 C 419.7403 704.26166 410.948 681.27896 420.49681 653.66346 C 429.343 628.08009 446.91503 616.25196 458.25472 610.03253 C 469.59435 603.81312 478.25411 601.42128 486.38168 599.37633 C 502.6368 595.2864 516.92657 593.83627 530.50922 592.39588 C 539.87434 591.40253 546.8588 590.576 554.13517 589.7764 C 557.00284 583.23184 559.71117 577.04896 563.33977 568.60612 C 568.71735 556.09444 574.29985 542.99175 582.90706 528.69744 C 587.21068 521.55031 592.05215 513.97729 601.34676 504.89115 C 610.64136 495.80499 627.46653 481.96429 655.3755 481.50084 L 655.37705 481.49826 z " /></svg>
