<?xml version="1.0" encoding="UTF-8" standalone="no"?>
<!-- Created with Inkscape (http://www.inkscape.org/) -->

<svg
   width="181.49257mm"
   height="57.059822mm"
   viewBox="0 0 181.49256 57.059822"
   version="1.1"
   id="svg1"
   inkscape:version="1.3.1 (91b66b0783, 2023-11-16)"
   sodipodi:docname="logo-expanded.svg"
   xml:space="preserve"
   inkscape:export-filename="titleJJ.png"
   inkscape:export-xdpi="66.626884"
   inkscape:export-ydpi="66.626884"
   xmlns:inkscape="http://www.inkscape.org/namespaces/inkscape"
   xmlns:sodipodi="http://sodipodi.sourceforge.net/DTD/sodipodi-0.dtd"
   xmlns="http://www.w3.org/2000/svg"
   xmlns:svg="http://www.w3.org/2000/svg"><sodipodi:namedview
     id="namedview1"
     pagecolor="#ffffff"
     bordercolor="#666666"
     borderopacity="1.0"
     inkscape:showpageshadow="2"
     inkscape:pageopacity="0.0"
     inkscape:pagecheckerboard="0"
     inkscape:deskcolor="#d1d1d1"
     inkscape:document-units="mm"
     inkscape:zoom="0.87911561"
     inkscape:cx="292.90801"
     inkscape:cy="157.54469"
     inkscape:window-width="1920"
     inkscape:window-height="991"
     inkscape:window-x="-9"
     inkscape:window-y="-9"
     inkscape:window-maximized="1"
     inkscape:current-layer="layer1" /><defs
     id="defs1" /><g
     inkscape:label="Layer 1"
     inkscape:groupmode="layer"
     id="layer1"
     transform="translate(-27.375478,-106.56448)"><g
       id="g1"
       transform="matrix(0.95214835,0,0,0.95214835,-118.23578,-27.710259)"><g
         id="path1"
         style="fill:#10ff05;fill-opacity:1;stroke:#000000;stroke-opacity:1"
         transform="translate(153.77966,110.68507)"><path
           style="color:#000000;fill:#10ff05;fill-opacity:1;stroke:#000000;stroke-linecap:round;stroke-linejoin:round;stroke-opacity:1;-inkscape-stroke:none;paint-order:markers stroke fill"
           d="m 37.046875,30.837891 c -1.23605,-3.49e-4 -2.550432,0.192806 -3.957031,0.894531 -3.460112,1.727121 -4.866509,5.507764 -5.119141,6.203125 -0.131203,0.361132 -0.183295,0.636988 -0.255859,0.9375 -0.997673,-0.878802 -2.077656,-1.623526 -3.199219,-1.777344 -0.95527,-0.131012 -1.699812,-0.103828 -2.240234,-0.03516 -0.540423,0.06867 -0.950989,0.184118 -0.947266,0.183594 -0.817945,0.115296 -1.501739,0.507467 -2.136719,0.890625 -1.898386,-0.902424 -4.378368,-1.016839 -6.296875,-0.0098 -1.994101,1.046753 -3.1516984,2.749559 -3.8496091,4.449219 a 0.50005,0.50005 0 0 0 -0.037109,0.1875 l 0.00977,-0.0918 c -3.025e-4,0.0016 -0.094808,0.472925 -0.1914062,1.001953 -0.096598,0.529028 -0.1965795,1.063759 -0.2128906,1.388672 -0.022182,0.441809 -0.05059,1.0299 -0.080078,1.617187 -0.029486,0.58745 -0.059859,1.175627 -0.082031,1.617188 a 0.50005,0.50005 0 0 0 0,0.002 c -0.00492,0.09871 -0.00938,0.164148 -0.013672,0.244141 -0.00678,0.01492 -0.014463,0.01242 -0.056641,0.25 -0.034063,0.191772 -0.061841,0.420696 -0.080078,0.589843 -0.00912,0.08457 -0.016071,0.153283 -0.019531,0.1875 -3.845e-4,0.0038 2.898e-4,0.005 0,0.0078 -1.449e-4,0.0014 1.137e-4,0.0028 0,0.0039 -1.084e-4,9.04e-4 7.41e-5,0.0033 0,0.0039 -5.361e-4,0.007 -0.00352,0.01415 -0.00391,0.01953 -2.667e-4,0.0037 3.6e-4,0.0073 0,0.01367 -1.801e-4,0.0032 2.711e-4,0.0066 0,0.01758 -1.356e-4,0.0055 -3.1e-6,0.03117 0,0.03125 0,2e-6 0.00187,0.0055 0.00195,0.0059 -0.012204,0.206085 -0.016097,0.438957 -0.017578,0.660156 a 0.50005,0.50005 0 0 0 -0.00586,0.0059 v 0.002 a 0.50005,0.50005 0 0 0 0,0.002 0.50005,0.50005 0 0 0 0,0.002 c 4.5e-6,6.51e-4 -4.7e-6,0.0013 0,0.002 8.5e-4,0.127395 -1.8e-4,0.123389 0,0.191406 -1.63e-5,0.0098 1.1e-5,0.02581 0,0.03516 -7.76e-5,0.06596 -2.262e-4,0.120919 0,0.15625 1.131e-4,0.01767 -2.04e-4,0.0297 0,0.04102 5.1e-5,0.0028 0.00181,0.0051 0.00195,0.0098 1.16e-4,0.0038 0.00263,0.03292 0.00391,0.04687 6.7e-6,7.39e-4 -6.8e-6,0.0012 0,0.002 2.301e-4,0.0025 -4.4e-6,0.0097 0,0.0098 0.00237,0.28698 -0.00328,0.700227 -0.00977,1.101562 -4.1663721,-0.284966 -7.99899558,2.714827 -8.5410156,6.904297 -0.36882172,2.852492 0.95583519,5.486888 3.0625,7.181641 -0.1466237,0.259335 -0.3100155,0.500174 -0.4375,0.902343 -1.47315788,4.647357 -2.73872629,12.13647 2.2675781,18.21875 3.0910203,3.755358 8.0714494,5.64717 12.8359374,4.048828 4.611247,-1.546888 7.583723,-5.888513 7.626953,-10.68164 0.01981,-2.196554 -0.08837,-4.238545 -0.171875,-6.306641 1.630284,0.33419 3.372419,0.557892 5.306641,0.320313 1.327831,-0.163106 2.585201,-0.613281 3.787109,-1.173828 1.424303,0.94461 3.029608,1.742898 4.871094,2.216796 1.947858,0.501287 3.927268,0.216679 4.3125,0.164063 0.901114,-0.123232 1.727937,-0.307198 2.492187,-0.501953 1.045725,0.446569 2.195255,0.841479 3.558594,0.933594 2.461144,0.166361 4.799344,-0.566975 6.855469,-2.050782 0.722396,0.230933 1.477312,0.422991 2.296875,0.423828 a 0.50005,0.50005 0 0 0 0.01758,0 c 0.0136,-4.4e-4 0.02742,-0.0014 0.04102,-0.002 1.477118,-0.01484 2.773108,-0.556218 3.921875,-1.255859 0.175493,-0.03134 0.380818,-0.05734 0.605468,-0.128906 -0.039,0.01147 0.02445,-0.0071 0.0098,-0.002 a 0.50005,0.50005 0 0 0 0.0078,-0.0039 0.50005,0.50005 0 0 0 0.0078,-0.002 l 0.0078,-0.002 c 0.04689,-0.01391 0.193233,-0.02353 0.408203,-0.113281 l -0.0625,0.02148 c 1.799072,-0.483167 4.009248,-0.900278 6.472656,-1.740234 a 0.50005,0.50005 0 0 0 0.05273,-0.01953 c 0.398853,-0.187265 0.755778,-0.445156 1.095703,-0.72461 0.136182,-0.0092 0.299209,-0.01461 0.482422,-0.01563 0.218805,-0.0012 0.425516,0.0057 0.660157,-0.05078 1.125266,-0.270278 2.008045,-0.727059 2.476562,-0.978516 0.126423,0.06053 0.242867,0.120605 0.400391,0.1875 0.237056,0.100671 0.493959,0.208314 0.710937,0.308594 0.380849,0.444345 0.811035,0.847624 1.316406,1.144531 a 0.50005,0.50005 0 0 0 0.16211,0.06055 l 23.492186,4.335938 a 0.50005,0.50005 0 0 0 0.25391,-0.01953 c 0.005,-0.0018 0.0104,-0.004 0.0156,-0.0059 0.44656,0.08028 0.91499,0.17749 1.44922,0.175781 l 26.69336,-0.08594 h 8.91992 13.36914 8.89844 l 15.26562,0.164062 a 0.50005,0.50005 0 0 0 0.002,0 c 0.0187,1.03e-4 0.0379,9.7e-5 0.0566,0 4.69362,-0.0011 8.59804,-3.905629 8.59765,-8.599609 v -5.015625 l 3.99805,-6.947266 a 0.50005,0.50005 0 0 0 0,-0.002 l 0.002,-0.0039 c 3.17979,-5.534487 -1.0731,-12.883717 -7.45703,-12.882813 h -5.44336 c -0.0165,-7.7e-5 -0.0323,-7.7e-5 -0.0488,0 a 0.50005,0.50005 0 0 0 -0.004,0 l -25.44531,0.236329 h -10.45508 -9.63086 v -0.267579 c 6e-5,-0.0151 6e-5,-0.02982 0,-0.04492 -0.0257,-4.694147 -3.95245,-8.577998 -8.64649,-8.552735 h -0.002 a 0.50005,0.50005 0 0 0 -0.004,0 l -24.236331,0.150391 c -1.523227,0.0094 -2.865303,0.546765 -4.06836,1.24414 -0.03532,3.78e-4 -0.07016,-0.0011 -0.105468,0 a 0.50005,0.50005 0 0 0 -0.08789,0.01172 c -5.329591,1.132826 -10.893306,2.104785 -16.445312,3.298828 a 0.50005,0.50005 0 0 0 -0.21875,0.107422 c -0.159807,0.135631 -0.298894,0.291843 -0.441407,0.445313 -0.138358,-0.02747 -0.260512,-0.06462 -0.505859,-0.06055 -0.486609,0.0081 -0.889957,0.106651 -1.275391,0.1875 -0.189169,-0.09513 -0.378826,-0.189873 -0.578125,-0.261719 a 0.50005,0.50005 0 0 0 -0.105468,-0.02539 c -4.110862,-0.544767 -8.049695,-0.597143 -11.5625,-0.884765 h -0.0039 c -0.03462,-0.0031 -0.06884,-0.0054 -0.103515,-0.0078 a 0.50005,0.50005 0 0 0 -0.0059,0 C 57.678992,35.689667 53.933553,35.411788 50.279297,35.175781 a 0.50005,0.50005 0 0 0 -0.28711,0.06836 c -0.0093,0.0055 -0.01809,0.01201 -0.02734,0.01758 C 48.401778,34.63552 46.60524,34.307757 44.580081,34.718752 43.845093,33.783628 42.660465,32.509268 40.902347,31.67383 a 0.50005,0.50005 0 0 0 -0.0039,0 l -0.0078,-0.002 C 39.541419,31.033001 38.2825,30.838217 37.046897,30.837846 Z m 0,1 c 1.137577,3.42e-4 2.216246,0.165115 3.423828,0.738281 a 0.50005,0.50005 0 0 0 0.0039,0 c 1.659027,0.78881 2.837691,2.082766 3.494141,2.949219 a 0.50005,0.50005 0 0 0 0.515625,0.183593 c 2.041274,-0.498633 3.780115,-0.125148 5.367187,0.550782 a 0.50005,0.50005 0 0 0 0.472657,-0.04297 c 0.01686,-0.01116 0.03377,-0.02228 0.05078,-0.0332 3.59629,0.233272 7.284733,0.506861 10.863281,0.726562 0.02918,0.002 0.05876,0.0032 0.08789,0.0059 a 0.50005,0.50005 0 0 0 0.0039,0 c 3.546361,0.290552 7.444294,0.349211 11.460938,0.876953 0.192695,0.07209 0.382068,0.154955 0.5625,0.253906 a 0.50005,0.50005 0 0 0 0.33789,0.05078 c 0.453475,-0.09154 0.850022,-0.186496 1.263672,-0.193359 0.143211,-0.0024 0.315784,0.06355 0.634766,0.08594 a 0.50005,0.50005 0 0 0 0.419922,-0.179687 c 0.134865,-0.16216 0.286246,-0.308659 0.443359,-0.449219 5.46499,-1.171624 10.960969,-2.135499 16.255859,-3.259766 0.04515,-9.53e-4 0.0896,-0.0024 0.134766,-0.002 a 0.50005,0.50005 0 0 0 0.261719,-0.07031 c 1.146757,-0.683643 2.362569,-1.163594 3.710937,-1.171875 L 121.05272,32.70703 a 0.50005,0.50005 0 0 0 0.002,0 c 4.13977,-0.02422 7.62185,3.419138 7.64453,7.558594 4e-5,0.0116 5e-5,0.02355 0,0.03516 l -0.002,0.769531 a 0.50005,0.50005 0 0 0 0.5,0.501954 h 10.13281 10.45703 a 0.50005,0.50005 0 0 0 0.004,0 l 25.44726,-0.236329 c 0.0134,-6.2e-5 0.0276,-6.2e-5 0.041,0 a 0.50005,0.50005 0 0 0 0.002,0 h 5.44531 c 5.61463,-7.95e-4 9.38756,6.521919 6.58789,11.388672 a 0.50005,0.50005 0 0 0 -0.0664,0.248047 V 52.841797 L 183.25,59.787109 a 0.50005,0.50005 0 0 0 -0.0664,0.25 V 65.1875 c 3.4e-4,4.138031 -3.45989,7.598672 -7.59765,7.599609 a 0.50005,0.50005 0 0 0 -0.004,0 c -0.0151,8.3e-5 -0.0298,7.6e-5 -0.0449,0 h -0.002 l -15.26563,-0.164062 a 0.50005,0.50005 0 0 0 -0.004,0 h -8.90234 -13.36914 -8.91992 a 0.50005,0.50005 0 0 0 -0.002,0 l -26.69532,0.08594 c -0.45693,0.0015 -0.91498,-0.08956 -1.41797,-0.177734 a 0.50005,0.50005 0 0 0 -0.22851,0.02148 L 77.46875,68.259766 C 77.033781,67.995973 76.642755,67.666182 76.326172,67.267578 A 0.50005,0.50005 0 0 0 76.146484,67.125 c -0.251844,-0.117641 -0.532838,-0.234887 -0.77539,-0.337891 -0.242553,-0.103004 -0.465327,-0.206333 -0.501953,-0.228515 a 0.50005,0.50005 0 0 0 -0.0059,-0.0039 c 0.04857,0.02839 0.05437,0.03341 -0.0078,-0.0059 a 0.50005,0.50005 0 0 0 -0.511719,-0.01367 c -0.0787,0.04424 -0.08175,0.05135 -0.04883,0.0332 -0.363908,0.200989 -1.356873,0.702243 -2.425781,0.958985 -0.02544,0.0061 -0.221428,0.02227 -0.431641,0.02344 -0.210213,0.0012 -0.446761,-0.0023 -0.679688,0.02344 a 0.50005,0.50005 0 0 0 -0.279296,0.123047 c -0.306547,0.274356 -0.651864,0.501318 -1.023438,0.677734 -2.370144,0.80456 -4.52863,1.215067 -6.375,1.710937 a 0.50005,0.50005 0 0 0 -0.0625,0.02148 c 3.4e-4,-1.42e-4 -0.144349,0.02321 -0.341797,0.08789 a 0.50005,0.50005 0 0 0 -0.0059,0.002 0.50005,0.50005 0 0 0 -0.0078,0.002 c -0.111407,0.03613 -0.321479,0.06724 -0.550781,0.111328 a 0.50005,0.50005 0 0 0 -0.169922,0.06641 C 60.859287,71.05141 59.70693,71.52428 58.42377,71.537171 a 0.50005,0.50005 0 0 0 -0.01563,0 c -0.01008,4.38e-4 -0.02116,0.0016 -0.03125,0.002 -0.0013,-10e-7 -0.0026,3e-6 -0.0039,0 -0.757697,-0.0013 -1.490201,-0.167715 -2.208985,-0.414062 a 0.50005,0.50005 0 0 0 -0.464843,0.07422 c -1.933414,1.460948 -4.097079,2.12497 -6.408203,1.96875 -1.292249,-0.08731 -2.397883,-0.451194 -3.425782,-0.904297 a 0.50005,0.50005 0 0 0 -0.349609,-0.01953 c 5.47e-4,-1.7e-4 -0.004,5e-5 -0.0039,0 -0.76288,0.196888 -1.587616,0.378699 -2.47461,0.5 -0.389677,0.05322 -2.230945,0.294094 -3.927734,-0.142579 -1.80232,-0.463819 -3.379538,-1.245995 -4.773438,-2.197265 a 0.50005,0.50005 0 0 0 -0.501953,-0.03711 c -1.202352,0.588277 -2.459832,1.00901 -3.753906,1.167969 -2.01987,0.2481 -3.851302,-0.0096 -5.591797,-0.40625 a 0.50005,0.50005 0 0 0 -0.611328,0.50586 c 0.08654,2.284966 0.210811,4.500729 0.189453,6.86914 -0.03956,4.386324 -2.74586,8.335393 -6.945312,9.744141 C 12.781043,89.704003 8.2370992,87.988954 5.375,84.511719 0.67769596,78.804851 1.8592375,71.741123 3.2890625,67.230469 3.3991597,66.883151 3.6285672,66.590517 3.8398438,66.121094 A 0.50005,0.50005 0 0 0 3.6777344,65.511719 C 1.6342639,64.031105 0.36545463,61.582269 0.703125,58.970703 1.1940565,55.176115 4.7884632,52.405949 8.5820313,52.896484 a 0.50005,0.50005 0 0 0 0.019531,-0.0078 0.50005,0.50005 0 0 0 0.8339844,0.294922 c 0.3373375,-0.626341 0.8235483,-1.141551 1.3964843,-1.525391 0.03229,-0.0168 0.07242,-0.03843 0.107422,-0.05664 0.569793,-0.358279 1.216493,-0.602188 1.908203,-0.662109 7.03e-4,-6.3e-5 0.0012,6.3e-5 0.002,0 a 0.50005,0.50005 0 0 0 0.0918,-0.101562 0.50005,0.50005 0 0 0 0.03125,0.04883 c 0.356725,0.1201 0.69642,0.285595 1.009766,0.49414 a 0.50005,0.50005 0 0 0 0.644531,-0.08203 c 6.72e-4,-5.7e-5 0.01367,-0.002 0.01367,-0.002 0,0 0.142578,-0.179688 0.142578,-0.179688 8e-6,-5.7e-5 0.04688,-0.224493 0.04687,-0.224609 -2e-6,-1.15e-4 4.04e-4,-0.01972 0,-0.02539 -0.0032,-0.04535 -0.0047,-0.03502 -0.0059,-0.04297 -8.56e-4,-0.0059 -0.0031,-0.0176 -0.0039,-0.02344 l 0.02539,-0.0059 c -0.01609,-0.09576 -0.02754,-0.192431 -0.03711,-0.289063 a 0.50005,0.50005 0 0 0 -0.05078,-0.0625 0.50005,0.50005 0 0 0 -0.0059,-0.0293 c 0,0 -0.01291,0.0037 -0.01367,0.0039 a 0.50005,0.50005 0 0 0 -0.273437,-0.337891 c -0.002,-6.59e-4 -3.79e-4,-5.7e-4 -0.02539,-0.0098 l 0.07813,0.13086 A 0.50005,0.50005 0 0 0 14.412085,50.060428 C 14.317675,50.027798 14.191842,49.984938 14.087867,49.9491 13.983891,49.91327 13.90232,49.88465 13.90232,49.88465 a 0.50005,0.50005 0 0 0 -0.04883,0.0625 c -9.23e-4,0.0046 -6.6e-4,0.02869 -0.002,0.03516 a 0.50005,0.50005 0 0 0 -0.01953,-0.0078 0.50005,0.50005 0 0 0 -0.126953,0.166016 c -0.05639,-0.02464 -0.108767,-0.05741 -0.166015,-0.08008 -0.02177,-0.05438 -0.02497,-0.183617 -0.04687,-0.181641 -0.117888,0.01063 -0.268818,0.02302 -0.404297,0.03516 a 0.50005,0.50005 0 0 0 -0.107422,0.105469 0.50005,0.50005 0 0 0 -0.21875,-0.07617 c -6.32e-4,5.5e-5 -0.0013,-5.5e-5 -0.002,0 -0.216552,0.01941 -0.432939,0.04001 -0.595703,0.05469 -0.08138,0.0073 -0.149771,0.01329 -0.197266,0.01758 -0.04749,0.0043 -0.07422,0.0059 -0.07422,0.0059 a 0.50005,0.50005 0 0 0 -0.04101,0.06641 l -0.02149,-0.05664 c 0,0 0.01408,0.05797 0.01563,0.06641 a 0.50005,0.50005 0 0 0 -0.0918,0.146485 c -0.02002,-0.04475 -0.06427,-0.159314 -0.06641,-0.158204 -0.01234,0.0064 -0.03156,0.01726 -0.05469,0.0293 -0.04626,0.02408 -0.112028,0.05831 -0.191407,0.09961 -0.158758,0.0826 -0.370315,0.192599 -0.582031,0.302734 -0.181273,0.0943 -0.350028,0.182778 -0.498047,0.259766 -0.02219,0.01426 -0.04639,0.02057 -0.06836,0.03516 -0.0043,0.0022 -0.0114,0.0056 -0.01563,0.0078 -0.07937,0.04128 -0.145168,0.07557 -0.191406,0.09961 -0.02312,0.01202 -0.04239,0.02095 -0.05469,0.02734 -0.0062,0.0032 -0.01064,0.0062 -0.01367,0.0078 -0.003,0.0016 -0.0039,0.002 -0.0039,0.002 a 0.50005,0.50005 0 0 0 -0.019531,0.128906 l -0.064453,-0.07422 c 0,0 0.048672,0.07373 0.060547,0.0918 a 0.50005,0.50005 0 0 0 -0.00391,0.02539 c -0.018222,-0.02096 -0.081927,-0.0958 -0.082031,-0.0957 -8.265e-4,7.56e-4 -0.00215,0.0023 -0.00391,0.0039 -0.00352,0.0032 -0.00897,0.0076 -0.015625,0.01367 -0.013302,0.01219 -0.031382,0.0293 -0.054687,0.05078 -0.046611,0.04297 -0.1099194,0.102339 -0.1777343,0.166016 -0.13563,0.127355 -0.2734068,0.254643 -0.3769532,0.373047 -0.011776,0.01346 -0.00847,0.01445 -0.019531,0.02734 0.00233,-0.296699 0.00769,-0.631671 0.00586,-0.84961 -0.00117,-0.128469 -0.00254,-0.222756 -0.00391,-0.324218 0.00116,-0.257147 0.00643,-0.634523 0.019531,-0.81836 9.37e-5,-0.0013 -9.46e-5,-0.0046 0,-0.0059 0.00368,-0.03634 0.00894,-0.101524 0.017578,-0.181641 0.017276,-0.160232 0.045565,-0.38411 0.070312,-0.523437 0.048682,-0.274216 0.019652,-0.09802 0.054687,-0.234375 a 0.50005,0.50005 0 0 0 0.013672,-0.09961 c 0.0045,-0.08958 0.00953,-0.162931 0.015625,-0.285156 0.022108,-0.440298 0.052497,-1.028778 0.082031,-1.617187 0.029552,-0.588552 0.05798,-1.177062 0.080078,-1.617188 0.00581,-0.115691 0.1042325,-0.739565 0.1992188,-1.259766 0.088631,-0.485397 0.1643294,-0.865829 0.1757812,-0.923828 0.6412135,-1.550162 1.6415095,-3.009041 3.3730465,-3.917968 1.643971,-0.862962 4.047685,-0.771772 5.648437,0.08008 a 0.50005,0.50005 0 0 0 0.496094,-0.01563 c 0.650963,-0.402893 1.301797,-0.746657 1.962891,-0.839844 0.270271,-0.0381 0.473938,-0.122983 0.935547,-0.181641 0.461609,-0.05866 1.108855,-0.0858 1.976562,0.0332 0.944702,0.129563 2.200229,0.960418 3.263672,2.013672 a 0.50005,0.50005 0 0 0 0.833984,-0.222656 c 0.164406,-0.594688 0.232223,-1.045345 0.433594,-1.599609 0.233055,-0.641476 1.60062,-4.139791 4.626953,-5.650391 1.252706,-0.62495 2.374437,-0.789382 3.509766,-0.789062 z m 52.236328,4.101562 c 0,0 -0.0918,0.03125 -0.0918,0.03125 0,0 -0.07813,0.04492 -0.07813,0.04492 0,0 0.283203,0.410156 0.283203,0.410156 -6.9e-5,7.4e-5 -0.408095,-0.287262 -0.408203,-0.287109 -1.08e-4,1.52e-4 -0.01222,0.01609 -0.01563,0.02148 -0.02724,0.04311 -0.02299,0.04036 -0.0293,0.05273 -0.0021,0.0041 -0.0075,0.01701 -0.0098,0.02148 0.01406,-0.0334 0.0052,-0.0095 -0.0039,0.0078 -0.0025,0.0047 -0.0016,0.0034 -0.0039,0.0078 -0.02422,0.04931 -0.05141,0.108679 -0.09961,0.222656 -0.04016,0.09496 -0.140693,0.398907 -0.226563,0.705078 -0.01803,0.05304 -0.03543,0.105936 -0.05273,0.15625 h 0.002 c -0.0069,0.03059 -0.01306,0.03056 -0.01953,0.0625 a 0.50005,0.50005 0 0 0 0.101562,0.164063 0.50005,0.50005 0 0 0 -0.01563,0.01758 c 0.0046,-0.0011 0.0162,-0.0041 0.02344,-0.0059 a 0.50005,0.50005 0 0 0 0.002,0.0059 c -0.01632,0.0054 -0.02519,0.0078 -0.03711,0.01172 a 0.50005,0.50005 0 0 0 -0.238282,0.273437 c 0.0042,-0.01323 0.007,-0.02679 0.0078,-0.0293 -0.0014,0.0033 -0.0031,0.0075 -0.0039,0.0098 -0.0055,0.01502 -0.0026,0.0093 -0.0059,0.01953 a 0.50005,0.50005 0 0 0 -0.0078,0.0098 v 0.0039 l -0.01172,0.05664 c -1.73e-4,0.0017 -0.0016,0.0098 -0.002,0.01172 a 0.50005,0.50005 0 0 0 0.396484,0.558594 c 0.0064,9.4e-4 0.01192,0.0022 0.02344,0.0039 9.38e-4,1.39e-4 10e-4,-1.39e-4 0.002,0 a 0.50005,0.50005 0 0 0 0.560547,-0.384765 c 5.99e-4,0.0034 0.0073,0.0018 -0.01563,0.06445 0.004,-0.01218 0.01853,-0.05348 0.02148,-0.06641 0.003,-0.01308 0.0045,-0.02138 0.0059,-0.0293 v -0.0039 c 0.0095,-0.05432 0.01199,-0.07572 0.0039,-0.03125 a 0.50005,0.50005 0 0 0 -0.09766,-0.265625 0.50005,0.50005 0 0 0 0.25,-0.13086 c 0.07331,-0.213118 0.153168,-0.453271 0.21875,-0.646484 0.03279,-0.09661 0.06216,-0.182678 0.08398,-0.244141 0.01627,-0.04582 0.01864,-0.05445 0.01367,-0.04687 0.0049,-0.01038 0.02005,-0.04595 0.02148,-0.04883 0.007,-0.01337 0.0137,-0.02302 0.02539,-0.05078 0.0024,-0.0057 0.0068,-0.01166 0.01172,-0.02539 0.0025,-0.0069 0.0097,-0.03109 0.0098,-0.03125 4.6e-5,-1.58e-4 0.01757,-0.09367 0.01758,-0.09375 0,0 0.002,-0.04297 0.002,-0.04297 0,0 -0.0039,-0.06836 -0.0039,-0.06836 0,0 -0.08789,-0.222656 -0.08789,-0.222656 0,0 -0.121093,-0.121094 -0.121093,-0.121094 0,0 -0.400391,-0.07813 -0.400391,-0.07813 z m 0.02539,2.248047 c -0.0048,0.01322 -0.01768,0.03914 -0.02734,0.05859 0.01251,-0.02415 0.02531,-0.04863 0.02539,-0.04883 3.6e-5,-9.4e-5 0.0014,-0.008 0.002,-0.0098 z m -0.546875,0.320312 c -0.0063,-5.93e-4 -0.01954,-0.002 -0.01953,-0.002 5e-6,1e-6 -0.0033,1.45e-4 -0.0039,0 a 0.50005,0.50005 0 0 0 0.02344,0.002 z m 0.109375,-0.992187 c -2.7e-5,-2e-6 0.02024,0.0028 0.04102,0.0059 -0.0183,-0.0017 -0.02963,-0.0021 -0.04883,-0.0039 4.12e-4,-1.01e-4 0.0078,-0.002 0.0078,-0.002 z m -0.304688,0.08594 c -0.003,9.91e-4 -0.02148,0.0078 -0.02148,0.0078 -7e-5,5.1e-5 -0.044,0.04976 -0.08398,0.09375 0.0386,-0.03697 0.08566,-0.08255 0.105469,-0.101563 z m -0.152344,0.154297 c -4.34e-4,4.82e-4 -0.0059,0.0059 -0.0059,0.0059 -8.5e-5,1.44e-4 -0.01379,0.03013 -0.02539,0.05469 0.0082,-0.01582 0.02229,-0.04324 0.03125,-0.06055 z m 0.851563,0.517578 c -0.0028,0.003 -0.02697,0.03027 -0.05273,0.05859 0.01806,-0.01732 0.04489,-0.04291 0.04492,-0.04297 2.2e-5,-3.2e-5 0.0056,-0.01131 0.0078,-0.01563 z m -0.152344,0.152344 c -0.01883,0.0062 -0.07889,0.02664 -0.152344,0.05078 0.06726,-0.01633 0.134712,-0.03317 0.134766,-0.0332 1.3e-5,-7e-6 0.01402,-0.01417 0.01758,-0.01758 z m -0.335937,0.08398 c 0.01445,0.0021 0.03123,0.0039 0.03125,0.0039 10e-7,0 0.0038,2.2e-5 0.0039,0 -0.01482,-0.0014 -0.01881,-0.0024 -0.03516,-0.0039 z m -51.238282,1.572265 c -1.1e-5,1e-6 -0.0071,0.0018 -0.0078,0.002 -0.01426,0.0036 -0.148177,0.037 -0.148438,0.03711 -2.73e-4,1.2e-4 -0.08953,0.05056 -0.08984,0.05078 -0.209093,0.147234 -0.248334,0.214705 -0.298828,0.457031 -0.01262,0.06058 -0.02486,0.140072 0.0059,0.259766 0.01273,0.04962 0.08294,0.08969 0.121094,0.144531 0.01882,0.02706 0.03506,0.04764 0.05859,0.07227 0.01363,0.01674 0.03118,0.03704 0.03125,0.03711 0.03435,0.03004 0.04023,0.07748 0.08008,0.0957 0.211202,0.09659 0.290584,0.02279 0.384765,-0.02148 a 0.50005,0.50005 0 0 0 0.08398,0.01367 c -0.0082,0.0038 -0.04134,0.01396 -0.07617,0.02344 0.0093,-0.0015 0.01993,6.8e-5 0.02734,-0.002 0.06031,-0.01644 0.08599,-0.0313 0.109375,-0.04297 A 0.50005,0.50005 0 0 0 38.0645,40.74219 c 0.0036,-0.01534 0.0075,-0.02536 0.01172,-0.04883 0.0041,-0.02248 0.01218,-0.03495 0.0078,-0.130859 -0.0011,-0.02398 -0.01545,-0.104782 -0.01563,-0.105469 -8.8e-5,-3.43e-4 -0.03308,-0.09154 -0.0332,-0.0918 -1.23e-4,-2.56e-4 -0.08773,-0.128739 -0.08789,-0.128906 -1.59e-4,-1.67e-4 -0.185351,-0.122972 -0.185547,-0.123047 -1.96e-4,-7.4e-5 -0.222422,-0.03127 -0.222657,-0.03125 z m -0.162109,0.232422 c 0.0042,-0.0035 0.07692,-0.102103 0.330078,0.01367 0.0043,0.002 0.0055,0.0076 0.0098,0.0098 a 0.50005,0.50005 0 0 0 -0.339844,-0.02344 z m 0.0039,0.01367 0.376953,0.06055 c 0.09451,0.07166 0.190013,0.168454 0.210938,0.25 0.02598,0.101246 0.01322,0.158023 0.0059,0.193359 -0.02945,0.141346 0.02111,0.06907 -0.105468,0.158203 3.14e-4,-2.21e-4 -0.08621,0.04895 -0.08594,0.04883 7.7e-5,-3.3e-5 -0.02551,0.0072 -0.04297,0.01172 l -0.0039,-0.01172 z m 0.53125,0.109375 c 0.02457,0.03022 0.06653,0.08029 0.06641,0.08008 -1.7e-4,-2.81e-4 0.04115,0.0863 0.04102,0.08594 -2.28e-4,-6.27e-4 0.01466,0.05843 0.02148,0.0918 A 0.50005,0.50005 0 0 0 37.912109,40.4375 Z m 81.689448,0.871094 -21.249995,0.130859 a 0.50005,0.50005 0 0 0 -0.496093,0.5 l -0.0039,5.427734 a 0.50005,0.50005 0 0 0 0,0.01367 c 0.09514,3.677301 0.87689,7.626597 1.712891,11.814453 a 0.50005,0.50005 0 0 0 0.0098,0.04297 c 0.228729,0.786391 0.708947,1.807345 1.207027,2.716797 0.17456,0.318736 0.34421,0.584078 0.51367,0.855469 a 0.50005,0.50005 0 0 0 -0.0762,0.05469 l -0.01,0.01758 a 0.50005,0.50005 0 0 0 0.0391,0.550782 c -0.009,-0.01209 0.0462,0.148542 0.21289,0.355468 a 0.50005,0.50005 0 0 0 0.0332,0.02344 c 0.01,0.01261 0.006,0.01563 0.0176,0.0293 l 0.008,-0.01172 a 0.50005,0.50005 0 0 0 0.26563,0.183594 l 0.0215,0.0039 a 0.50005,0.50005 0 0 0 0.31836,-0.07227 0.50005,0.50005 0 0 0 0.0488,0.07422 c 0.006,0.0058 0.0131,0.01174 0.0195,0.01758 a 0.50005,0.50005 0 0 0 0.11719,0.0332 c -0.004,-0.0027 -0.0157,-0.0098 -0.0156,-0.0098 9e-5,6.5e-5 -0.0762,-0.07037 -0.0762,-0.07031 0,0 0.0279,-0.02453 0.0332,-0.0293 a 0.50005,0.50005 0 0 0 0.0918,0.117188 0.50005,0.50005 0 0 0 0.16406,0.04687 l -0.13867,-0.01953 c -0.002,-0.001 -0.006,-0.004 -0.01,-0.0059 a 0.50005,0.50005 0 0 0 0.0215,0.02734 c 0.0506,0.0133 0.0648,0.01424 0.0957,0.01953 0.0154,0.0026 0.0276,0.0047 0.0586,0.0078 0.008,7.87e-4 0.0175,0.0032 0.0332,0.0039 0.008,3.52e-4 0.0266,-0.0026 0.0488,-0.0039 a 0.50005,0.50005 0 0 0 0.0117,0.0039 c 0.0109,-0.0022 0.0222,-0.0038 0.0332,-0.0059 4e-5,-6e-6 0.0117,-0.0019 0.0215,-0.0039 0.0187,-0.0039 0.041,-0.0078 0.041,-0.0078 4e-5,-1.2e-5 0.0296,-0.01132 0.0586,-0.02344 l 26.26758,-0.08594 c 0.005,-8e-6 0.009,-8e-6 0.0137,0 a 0.50005,0.50005 0 0 0 0.002,0 h 8.92773 13.36914 8.92774 c 0.0101,3.67e-4 0.0212,0.0015 0.0312,0.002 a 0.50005,0.50005 0 0 0 0.0156,0 l 13.74805,0.148438 a 0.50005,0.50005 0 0 0 0.50586,-0.5 V 58.75577 c 3.3e-4,-0.752327 0.19857,-1.490743 0.57422,-2.142578 l 3.41796,-5.9375 a 0.50005,0.50005 0 0 0 -0.43359,-0.75 h -2.8457 a 0.50005,0.50005 0 0 0 -0.006,0 l -25.44922,0.238281 c -0.0121,4.6e-5 -0.025,5.7e-5 -0.0371,0 a 0.50005,0.50005 0 0 0 -0.002,0 H 139.32961 127.5132 a 0.50005,0.50005 0 0 0 -0.002,0 c -0.009,3.3e-5 -0.0181,2.8e-5 -0.0273,0 h -0.002 l -3.12304,-0.02344 a 0.50005,0.50005 0 0 0 -0.002,0 c -2.37155,-0.01596 -4.27191,-1.935041 -4.26562,-4.306641 l 0.0137,-4.023437 a 0.50005,0.50005 0 0 0 -0.50391,-0.501953 z m -54.068354,0.224609 c -0.02725,0.0062 -0.01312,0.009 -0.03711,0.01563 l -0.002,-0.0059 -0.738282,0.230468 0.002,0.0039 c -0.01553,0.0055 -0.02352,0.0035 -0.03906,0.0098 a 0.50005,0.50005 0 0 0 0.335937,0.941407 l 0.09766,-0.03125 c 6.92e-4,-6.5e-5 0.0051,-0.0019 0.0059,-0.002 0.03398,-0.0032 0.14779,-0.01651 0.265625,-0.05078 l 0.0039,-0.002 c 0.229819,-0.06279 0.304999,-0.119139 0.302735,-0.125 l 0.0625,-0.01953 A 0.50005,0.50005 0 0 0 65.533235,41.5331 Z m -28.339844,0.322266 a 0.50005,0.50005 0 0 0 -0.482422,0.365234 c -0.154684,0.548152 -0.327407,1.099534 -0.451171,1.693359 -0.191075,0.916783 -0.206946,1.318463 -0.466797,2.328125 -1.054107,4.095782 -0.607494,7.250168 0.01563,11.050782 -0.0046,0.03036 -0.0098,0.06234 -0.0098,0.0625 -1.2e-5,2.8e-4 -2.58e-4,0.02856 0,0.03711 5.17e-4,0.01711 0.0013,0.02603 0.002,0.0332 0.0025,0.02868 0.0033,0.03866 0.0059,0.05664 0.0051,0.03596 0.01271,0.08322 0.02344,0.15039 0.02146,0.134344 0.05503,0.340225 0.101563,0.621094 a 0.50005,0.50005 0 0 0 0.03516,0.04102 c 0.0081,0.04342 0.01074,0.06051 0.01953,0.107422 0.136228,0.746844 0.07238,1.516436 -0.185547,2.230468 a 0.50005,0.50005 0 0 0 0.351563,0.65625 c 0.583058,0.143397 1.128781,0.407768 1.603515,0.775391 l -0.07813,-0.07617 c 0.826968,0.996364 1.871187,1.728717 3.267578,2.160156 0.02969,0.03116 0.08155,0.08753 0.08203,0.08789 6.2e-4,4.74e-4 0.06047,0.04111 0.08398,0.05273 0.02352,0.01163 0.04362,0.01949 0.06055,0.02539 0.03386,0.0118 0.05762,0.01757 0.07813,0.02148 0.16403,0.03128 0.138163,0.05528 0.361328,-0.03125 0.02038,-0.0079 0.05034,-0.02361 0.08008,-0.04102 0.05993,-0.01097 0.06622,-0.01548 0.181641,-0.03125 0.446557,-0.06107 0.955631,-0.168162 1.492187,-0.306641 0.470109,-0.121329 0.915331,-0.262971 1.316407,-0.404297 h 0.002 c 0.967,-0.202109 1.973932,-0.06496 2.851562,0.388672 a 0.50005,0.50005 0 0 0 0.646485,-0.720703 c -0.661955,-0.996887 -0.877212,-2.225606 -0.595704,-3.388672 1.726601,-6.299835 1.162288,-11.259697 0.732422,-13.527344 -0.100594,-0.53067 -0.154061,-0.894335 -0.384765,-1.246093 -0.179181,-0.2732 -0.499185,-0.470074 -0.841797,-0.69336 -0.0072,-0.01919 -0.01561,-0.04294 -0.01563,-0.04297 -4e-5,-7.5e-5 -0.105412,-0.134714 -0.105469,-0.134766 -5.7e-5,-5.2e-5 -0.152269,-0.09372 -0.152344,-0.09375 -7.4e-5,-2.9e-5 -0.142487,-0.0332 -0.142578,-0.0332 -1.81e-4,-1.5e-5 -0.175535,0.01556 -0.175781,0.01563 -2.46e-4,6.8e-5 -0.08172,0.0311 -0.08203,0.03125 -6.16e-4,2.92e-4 -0.05335,0.03025 -0.06641,0.03906 -0.01306,0.0088 -0.02136,0.013 -0.02734,0.01758 -0.04789,0.03659 -0.03297,0.02235 0.0078,-0.002 a 0.50005,0.50005 0 0 0 -0.191406,0.333985 c 0.0026,-0.01743 0.0064,-0.04322 0.0098,-0.05664 0.0091,-0.03614 0.0164,-0.05208 0.02148,-0.06445 0.01016,-0.02474 0.01232,-0.03063 0.01367,-0.0332 0.01084,-0.0206 -0.07235,0.123842 -0.22461,0.388672 -1.034902,1.800612 -2.869952,2.402486 -4.548828,2.074218 -1.678875,-0.328267 -3.15312,-1.57696 -3.433593,-3.634765 -0.03569,-0.261695 -0.109098,-0.465298 -0.173829,-0.609375 -0.06473,-0.144078 -0.105426,-0.218222 -0.130859,-0.308594 a 0.50005,0.50005 0 0 0 -0.480469,-0.365234 z m 81.910158,0.457031 -0.0117,3.517578 a 0.50005,0.50005 0 0 0 0,0.002 c -0.008,2.910595 2.34922,5.289002 5.25976,5.308594 l 3.125,0.02344 a 0.50005,0.50005 0 0 0 0.002,0 c 0.0122,4.3e-5 0.0249,4.3e-5 0.0371,0 h 11.81445 10.48047 c 0.0159,6.9e-5 0.031,7.5e-5 0.0469,0 a 0.50005,0.50005 0 0 0 0.002,0 l 25.44727,-0.238281 h 1.98047 l -2.98828,5.189453 c -0.46244,0.803112 -0.70663,1.71387 -0.70703,2.640625 v 4.419922 l -13.22657,-0.142578 h -0.0156 c -0.0142,-5.77e-4 -0.0287,-0.0015 -0.043,-0.002 a 0.50005,0.50005 0 0 0 -0.0156,0 h -8.92774 -13.36914 -8.92773 c -0.006,-9e-6 -0.0118,-9e-6 -0.0176,0 l -26.31445,0.08594 c -0.0507,-0.0525 -0.20481,-0.220988 -0.39063,-0.498046 -0.20784,-0.309902 -0.44818,-0.711129 -0.68555,-1.144532 -0.47322,-0.86406 -0.9317,-1.867073 -1.11914,-2.507812 -0.833014,-4.173317 -1.595808,-8.067554 -1.687495,-11.611328 l 0.0039,-4.917969 z m -30.744142,1.421875 c -0.06376,0.01244 -0.12138,0.02455 -0.175781,0.03516 a 0.50005,0.50005 0 0 0 -0.230469,0.869141 c -0.0366,-0.03155 0.0078,0.04879 0.164062,0.191406 a 0.50005,0.50005 0 0 0 0.837891,-0.376953 c -0.001,-0.06329 0.0014,-0.140941 0,-0.236328 A 0.50005,0.50005 0 0 0 88.359368,43.734375 Z M 37.24218,44.103512 c 0.603384,1.979354 2.17725,3.300527 3.976563,3.652343 2.011293,0.393265 4.260031,-0.379888 5.521484,-2.451172 0.103557,0.08247 0.319021,0.212934 0.357422,0.271485 0.08322,0.126888 0.137384,0.350546 0.238281,0.882812 0.41037,2.164803 0.963272,6.966692 -0.71875,13.091797 a 0.50005,0.50005 0 0 0 -0.0039,0.01563 c -0.255623,1.05612 -0.07235,2.120017 0.3125,3.117188 -0.800279,-0.216166 -1.627681,-0.312729 -2.449219,-0.140625 a 0.50005,0.50005 0 0 0 -0.06445,0.01758 c -0.386389,0.138078 -0.834193,0.277072 -1.296875,0.396484 -0.508511,0.131241 -0.98527,0.231589 -1.376953,0.285156 -0.142827,0.01951 -0.201987,0.03458 -0.287109,0.05078 -1.351014,-0.359343 -2.214958,-0.992803 -3.003906,-1.94336 a 0.50005,0.50005 0 0 0 -0.07813,-0.07617 C 37.899331,60.909634 37.34264,60.694205 36.781247,60.505862 36.977875,59.757308 37.11062,58.985794 36.9707,58.220706 a 0.50005,0.50005 0 0 0 -0.002,-0.002 c -0.04887,-0.260882 -0.08214,-0.446209 -0.111328,-0.599609 -0.666807,-4.023296 -1.149016,-7.034257 -0.0957,-11.126954 0.27322,-1.061609 0.295436,-1.50595 0.476562,-2.375 9.36e-4,-0.0045 0.003,-0.0092 0.0039,-0.01367 z m 51.275391,0.111328 -0.103516,0.390625 -0.271484,-0.220703 z m -42.339837,0.50391 a 0.50005,0.50005 0 0 0 0.04297,0.08008 c -0.01056,-0.01348 -0.02735,-0.03518 -0.02734,-0.03516 1.5e-5,2.7e-5 -0.0078,-0.02409 -0.01563,-0.04492 z m 11.666016,0.574219 a 0.50005,0.50005 0 0 0 -0.53125,0.541015 c 0.01274,0.147413 0.02847,0.183388 0.02344,0.117188 a 0.50005,0.50005 0 0 0 0,0.0078 c 0.250445,2.647639 0.266177,5.37069 0.132813,8.111328 a 0.50005,0.50005 0 0 0 0.394531,0.511719 c 0.310731,0.06712 0.562486,0.0992 0.796875,0.173828 a 0.50005,0.50005 0 0 0 0.625,-0.638672 c -0.295611,-0.863611 -0.435519,-1.858295 -0.4043,-2.900378 a 0.50005,0.50005 0 0 0 0,-0.02734 c -0.04583,-1.887053 0.526474,-3.559074 1.498047,-4.972656 a 0.50005,0.50005 0 0 0 -0.380859,-0.78125 c -0.722988,-0.04556 -1.427882,-0.09423 -2.154297,-0.142578 z m 0.496094,1.035156 c 0.284556,0.01912 0.57113,0.03786 0.855468,0.05664 -0.311816,0.544242 -0.624832,1.088537 -0.826171,1.695312 -0.02832,-0.580868 0.0194,-1.175823 -0.0293,-1.751953 z m 121.093746,1.363281 a 0.50005,0.50005 0 0 0 -0.27929,0.205078 l 0.66797,0.507813 -0.20899,0.154297 a 0.50005,0.50005 0 0 0 0.17383,-0.01172 l 0.002,-0.002 a 0.50005,0.50005 0 0 0 0.0527,-0.126953 l 0.0273,0.02148 c 2e-5,-4e-5 0.01,-0.04819 0.0176,-0.08203 l -0.0293,0.02148 A 0.50005,0.50005 0 0 0 179.91211,48.25 c 0.007,-0.03337 0.0138,-0.06813 0.0156,-0.07617 a 0.50005,0.50005 0 0 0 -0.49218,-0.482422 z m -0.35156,0.146485 -0.002,0.002 0.004,0.0039 z m 0.0352,0.08594 a 0.50005,0.50005 0 0 0 -0.10742,0.08008 0.50005,0.50005 0 0 0 0.37695,0.570313 z m -0.13672,0.09961 a 0.50005,0.50005 0 0 0 -0.0254,0.01953 c -8e-5,2.5e-4 -0.0215,0.17559 -0.0215,0.175781 0,1.1e-5 -8e-5,0.0053 0,0.0059 0.001,-0.0052 0.0291,-0.122108 0.0469,-0.201172 z m 0.9375,0.04687 c 0.002,0.0065 0.0123,0.08254 0.0137,0.0918 2e-5,-9.9e-5 0,-0.0039 0,-0.0039 0,-6.7e-5 -0.01,-0.07415 -0.01,-0.07422 -1e-5,-7e-5 -0.005,-0.01712 -0.004,-0.01367 z m 0.0117,0.109375 c -5.7e-4,0.0045 -0.002,0.02116 -0.004,0.03516 a 0.50005,0.50005 0 0 0 0.004,-0.03516 z M 74.988281,48.359375 a 0.50005,0.50005 0 0 0 -0.560547,0.289062 c -0.03269,0.0747 -0.07153,0.166357 -0.09961,0.230469 -0.617494,1.407201 -1.937217,2.377232 -3.464844,2.544922 -0.177088,0.01939 -0.419677,0.04667 -0.630859,0.07031 a 0.50005,0.50005 0 0 0 -0.25586,0.886718 c 0.07135,0.0572 0.160684,0.128165 0.230469,0.183594 1.344027,1.091637 1.900666,2.878908 1.414063,4.541016 a 0.50005,0.50005 0 0 0 0.759765,0.554687 c 1.501184,-1.014993 3.473232,-0.979667 4.9375,0.08789 a 0.50005,0.50005 0 0 0 0.777344,-0.535156 c -0.424672,-1.553906 0.05436,-3.212652 1.242188,-4.300782 0.109975,-0.09696 0.252186,-0.223121 0.373046,-0.330078 a 0.50005,0.50005 0 0 0 -0.322265,-0.875 c -1.851758,-0.0316 -3.470899,-1.240739 -4.025391,-3.007812 l 0.02344,0.148437 A 0.50005,0.50005 0 0 0 74.988281,48.359375 Z M 8.3417969,49.400391 c 0,0 0.085577,0.0201 0.1074219,0.02539 a 0.50005,0.50005 0 0 0 -0.1660157,0.148438 c 1.759e-4,-0.0012 -2.384e-4,-3.88e-4 0,-0.002 7.353e-4,-0.0048 0.00392,-0.02937 0.00391,-0.0293 -1.65e-5,7.7e-5 0.054687,-0.142578 0.054687,-0.142578 z M 8.28125,49.585937 c -6.377e-4,0.0084 6.039e-4,0.02064 0,0.0293 H 8.2793 Z m 66.535156,0.228516 c 0.737462,1.422115 2.048189,2.41 3.617188,2.726563 -1.012957,1.098386 -1.421744,2.528079 -1.294922,4.001953 -1.44279,-0.723135 -3.102305,-0.746214 -4.566406,-0.06445 0.167244,-1.544215 -0.293846,-3.020233 -1.371094,-4.150391 1.543204,-0.244442 2.81158,-1.190765 3.615234,-2.513672 z m -60.626953,1.152344 c -0.03313,0.09029 -0.07031,0.1875 -0.07031,0.1875 0,0 -0.09375,-0.04687 -0.09375,-0.04687 9e-6,9e-6 -0.02693,-0.02707 -0.04687,-0.04687 0.04086,-0.01811 0.05776,-0.02531 0.115234,-0.05078 0.0076,0.0028 0.02823,0.01094 0.06055,0.02148 l -0.0293,-0.03516 c 0.03202,-0.01419 0.03689,-0.01708 0.06445,-0.0293 z M 57.880859,51.1875 c -1.24e-4,0.0042 0.0021,0.0076 0.002,0.01172 1.1e-4,0.0048 -0.0021,0.0088 -0.002,0.01367 z M 8.6894531,51.904297 h 0.021484 c -0.00806,-10e-4 -0.015381,0.003 -0.023437,0.002 z m 14.2441409,2.791015 a 0.50005,0.50005 0 0 0 -0.464844,0.08789 c -0.06461,0.05189 -0.05021,0.05109 -0.06445,0.07031 l -0.0039,-0.0039 c -0.03854,0.04567 -0.06217,0.0663 -0.09375,0.09961 -0.0039,0.0031 -0.0059,0.0067 -0.0098,0.0098 a 0.50005,0.50005 0 0 0 -0.339844,-0.148437 l 0.0957,0.101562 c -0.133629,-0.03541 -0.267578,-0.07031 -0.267578,-0.07031 0,0 -0.06697,0.06268 -0.132812,0.125 l -0.01563,-0.04102 c -1.103091,0.916586 -2.589577,1.223319 -3.964844,0.816406 a 0.50005,0.50005 0 0 0 -0.632813,0.566407 c 0.04419,0.246363 0.05788,0.497887 0.05859,0.748047 -0.02983,0.07338 0.0011,0.0501 -0.230469,0.40625 -0.08269,0.127195 -0.138843,0.226621 -0.371093,0.492187 0.04833,-0.05512 0.0041,-0.0098 -0.04687,0.04297 a 0.50005,0.50005 0 0 0 0.05273,0.74414 c 0.871155,0.674644 1.448552,1.657309 1.615234,2.746094 0.0016,0.04394 0.0018,0.09295 0.002,0.09961 4.1e-5,0.0023 0.0018,0.0039 0.002,-0.0059 7.7e-5,-0.0049 0.002,-0.04142 0.002,-0.04102 -10e-6,1.01e-4 0.0059,-0.03913 0.0059,-0.03906 0,0 0.03328,0.0067 0.03906,0.0078 a 0.50005,0.50005 0 0 0 -0.04883,0.09961 c 3.6e-4,0.0061 0.0012,0.0107 0.002,0.01953 3.63e-4,0.0044 7.54e-4,0.0092 0.002,0.01953 5.99e-4,0.0052 0.0039,0.02322 0.0039,0.02344 3.6e-5,2.2e-4 0.02341,0.08976 0.02344,0.08984 0,0 0.0098,0.02539 0.0098,0.02539 0,0 0.0098,0.02148 0.0098,0.02148 0,0 0.07031,0.107422 0.07031,0.107422 0,0 0.392579,0.175781 0.392578,0.175781 0,0 0.183517,-0.09515 0.292969,-0.152344 l -0.02734,0.05469 c 0.47758,-0.321147 1.013125,-0.542838 1.578125,-0.652344 a 0.50005,0.50005 0 0 0 0.404297,-0.535156 c -0.05731,-0.660786 0.04254,-1.324244 0.285157,-1.941407 0.201054,-0.349374 0.30151,-0.505951 0.384765,-0.636718 a 0.50005,0.50005 0 0 0 0.0918,-0.03125 c 0.07529,-0.152484 0.116516,-0.23013 0.15625,-0.355469 0.0099,-0.03133 0.03085,-0.04644 0.0293,-0.179688 -1.95e-4,-0.01666 -9.4e-4,-0.03538 -0.0039,-0.05859 -3.45e-4,-0.0027 -0.0013,-0.0062 -0.002,-0.0098 0.241492,-0.579651 0.405129,-1.115607 0.476562,-1.599609 0.03648,0.0084 0.07797,0.01756 0.07813,0.01758 2.41e-4,2.3e-5 0.0876,0.002 0.08789,0.002 2.92e-4,-2.2e-5 0.04374,-0.0064 0.06055,-0.0098 0.06724,-0.01339 0.09559,-0.02809 0.11914,-0.03906 0.09421,-0.04389 0.106013,-0.06267 0.140625,-0.08984 0.03461,-0.02717 0.07069,-0.05584 0.109375,-0.0918 0.0257,-0.02389 0.06117,-0.06668 0.08984,-0.0957 6.03e-4,-6.1e-4 0.0013,-0.0013 0.002,-0.002 a 0.50005,0.50005 0 0 0 0,-0.002 c 0.0418,-0.0312 0.01754,-0.02104 0.03711,-0.03906 0.05518,-0.05083 0.09201,-0.09204 0.105469,-0.109375 0.0076,-0.0098 -0.01932,0.01576 -0.01367,0.01172 0.01784,-0.02028 0.03026,-0.03073 0.04883,-0.05273 a 0.50005,0.50005 0 0 0 -0.230468,-0.798829 z m -1.261719,0.328125 c 0.0022,-1.16e-4 0.02618,2.7e-4 0.03125,0 a 0.50005,0.50005 0 0 0 -0.01953,0.03125 z m 0.917969,0.01953 c 9.36e-4,2.13e-4 0.0078,0.002 0.0078,0.002 -1.88e-4,-7e-5 0.150527,0.08801 0.150391,0.08789 -1.36e-4,-1.15e-4 0.121177,0.150552 0.121094,0.150391 -3.8e-5,-7.2e-5 0.01231,0.03567 0.02344,0.07031 z m -0.138672,0.308593 c 9.1e-5,7e-6 0.0019,-8e-6 0.002,0 -0.0011,0.0075 -0.003,0.02335 -0.0059,0.04297 a 0.50005,0.50005 0 0 0 -0.0098,-0.01758 0.50005,0.50005 0 0 0 0.01367,-0.02539 z m -0.982422,0.0059 c 0,0 0.01638,0.0018 0.01758,0.002 a 0.50005,0.50005 0 0 0 0,0.002 0.50005,0.50005 0 0 0 -0.01953,0.03125 c 2.89e-4,-0.0071 0.002,-0.03525 0.002,-0.03516 z m -0.25,0.845703 c -0.08721,0.395023 -0.156091,0.776312 -0.398438,1.304687 -0.124843,0.179739 -0.276875,0.430949 -0.550781,0.910157 a 0.50005,0.50005 0 0 0 -0.03125,0.06445 c -0.254522,0.641303 -0.304494,1.332144 -0.296875,2.019531 -0.346676,0.09321 -0.667965,0.247223 -0.988281,0.408203 -0.241423,-0.992627 -0.756319,-1.870728 -1.498047,-2.572265 0.08411,-0.114425 0.213073,-0.273277 0.25,-0.330079 0.310037,-0.476912 0.352074,-0.620254 0.349609,-0.615234 a 0.50005,0.50005 0 0 0 0.05078,-0.208984 c 0.0033,-0.151771 -0.02543,-0.301815 -0.03516,-0.453125 1.100062,0.17297 2.161454,-0.02883 3.148438,-0.527344 z m 68.580078,0.238281 a 0.50005,0.50005 0 0 0 -0.679687,0.119141 c -0.288191,0.389985 -0.54376,0.757544 -0.837891,1.060547 a 0.50005,0.50005 0 0 0 -0.0078,0.02344 l -0.01563,0.01953 0.0098,0.002 a 0.50005,0.50005 0 0 0 -0.002,0.0039 c -0.0079,0.01007 -0.0093,0.01063 -0.01758,0.02148 a 0.50005,0.50005 0 0 0 -0.05273,0.195313 0.50005,0.50005 0 0 0 -0.04883,0.15625 c 0.0013,0.009 5.79e-4,0.0084 0,0.0039 a 0.50005,0.50005 0 0 0 0.0059,0.0059 0.50005,0.50005 0 0 0 -0.002,0.0078 c 0.110793,0.839706 0.12951,1.752798 0.04297,2.726562 a 0.50005,0.50005 0 0 0 0.394532,0.533203 c 0.636116,0.134077 1.189239,0.231847 1.810546,0.363282 a 0.50005,0.50005 0 0 0 0.587891,-0.609375 C 90.77901,60.233909 90.467258,59.448474 90.357422,58.75 a 0.50005,0.50005 0 0 0 -0.0059,-0.0293 c -0.13172,-0.610421 -0.212364,-1.280032 -0.339843,-1.955078 a 0.50005,0.50005 0 0 0 -0.212891,-0.324219 z m -53.009766,0.84375 c 5.8e-5,1.08e-4 0.002,0.0039 0.002,0.0039 0,0 -0.0019,2e-6 -0.002,0 -1e-4,-6.87e-4 1.27e-4,-0.0032 0,-0.0039 z m 52.435547,0.785156 c 0.04559,0.281083 0.08406,0.550216 0.144532,0.833985 6.68e-4,0.0042 0.0032,0.0075 0.0039,0.01172 0.09264,0.580583 0.272297,1.10012 0.435547,1.628906 -0.205273,-0.04011 -0.420329,-0.08363 -0.626953,-0.125 0.04465,-0.782711 0.04478,-1.541313 -0.03516,-2.251953 0.02183,-0.02414 0.05447,-0.07207 0.07813,-0.09766 z m -70.929687,3.183594 a 0.50005,0.50005 0 0 0 -0.09766,0.197266 c -0.01041,-0.0035 -0.05273,-0.01758 -0.05273,-0.01758 0,0 0.0098,-0.02148 0.0098,-0.02148 0,0 0.0625,-0.117187 0.0625,-0.117187 0,0 0.05296,-0.02786 0.07813,-0.04102 z m 0.324219,0.337891 c 10e-6,-5.8e-5 0.383473,0.03968 0.455078,0.04687 l -0.04492,0.08984 c -0.09623,-0.03204 -0.410156,-0.136719 -0.410156,-0.136719 z m 83.941409,1.568359 0.0273,0.01758 a 0.50005,0.50005 0 0 0 -0.0859,-0.01172 c 0.008,-0.0017 0.0196,-0.0039 0.0195,-0.0039 -2.1e-4,3.1e-5 0.0217,-9.16e-4 0.0391,-0.002 z m -0.0527,0.03906 0.19727,0.05469 h 0.002 l 0.002,0.002 0.0918,0.119141 c 0.0125,-0.01691 0.0199,-0.02826 0.0293,-0.04102 l 0.0898,0.05664 0.0312,0.04883 0.0273,0.04297 a 0.50005,0.50005 0 0 0 -0.0488,-0.03125 0.50005,0.50005 0 0 0 -0.12891,-0.07617 l 0.082,0.105469 0.125,0.162109 -0.38867,0.0625 c -0.005,-0.0091 -0.0273,-0.04687 -0.0273,-0.04687 -4e-5,-4e-5 0.12193,-0.165108 0.20898,-0.283203 a 0.50005,0.50005 0 0 0 -0.29297,-0.175781 z M 101.42969,63.75 c 0.006,0.01048 0.0132,0.02071 0.0195,0.03125 a 0.50005,0.50005 0 0 0 0.006,0.0039 z m -86.906252,3.912109 c -0.186292,0.06502 -0.261614,0.0922 -0.72461,0.240235 -0.465495,0.148842 -0.950418,0.400572 -1.371094,0.720703 -0.420675,0.32013 -0.790248,0.701622 -0.949218,1.203125 -1.051346,3.316664 -1.398168,6.884843 0.529297,9.226562 0.424706,0.516008 0.929736,0.80302 1.353515,0.949219 0.21189,0.0731 0.404219,0.111424 0.566406,0.128906 0.162188,0.01748 0.239556,0.04762 0.462891,-0.02734 C 14.707231,79.99731 14.928538,79.783594 15.125,79.5 c 0.196462,-0.283594 0.34774,-0.650662 0.351563,-1.074219 0.03049,-3.38181 -0.14092,-6.810957 -0.28711,-10.3125 a 0.50005,0.50005 0 0 0 -0.666015,-0.451172 z m -0.314454,1.158203 c 0.13894,3.26799 0.295755,6.470839 0.267579,9.595704 -0.0017,0.185803 -0.07446,0.372182 -0.173829,0.515625 -0.09937,0.143443 -0.247626,0.230365 -0.230468,0.224609 0.14707,-0.04937 0.0474,-0.01042 -0.03711,-0.01953 -0.08451,-0.0091 -0.208908,-0.03221 -0.347656,-0.08008 -0.277497,-0.09573 -0.614764,-0.282151 -0.908203,-0.638672 -1.561792,-1.897456 -1.353934,-5.114574 -0.347656,-8.289063 0.0551,-0.173816 0.278912,-0.46345 0.601562,-0.708984 0.32265,-0.245534 0.730992,-0.455956 1.070313,-0.564453 0.06592,-0.02108 0.05282,-0.01814 0.105468,-0.03516 z"
           id="path3" /><path
           style="color:#000000;fill:#10ff05;fill-opacity:1;stroke:#000000;stroke-linecap:round;stroke-linejoin:round;stroke-opacity:1;-inkscape-stroke:none;paint-order:markers stroke fill"
           d="m 37.046416,31.338395 c -1.185691,-3.34e-4 -2.402768,0.178459 -3.732422,0.841797 -3.243226,1.618862 -4.630203,5.257363 -4.873047,5.925782 -0.217978,0.599975 -0.291325,1.074602 -0.447266,1.638671 -1.104356,-1.093775 -2.397548,-1.99667 -3.546875,-2.154296 -1.822979,-0.250016 -2.78228,0.110865 -3.048828,0.148437 -0.780343,0.109996 -1.489484,0.497482 -2.15625,0.910156 -1.762473,-0.93791 -4.290098,-1.04009 -6.115234,-0.08203 -1.867896,0.980505 -2.949838,2.567275 -3.6191415,4.197266 0,0 1e-6,0.0019 0,0.002 -6.05e-4,0.0031 -0.372412,1.879708 -0.394531,2.320312 -0.02214,0.440968 -0.05056,1.029268 -0.08008,1.617188 -0.02951,0.58793 -0.05989,1.17626 -0.08203,1.61719 -0.0059,0.11836 -0.01089,0.19083 -0.01563,0.28516 -0.01868,0.0727 -0.01212,-0.0123 -0.0625,0.27148 -0.05881,0.3311 -0.107117,0.91034 -0.09375,0.73828 a 4.7959794,4.7959794 0 0 0 0,0.002 c -0.03693,0.47686 -0.01593,1.83152 -0.02344,0.72071 a 4.7959794,4.7959794 0 0 0 0,0.002 c 0.0011,0.15693 0.0042,0.29532 0.0059,0.48242 0.0032,0.38065 0.0042,0.92419 -0.01172,1.47657 a 4.7959794,4.7959794 0 0 0 0,0.002 c -8.94e-4,0.0311 -0.0048,0.0506 -0.0059,0.082 -0.01442,10e-4 -0.09797,0.0175 -0.09766,0.0176 -4.0698448,-0.52626 -7.91277048,2.43494 -8.43945288,6.50586 -0.3631711,2.80879 1.00126368,5.43278 3.17773438,7.00976 -0.1805167,0.40108 -0.4312104,0.71713 -0.5722656,1.16211 -1.4514929,4.57901 -2.67407468,11.85542 2.1777344,17.75 2.9765627,3.6163 7.7387422,5.41973 12.2910162,3.89258 4.405354,-1.47782 7.24376,-5.62316 7.285156,-10.21289 0.02154,-2.38861 -0.103138,-4.61351 -0.189453,-6.89258 1.768722,0.40306 3.66556,0.67373 5.763672,0.41602 1.36092,-0.16717 2.672501,-0.60739 3.914062,-1.21485 1.433419,0.97824 3.063833,1.78936 4.929688,2.26953 1.822325,0.46898 3.733639,0.20527 4.121094,0.15235 0.911705,-0.12468 1.755539,-0.30957 2.53125,-0.50977 0.0097,-0.003 0.01765,-0.005 0.02734,-0.008 1.058947,0.46679 2.227071,0.85297 3.59375,0.94531 2.428582,0.16416 4.724519,-0.54227 6.744141,-2.06836 0.753104,0.25811 1.543138,0.44056 2.375,0.44141 a 4.7959794,4.7959794 0 0 0 0.05273,-0.002 c 1.403413,-0.0141 2.648824,-0.53298 3.777344,-1.23633 0.208028,-0.04 0.429161,-0.0685 0.609375,-0.12695 l 0.0039,-0.002 c 0.0034,-10e-4 0.0083,-8.3e-4 0.01172,-0.002 0.120579,-0.0395 0.269548,-0.0559 0.378906,-0.10156 1.827826,-0.49089 4.016877,-0.90377 6.441407,-1.73047 a 4.7959794,4.7959794 0 0 0 1.160156,-0.76758 c 0.371504,-0.0411 0.913749,0.006 1.173828,-0.0566 1.142302,-0.27437 2.161341,-0.79272 2.550781,-1.00781 0.02341,-0.0129 0.0296,-0.0222 0.05273,-0.0352 0.0095,0.006 0.0119,0.01 0.02148,0.0156 0.214084,0.12966 0.850035,0.37029 1.324219,0.59179 a 4.7959794,4.7959794 0 0 0 1.326172,1.15235 l 23.492184,4.33593 a 4.7959794,4.7959794 0 0 0 0.11914,-0.043 c 0.49344,0.0865 0.98364,0.18722 1.50586,0.18555 l 26.69532,-0.0859 h 8.91992 13.36914 8.90234 l 15.26758,0.16407 a 4.7959794,4.7959794 0 0 0 0.0527,0 c 4.4157,-0.001 8.09802,-3.6836 8.09766,-8.09961 v -5.15039 l 4.06445,-7.0625 a 4.7959794,4.7959794 0 0 0 0,-0.002 c 2.99186,-5.20085 -1.02144,-12.137568 -7.02148,-12.136718 h -5.44531 a 4.7959794,4.7959794 0 0 0 -0.0449,0 l -25.44921,0.236328 h -10.45704 -10.13281 l 0.002,-0.769531 a 4.7959794,4.7959794 0 0 0 0,-0.04102 c -0.0242,-4.417468 -3.7287,-8.080538 -8.14649,-8.054688 a 4.7959794,4.7959794 0 0 0 -0.002,0 L 96.813954,32.35772 c -1.465371,0.009 -2.772576,0.531411 -3.964848,1.242187 a 4.7959794,4.7959794 0 0 0 -0.197265,0.002 c -5.341871,1.135436 -10.903952,2.107494 -16.44336,3.298828 a 4.7959794,4.7959794 0 0 0 -0.583984,0.589844 c -0.234659,-0.01647 -0.430841,-0.09004 -0.677735,-0.08594 -0.482192,0.008 -0.913768,0.114352 -1.353515,0.203125 a 4.7959794,4.7959794 0 0 0 -0.679688,-0.306641 c -4.074965,-0.54001 -8.004177,-0.59288 -11.542968,-0.882812 a 4.7959794,4.7959794 0 0 0 -0.09766,-0.0078 C 57.644813,36.1878 53.898546,35.90998 50.247541,35.674183 a 4.7959794,4.7959794 0 0 0 -0.199219,0.125 C 48.399183,35.09682 46.529312,34.694733 44.366681,35.223011 43.68146,34.318583 42.45392,32.964978 40.686994,32.125355 h -0.002 c -1.279886,-0.607484 -2.450884,-0.786753 -3.638672,-0.78711 z m 52.326172,5.136719 c -0.03308,0.06308 -0.209028,0.601456 -0.353516,1.021485 0.08561,-0.422684 0.207464,-0.687937 0.267578,-0.830079 0.106176,-0.251054 0.136217,-0.28728 0.08594,-0.191406 z m -0.525391,1.492188 c -0.0023,0.01265 -0.0016,0.02252 -0.0039,0.03516 -0.0045,0.02585 -0.0033,-0.0014 -0.0078,0.02539 z m -51.265625,2.613281 c -0.08251,0.0581 -0.182308,0.280384 0.01563,0.181641 -0.03547,0.01769 -0.01606,-6.16e-4 -0.04687,0.01367 -0.01326,-0.01231 0.05138,-0.209485 0.03125,-0.195312 z m 82.023438,1.228516 -0.0137,4.023439 a 4.7959794,4.7959794 0 0 0 4.76368,4.80859 l 3.125,0.0234 a 4.7959794,4.7959794 0 0 0 0.0332,0 h 11.8164 10.48047 a 4.7959794,4.7959794 0 0 0 0.0449,0 l 25.44921,-0.23828 h 2.84571 l -3.41797,5.9375 a 4.7959794,4.7959794 0 0 0 -0.64063,2.39258 v 4.92578 l -13.74804,-0.14844 a 4.7959794,4.7959794 0 0 0 -0.0527,-0.002 h -8.92773 -13.36914 -8.92774 a 4.7959794,4.7959794 0 0 0 -0.0156,0 l -26.55469,0.0859 a 4.7959794,4.7959794 0 0 0 -0.0215,-0.0469 c -0.53363,-0.41344 -2.00492,-3.04582 -2.41993,-4.47266 -0.835846,-4.18708 -1.609576,-8.11507 -1.703116,-11.73047 l 0.004,-5.42773 z m -53.960938,0.210937 c -0.124995,0.02834 -0.226315,0.109463 -0.349609,0.142578 -0.178947,0.05864 -0.191524,0.0081 -0.388672,0.08789 z M 37.1929,42.355974 c 0.08296,0.294781 0.23353,0.428054 0.291016,0.849609 a 4.7959794,4.7959794 0 0 0 8.910156,1.742187 c 0.300975,-0.523479 0.260114,-0.426502 0.193359,-0.386718 1.023274,0.631847 1.038743,0.741748 1.240235,1.804686 0.420308,2.21723 0.97859,7.10191 -0.728516,13.31836 a 4.7959794,4.7959794 0 0 0 0.666016,3.78125 4.7959794,4.7959794 0 0 0 -3.185547,-0.43359 c -0.401087,0.14333 -0.861634,0.28673 -1.339844,0.41015 -0.522534,0.13486 -1.014474,0.23761 -1.433594,0.29493 -0.943365,0.12885 -0.144608,0.13636 -0.43164,0.0625 -1.481884,-0.38136 -2.465566,-1.11044 -3.3125,-2.13086 a 4.7959794,4.7959794 0 0 0 -1.791016,-0.86524 4.7959794,4.7959794 0 0 0 0.207031,-2.49219 c -0.221524,-1.18248 -0.23866,-1.26097 -0.05273,-0.13867 -0.710407,-4.2874 -1.27075,-7.44389 -0.148437,-11.80469 0.266536,-1.035637 0.286555,-1.458641 0.472656,-2.351558 0.117245,-0.562547 0.286209,-1.103267 0.443359,-1.660156 z m 51.261719,1.86914 c 0.0012,0.08022 -0.0013,0.157189 0,0.236328 -0.06453,-0.05889 -0.110113,-0.144559 -0.175781,-0.201172 0.05911,-0.01152 0.116645,-0.02362 0.175781,-0.03516 z m -30.644531,1.566404 c 0.725672,0.0483 1.431374,0.0969 2.15625,0.14258 -1.024413,1.49046 -1.634414,3.27153 -1.585938,5.26758 -0.03284,1.09619 0.113775,2.14947 0.431641,3.07812 -0.28862,-0.0919 -0.562056,-0.12469 -0.84375,-0.18554 0.134239,-2.75862 0.118514,-5.50403 -0.134766,-8.18164 -0.0032,-0.0421 -0.01982,-0.0792 -0.02344,-0.1211 z m 121.623042,2.40039 h 0.002 l -0.002,0.002 c 3.1e-4,-5.5e-4 -3.1e-4,-10e-4 0,-0.002 z m -104.54687,0.65625 a 4.7959794,4.7959794 0 0 0 4.49414,3.35938 c -0.122368,0.10829 -0.269774,0.23799 -0.380859,0.33594 a 4.7959794,4.7959794 0 0 0 -1.386719,4.80078 4.7959794,4.7959794 0 0 0 -5.511719,-0.0977 4.7959794,4.7959794 0 0 0 -1.583984,-5.07422 c -0.07063,-0.0561 -0.159519,-0.12633 -0.228516,-0.18164 0.211678,-0.0237 0.453537,-0.0511 0.628907,-0.0703 a 4.7959794,4.7959794 0 0 0 3.86914,-2.8418 c 0.03017,-0.0689 0.06894,-0.16038 0.09961,-0.23047 z m -61.146485,1.50977 c -4e-5,-1e-5 0.321534,0.11073 0.509766,0.17578 0.0044,0.0818 0.0089,0.32201 0.0098,0.43164 a 4.7959794,4.7959794 0 0 0 -1.126953,-0.55273 c 0.271313,-0.0243 0.607478,-0.0547 0.607422,-0.0547 z m -0.935547,0.084 a 4.7959794,4.7959794 0 0 0 -3.8085935,2.50391 c 0.427371,-0.87037 0.411025,-0.6434 0.332031,-0.54883 0.06702,-0.10236 0.127181,-0.20243 0.324219,-0.42773 0.123613,-0.14135 0.5922905,-0.56876 0.5917975,-0.56836 -4.94e-4,4e-4 1.693742,-0.88097 1.693359,-0.88086 -9.2e-5,2e-5 0.434368,-0.0393 0.867187,-0.0781 z m 1.462891,0.0977 c 0.01632,0.006 0.0258,0.01 0.04297,0.0156 a 4.7959794,4.7959794 0 0 0 0.04297,0.32227 c 9e-5,2.7e-4 -0.07504,-0.24714 -0.05859,-0.18164 0.01645,0.0655 0.08631,0.5155 -0.02734,-0.1543 3.06e-4,0.002 -2.58e-4,-0.003 0,-0.002 z m 8.515625,4.63281 c -0.3592,0.42563 -0.54151,0.44382 -0.0957,0.11133 0.02224,-0.0166 0.07138,-0.0918 0.0957,-0.11133 z m -0.826172,0.13867 c 4.62e-4,-0.007 0.0094,0.1114 0.0098,0.10157 -0.02477,0.70693 -0.252802,1.51205 -0.771485,2.5625 0.286979,-0.5812 0.104988,-0.35338 -0.492187,0.6914 a 4.7959794,4.7959794 0 0 0 -0.320313,2.1836 4.7959794,4.7959794 0 0 0 -1.763672,0.72851 c 0.0018,0.0302 0.0029,0.0208 -0.0039,-0.15039 a 4.7959794,4.7959794 0 0 0 -1.80664,-3.08203 c 0.02069,-0.0214 0.05086,-0.047 0.06445,-0.0625 0.249657,-0.28547 0.33889,-0.4332 0.414062,-0.54883 0.300687,-0.46253 0.276846,-0.47795 0.31836,-0.5625 a 4.7959794,4.7959794 0 0 0 -0.07422,-0.95117 4.7959794,4.7959794 0 0 0 4.425781,-0.91016 z m 67.564453,1.54688 c 0.123148,0.65211 0.203228,1.32659 0.341797,1.96875 0.122518,0.77912 0.443164,1.57475 0.638672,2.36719 -0.630833,-0.13345 -1.183809,-0.23118 -1.810547,-0.36328 0.08953,-1.00739 0.07108,-1.95677 -0.04492,-2.83594 0.162981,-0.21376 0.274032,-0.27381 0.455078,-0.56641 l -0.458984,0.55469 c -6.41e-4,-0.005 -0.0013,-0.009 -0.002,-0.0137 0.332403,-0.34243 0.599308,-0.73033 0.880859,-1.11133 z m 12.132805,6.25195 c 0.0643,0.0565 0.17117,0.32682 0.24414,0.41602 l -0.0215,-0.004 a 4.7959794,4.7959794 0 0 0 -0.0215,-0.0352 c -0.0855,-0.0997 -0.12941,-0.25404 -0.21094,-0.35938 z m 0.85352,0.53321 c 0.0228,0.006 0.0947,0.019 0.084,0.0137 a 4.7959794,4.7959794 0 0 0 -0.0605,0.0117 4.7959794,4.7959794 0 0 0 -0.0215,-0.0195 4.7959794,4.7959794 0 0 0 -0.002,-0.006 z m -87.818356,4.49023 c 0.146302,3.50423 0.317422,6.92532 0.287109,10.28711 -0.0055,0.60936 -0.444691,1.10853 -0.74414,1.20898 -0.15253,0.0512 -1.119745,-0.022 -1.837891,-0.89453 -1.74463,-2.11959 -1.468266,-5.51223 -0.439453,-8.75781 0.214068,-0.67532 1.191278,-1.34032 1.996094,-1.59766 0.465885,-0.14896 0.555141,-0.18217 0.738281,-0.24609 z"
           id="path4" /></g><path
         style="fill:#a7ffa3;fill-opacity:1;stroke:#000000;stroke-width:0.49113;stroke-linecap:round;stroke-linejoin:round;stroke-dasharray:none;stroke-opacity:1;paint-order:markers stroke fill"
         d="m 203.43126,151.05097 c 1.74123,1.47111 2.94929,3.54101 3.11791,5.8382 0.32813,3.42925 0.36814,6.91886 -0.0208,10.34393 -0.0732,0.91535 -0.50136,2.00324 -0.37199,2.84253 1.52422,-0.68358 3.25602,-1.23512 4.90679,-0.61609 2.64777,0.9997 4.41293,4.08611 3.66765,6.86154 -0.28127,0.2817 -0.0971,0.58837 0.27661,0.32854 2.17637,-0.61365 4.47837,-1.03912 6.5899,-1.75911 -0.80156,-0.78193 -1.9034,-1.38045 -2.25998,-2.54131 -0.72894,-1.77764 -0.17515,-3.72473 0.37092,-5.46182 -1.48815,-1.30599 -3.23943,-2.87249 -3.08972,-5.05276 -0.13391,-2.16407 1.51403,-4.07838 3.5784,-4.54649 0.90634,-0.36662 2.02549,-0.17293 2.85582,-0.66817 0.91186,-1.31781 1.43898,-2.92482 2.72379,-3.97387 -3.69495,-0.48965 -7.55,-0.54986 -11.30444,-0.85746 -3.66981,-0.22528 -7.42153,-0.50391 -11.04084,-0.73766 z"
         id="path35" /><path
         style="fill:#a7ffa3;fill-opacity:1;stroke:none;stroke-width:0.49113;stroke-linecap:round;stroke-linejoin:round;stroke-dasharray:none;stroke-opacity:1;paint-order:markers stroke fill"
         d="m 247.14211,148.88456 c -5.45678,1.15986 -11.01679,2.13191 -16.43291,3.29673 1.62862,1.14606 2.54479,2.9544 3.04957,4.82152 2.11575,-0.0162 4.64686,0.37808 5.78596,2.41093 1.22207,1.91055 0.58975,4.59112 -1.02923,6.08298 -0.42507,0.68697 -1.62259,1.13649 -1.50967,1.97234 0.66605,2.24682 0.83759,5.2195 -1.21401,6.81964 -0.16195,0.19224 -1.1467,0.67413 -0.32646,0.67392 5.64214,1.08373 12.83992,2.78121 18.50152,3.71205 0.216,-0.35696 -2.13872,-1.16645 -2.26003,-1.47475 -2.06523,-2.40847 -3.14395,-5.46906 -3.62626,-8.56993 -0.82915,-3.79082 -1.37949,-7.64527 -1.32399,-11.53528 0.037,-2.55315 -0.15714,-5.15962 0.30124,-7.67701 0.0188,-0.11135 0.31936,-0.49003 0.0843,-0.53314 z"
         id="path36" /><path
         style="color:#000000;fill:#fcff13;fill-opacity:1;stroke:#000000;stroke-width:0.629348;stroke-linecap:round;stroke-linejoin:round;stroke-dasharray:none;stroke-opacity:1"
         d="m 190.53857,146.72538 c -0.56718,-1.6e-4 -1.13525,0.1095 -1.59027,0.3365 -1.82008,0.90799 -2.11265,2.18577 -2.50756,3.27272 -0.7898,2.17391 -1.15348,4.79993 -1.31523,5.42843 -1.37507,5.34287 -0.64445,9.52516 0.0615,13.78541 0.0127,0.0766 0.0562,0.15938 0.0707,0.23662 -0.4571,0.6195 -0.82945,1.21278 -1.3137,1.8484 -0.37423,0.49119 -0.75196,0.69307 -1.56415,0.79283 -0.81219,0.0998 -1.99559,-0.0399 -3.25429,-0.43175 -0.46672,-0.14531 -0.60259,-0.24487 -0.76671,-0.35647 0.18828,-0.32941 0.46178,-0.61052 0.62842,-0.94802 0.70123,-1.42014 1.20816,-2.90835 1.26453,-4.51728 0.0564,-1.60894 -0.95855,-10.31371 -1.63364,-12.08889 -0.59652,-1.56857 -1.9311,-1.16464 -3.05774,-1.00583 -1.53839,0.21685 -1.75923,3.20783 -1.67277,7.95208 0.0179,0.97993 -1.1137,1.13407 -1.31677,1.6717 -0.0305,-0.72595 0.0106,-1.3728 -0.0507,-2.1096 -0.003,-0.0388 0.01,-0.0143 -0.0323,-0.26121 -0.0105,-0.0617 -0.092,-0.37743 -0.0922,-0.37797 -9e-5,-2.8e-4 0.0702,-1.32361 0.0702,-1.32375 0.0157,-5.60585 -3.54924,-7.0717 -5.03331,-3.44623 -3e-5,8e-5 -0.23626,4.70371 -0.23632,4.70391 -7e-5,1.9e-4 -0.0944,0.33821 -0.1091,0.42099 -0.0294,0.16558 -0.03,0.22126 -0.0338,0.27043 -0.0305,0.39336 -0.01,0.25885 -0.009,0.31805 8.7e-4,0.1184 0.003,0.27043 0.005,0.47631 0.004,0.41178 0.005,1.01258 -0.0138,1.65634 -0.0185,0.64376 -0.058,1.33355 -0.12292,1.87452 -0.0649,0.54098 -0.24243,0.99639 -0.11984,0.74674 -0.66279,1.3498 -3.22497,2.36117 -5.26863,2.09731 -1.50077,-0.19406 -2.87464,0.8654 -3.06841,2.3662 -0.19404,1.50075 0.86541,2.8746 2.3662,3.06837 2.12594,0.27449 4.44748,-0.0337 6.49475,-0.9726 0.003,0.0653 0.002,0.12054 0.005,0.18592 0.0214,0.52361 0.021,1.03074 0.043,1.55339 -0.52523,0.14894 -0.74579,0.2516 -1.3813,0.45481 -1.79401,0.57362 -4.24657,2.00016 -5.1073,4.71549 -1.24016,3.91231 -1.98914,9.24669 1.30909,13.25378 1.84736,2.2444 4.71238,3.18302 7.06479,2.39386 2.35241,-0.78915 3.99141,-3.1116 4.01485,-5.71114 0.0347,-3.84943 -0.16302,-7.63242 -0.31651,-11.4269 0.76117,-0.49368 1.41168,-1.17851 2.09116,-1.8192 0.69985,0.59018 1.48573,1.11382 2.45839,1.41664 1.77202,0.55169 3.64178,0.8722 5.55135,0.63765 1.7359,-0.21323 3.49982,-1.08734 4.8169,-2.54136 1.38366,1.6671 3.28171,3.06245 5.8064,3.71216 1.05469,0.27142 1.61167,0.13553 2.27709,0.0446 0.66541,-0.091 1.33295,-0.23502 1.98207,-0.40256 0.62671,-0.16175 1.21987,-0.34665 1.75467,-0.53777 0.0781,0.055 0.12738,0.13758 0.20743,0.19052 0.89271,0.59043 1.9452,1.05968 3.18054,1.14315 1.23534,0.0835 2.62946,-0.32405 3.68297,-1.16619 1.52405,-1.21828 1.84986,-2.41213 2.23099,-2.95314 0.17523,-0.24874 0.15168,-0.12775 0.15058,-0.15672 0.0545,1.47147 1.26247,2.63665 2.73495,2.63815 1.51304,-0.0152 2.72723,-1.25418 2.71191,-2.76722 -0.0153,-1.57868 -0.69231,-2.94822 -1.58873,-3.88272 -0.89643,-0.93449 -1.96966,-1.57513 -3.41562,-1.64558 -1.926,-0.0938 -3.3865,0.97472 -4.36364,2.00513 1.94788,-7.09326 1.33273,-12.75365 0.81587,-15.48017 -0.3938,-2.07739 -1.39566,-3.74503 -3.46325,-5.01664 -1.0338,-0.63581 -2.66192,-1.05952 -4.18387,-0.46402 -1.21073,0.47372 -2.01414,1.44854 -2.65659,2.56594 -0.20779,-1.5237 -0.63194,-3.03748 -1.66095,-4.4082 -0.49676,-0.66171 -1.04784,-1.26476 -1.94674,-1.69167 -0.44944,-0.21346 -1.01541,-0.32404 -1.58258,-0.32421 z"
         id="path12" /><path
         style="color:#000000;fill:#fff967;fill-opacity:1;stroke:#000000;stroke-width:1.97428;stroke-linecap:round;stroke-linejoin:round;stroke-opacity:1;-inkscape-stroke:none;paint-order:markers stroke fill"
         d="m 228.51874,152.7912 c -1.27688,0.0211 -2.0467,0.65446 -2.47194,1.07018 -0.42526,0.41571 -0.64677,0.7622 -0.84367,1.08919 -0.39381,0.65401 -0.6492,1.25347 -0.89524,1.82592 -0.16603,0.38627 -0.28994,0.66916 -0.42113,0.96858 -0.33292,0.0365 -0.65248,0.0744 -1.08094,0.11984 -0.62144,0.0659 -1.27525,0.13228 -2.01894,0.31936 -0.37185,0.0936 -0.76805,0.20298 -1.28688,0.48753 -0.51882,0.28455 -1.32277,0.82574 -1.72751,1.99624 -0.43687,1.26348 -0.0345,2.31498 0.26317,2.87228 0.29776,0.5573 0.58342,0.86819 0.85451,1.15205 0.54218,0.56773 1.06876,0.97674 1.56821,1.37229 0.22953,0.18183 0.36907,0.29576 0.56893,0.45444 -0.0938,0.25437 -0.15992,0.44433 -0.26837,0.73751 -0.2239,0.60508 -0.46182,1.23318 -0.63129,1.99888 -0.0847,0.38286 -0.16861,0.79153 -0.13465,1.42602 0.034,0.63452 0.23922,1.78213 1.32571,2.63796 1.1636,0.9166 2.41111,0.77455 3.0399,0.6236 0.62879,-0.15103 1.00148,-0.35065 1.35134,-0.54388 0.69971,-0.38644 1.2608,-0.80582 1.80835,-1.20985 0.26423,-0.19487 0.43866,-0.32156 0.67068,-0.49221 0.21958,0.17393 0.38082,0.29596 0.6308,0.49513 0.53316,0.42476 1.08319,0.86846 1.76912,1.28391 0.34295,0.20772 0.71022,0.42072 1.31805,0.59777 0.60782,0.1771 1.76396,0.3923 2.97567,-0.40056 1.10965,-0.72606 1.4622,-1.84672 1.55753,-2.49162 0.0954,-0.6449 0.0387,-1.073 -0.0158,-1.46622 -0.10996,-0.7864 -0.30204,-1.42409 -0.48383,-2.03851 -0.11096,-0.37525 -0.18756,-0.64039 -0.27772,-0.94621 0.24224,-0.2136 0.45074,-0.40013 0.75168,-0.66239 0.48836,-0.42558 0.99838,-0.87139 1.51112,-1.44944 0.25638,-0.28901 0.52318,-0.60322 0.79439,-1.11946 0.27119,-0.51623 0.66975,-1.39149 0.33883,-2.64554 -0.3412,-1.29291 -1.35478,-2.01199 -1.96388,-2.29591 -0.60911,-0.28392 -1.04412,-0.34887 -1.43951,-0.40449 -0.79078,-0.11115 -1.45171,-0.0993 -2.0882,-0.0924 -0.26013,0.002 -0.41716,0.004 -0.65003,0.006 -0.0671,-0.23547 -0.11412,-0.39154 -0.18874,-0.65627 -0.17848,-0.63179 -0.3609,-1.2884 -0.67544,-2.01683 -0.15736,-0.36421 -0.32651,-0.75191 -0.7406,-1.25947 -0.41408,-0.50755 -1.34782,-1.36761 -2.79315,-1.3436 z m -0.42038,9.72459 c 0.1844,0.33002 0.28265,0.64689 0.93326,1.08277 0.5885,0.39425 0.65935,0.17098 1.01228,0.26606 -0.25208,0.3008 -0.49964,0.23713 -0.73197,1.08267 -0.0495,0.18065 0.0458,0.12873 0.0138,0.28136 -0.3092,-0.12517 -0.46974,-0.29617 -1.10378,-0.29241 -0.40136,0.002 -0.45273,0.11944 -0.69959,0.18123 -0.0312,-0.15616 0.0198,-0.18538 -0.0304,-0.36893 -0.20706,-0.76943 -0.44244,-1.08949 -0.67629,-1.40099 0.30491,-0.11016 0.39119,0.0434 0.87113,-0.29399 0.3594,-0.25269 0.21188,-0.33413 0.41085,-0.53775 z"
         id="path3-4" /><path
         style="fill:#fcff13;fill-opacity:1;stroke:#1e1f00;stroke-width:1.11547;stroke-linecap:round;stroke-linejoin:round;stroke-dasharray:none;stroke-opacity:1;paint-order:markers stroke fill"
         id="path1-3"
         d="m 233.17747,171.06248 c -0.7692,0.50331 -4.00466,-3.00464 -4.93195,-2.99914 -0.92729,0.005 -4.28641,3.36063 -4.9906,2.80593 -0.70419,-0.55471 1.46389,-4.41772 1.22489,-5.30578 -0.23899,-0.88806 -4.05093,-3.00708 -3.75201,-3.87158 0.29892,-0.86449 4.40607,-0.65682 5.1661,-1.19118 0.76003,-0.53436 1.78319,-4.56868 2.68085,-4.58358 0.89768,-0.0149 1.43268,4.57451 2.19766,5.08701 0.76498,0.51251 5.03264,-0.23955 5.26737,0.64991 0.23472,0.88946 -3.46714,3.22885 -3.71254,4.12193 -0.2454,0.89307 1.61944,4.78318 0.85023,5.28648 z" /><path
         style="fill:none;fill-opacity:1;stroke:#000000;stroke-width:0.601813;stroke-linecap:butt;stroke-linejoin:miter;stroke-dasharray:none;stroke-opacity:1"
         d="m 161.17223,171.14409 c 3.02495,0.39056 6.70162,-0.80075 8.0792,-3.60626 0.71561,-1.45737 0.49699,-6.53047 0.53783,-6.03967 0.31579,3.79487 0.11301,7.64525 0.26919,11.46467 0.22817,5.57962 0.51682,11.17076 0.46652,16.7477 -0.0277,3.07024 -3.62204,4.76378 -6.22556,1.6007 -2.28523,-2.77637 -1.90154,-7.24849 -0.81228,-10.68479 1.11375,-3.51352 5.14728,-2.80644 7.8528,-4.50769 3.99957,-2.51495 8.11488,-9.40156 5.18699,-11.95252 -1.77053,-1.54259 -1.92302,2.62582 -1.76156,3.43716 0.51039,2.56473 -0.59178,6.39809 3.54602,7.68633 3.03073,0.94357 6.10612,0.92246 7.81166,-1.31616 2.55568,-3.35448 5.2486,-6.77289 6.01626,-10.79592 0.71656,-3.75524 2.07412,-8.9996 -0.26276,-12.11249 -2.70724,-3.60625 -3.55366,3.94378 -4.09839,6.06033 -1.23667,4.80516 -0.59792,8.37522 0.11119,12.65482 0.46206,2.7886 2.47121,6.25221 6.46489,7.27996 1.08929,0.28032 4.82805,-0.81239 5.38642,-1.26243 0.76553,-0.61701 2.40243,-2.7168 2.8123,-4.18996 1.84939,-6.64715 1.25471,-11.89296 0.78815,-14.35414 -0.38361,-2.02365 -3.62669,-5.99798 -5.62436,-1.47932 -2.35763,5.33289 -1.71238,11.91943 0.73813,17.33101 1.30499,2.88188 4.36099,5.52218 6.59062,3.73988 1.32286,-1.05745 1.74832,-4.01952 4.40186,-3.89023 1.01001,0.0492 2.38206,1.16046 2.39817,2.81907"
         id="path5" /><circle
         style="fill:#000000;fill-opacity:1;stroke:none;stroke-width:0.468077;stroke-linecap:round;stroke-linejoin:round;stroke-dasharray:none;paint-order:markers stroke fill"
         id="path6"
         cx="169.72224"
         cy="155.7538"
         r="0.51512891" /><circle
         style="fill:#060606;fill-opacity:1;stroke:none;stroke-width:0.468077;stroke-linecap:round;stroke-linejoin:round;stroke-dasharray:none;paint-order:markers stroke fill"
         id="circle8"
         cx="176.53487"
         cy="155.90099"
         r="0.51512891" /><path
         id="path21"
         style="color:#000000;fill:#fffcbb;fill-opacity:1;stroke:#000000;stroke-width:0.62856;stroke-linecap:round;stroke-linejoin:round;stroke-dasharray:none;stroke-opacity:1"
         d="m 274.57336,147.59473 -24.23733,0.15001 c -1.81591,0.0112 -3.28239,1.48589 -3.28354,3.30183 l -0.004,7.01346 c 0.10816,4.28646 0.99372,8.57291 1.84972,12.85937 0.8023,2.88394 3.17243,8.09755 6.9579,8.08545 l 26.70198,-0.0854 h 8.92863 13.36915 8.92781 l 15.29367,0.16465 c 1.82448,-5.2e-4 3.30321,-1.47979 3.30306,-3.30428 v -6.43253 l 4.70314,-8.17329 c 1.26723,-2.20285 -0.32307,-4.9519 -2.8644,-4.95154 h -5.44507 l -25.47197,0.23701 h -10.48022 -11.81662 l -3.12499,-0.0216 0.0162,-5.55721 c -0.01,-1.82545 -1.49834,-3.29694 -3.32379,-3.28598 z" /><g
         id="g16"
         style="fill:#fcff13;fill-opacity:1;stroke-width:0.999455;stroke-dasharray:none"
         transform="matrix(0.62890332,0,0,0.62890332,171.83098,122.40062)"><path
           style="fill:#fcff13;fill-opacity:1;stroke:#000000;stroke-width:0.999455;stroke-linecap:round;stroke-linejoin:round;stroke-dasharray:none;stroke-opacity:1"
           d="m 163.39909,45.313774 -38.53912,0.238375 -0.006,11.151112 21.04072,-0.193213 0.0506,14.063504 c -0.0453,2.792168 0.30454,5.230295 -2.21515,6.386277 -1.40712,0.645566 -4.13967,0.344911 -5.71018,-1.406025 -1.5527,-1.731036 -2.13218,-2.613047 -2.41199,-12.804873 -0.008,-0.314014 -10.48107,-0.338627 -10.48728,0.0059 -0.15256,8.457948 3.341,17.892314 8.66635,20.105176 8.52189,3.541147 18.2327,0.775918 19.06208,-5.037106 0.54639,-3.829535 -0.0282,-15.656331 -0.62361,-21.460278 -0.0153,-0.148704 11.23289,-0.05566 11.23289,-0.05566 z"
           id="path8" /><path
           id="rect13"
           style="fill:#fcff13;fill-opacity:1;stroke:#000000;stroke-width:1.87507;stroke-linecap:round;stroke-linejoin:round;stroke-dasharray:none;paint-order:markers stroke fill"
           d="m 156.91871,59.142277 6.90152,-0.115167 0.11517,25.443339 h -7.36219 z" /><path
           style="fill:#fcff13;fill-opacity:1;stroke:#000000;stroke-width:0.999455;stroke-linecap:round;stroke-linejoin:round;stroke-dasharray:none;stroke-opacity:1"
           d="m 173.52865,59.409696 -5.62381,25.207336 h 8.16004 l 4.52111,-16.38567 2.09514,7.057333 2.75677,-6.726521 4.82343,16.053875 h 8.40907 L 192.38496,59.409697 H 184.666 l -1.10271,2.6465 -1.32324,-2.53623 z"
           id="path13" /><path
           style="fill:#fcff13;fill-opacity:1;stroke:#000000;stroke-width:0.999455;stroke-linecap:round;stroke-linejoin:round;stroke-dasharray:none;stroke-opacity:1"
           d="m 208.98304,59.409696 -5.62381,25.207336 h 8.16004 l 4.52111,-16.38567 2.09514,7.057333 2.75677,-6.726521 4.82343,16.053875 h 8.40907 l -6.28544,-25.206352 h -7.71896 l -1.10271,2.6465 -1.32324,-2.53623 z"
           id="path14" /><path
           style="fill:#fcff13;fill-opacity:1;stroke:#000000;stroke-width:0.999455;stroke-linecap:round;stroke-linejoin:round;stroke-dasharray:none;stroke-opacity:1"
           d="m 231.95146,59.080457 h 7.83133 l 4.95216,8.291994 4.81522,-8.340201 h 8.65927 l -8.17682,14.213697 v 11.631824 h -9.8795 V 73.084115 Z"
           id="path15" /></g><path
         style="fill:#ffffff;fill-opacity:1;stroke:#000000;stroke-width:0.608115;stroke-linecap:butt;stroke-linejoin:miter;stroke-dasharray:none;stroke-opacity:1"
         d="m 231.62553,174.60652 23.49043,4.33609"
         id="path30" /><path
         style="fill:#ffffff;fill-opacity:1;stroke:#000000;stroke-width:0.608115;stroke-linecap:butt;stroke-linejoin:miter;stroke-dasharray:none;stroke-opacity:1"
         d="m 250.1406,147.93803 -21.57261,4.24658"
         id="path31" /><path
         style="fill:#ffffff;fill-opacity:1;stroke:#000000;stroke-width:0.699561;stroke-linecap:butt;stroke-linejoin:miter;stroke-dasharray:none;stroke-opacity:1"
         d="m 200.88033,150.48598 28.19725,1.86849"
         id="path32" /></g></g></svg>
