<?xml version="1.0" encoding="UTF-8" standalone="no"?>
<!-- Created with Inkscape (http://www.inkscape.org/) -->

<svg
   width="188.80905mm"
   height="154.26018mm"
   viewBox="0 0 188.80905 154.26018"
   version="1.1"
   id="svg1"
   xml:space="preserve"
   xmlns="http://www.w3.org/2000/svg"
   xmlns:svg="http://www.w3.org/2000/svg"><defs
     id="defs1" /><g
     id="layer1"
     transform="translate(-10.332827,-71.257365)"><path
       id="path341"
       style="fill:#2eff3f;fill-opacity:1;fill-rule:evenodd;stroke:none;stroke-width:6.71689;stroke-linejoin:round;stroke-dasharray:none;stroke-opacity:1"
       d="m 154.43859,71.46632 c -1.51346,-0.205477 -3.05435,-0.262743 -4.60036,-0.156975 -9.60468,0.656982 -18.72801,11.298168 -21.92877,21.827246 C 118.85467,91.901159 109.23902,91.59079 99.241805,92.274518 88.519709,93.008731 78.443445,94.688745 69.181996,97.234482 64.072417,88.324463 54.607208,80.684749 45.871007,81.282263 33.492789,82.12714 22.91657,93.272171 23.76852,105.67146 c 0.284155,4.18246 1.931383,9.08809 4.459393,13.72153 -12.433135,12.33356 -19.0611093,28.54192 -17.725878,48.10085 3.036981,44.37551 46.007751,61.21585 99.857165,57.533 53.84733,-3.68261 91.65123,-22.65592 88.61173,-67.03188 l 0.005,-0.001 c -1.42176,-20.80982 -11.60159,-37.36368 -27.5652,-48.69818 2.58472,-5.71718 3.9865,-11.905451 3.64778,-16.843311 C 174.31305,81.603112 165.03221,72.90432 154.438,71.465946 Z" /></g><g
     id="layer1-2"
     transform="matrix(6.8878908,0,0,6.8878908,48.321861,37.735685)"
     style="stroke:none"><path
       style="color:#000000;fill:#f3fa00;fill-opacity:1;stroke:none;stroke-linecap:round;stroke-linejoin:round;stroke-opacity:1;-inkscape-stroke:none;paint-order:markers stroke fill"
       d="M 6.683913,1.182472 C 6.037145,1.193212 5.647234,1.513963 5.431839,1.7245272 5.216444,1.9350912 5.104242,2.1105884 5.004509,2.2762174 c -0.199465,0.331259 -0.328825,0.634903 -0.453446,0.924851 -0.08409,0.195656 -0.146859,0.338937 -0.213315,0.490602 -0.168624,0.01853 -0.330483,0.03769 -0.547512,0.06071 -0.314767,0.03338 -0.645921,0.06698 -1.02262,0.161761 -0.18835,0.04739 -0.389028,0.102813 -0.651815,0.246943 -0.262788,0.14413 -0.670003,0.418244 -0.875006,1.011118 -0.221286,0.639967 -0.01754,1.172563 0.133292,1.454846 0.150827,0.282283 0.295517,0.439753 0.432827,0.583534 0.274621,0.287562 0.541341,0.494729 0.794314,0.695082 0.116261,0.09208 0.186942,0.149808 0.288169,0.230173 -0.0475,0.128846 -0.08097,0.225059 -0.135927,0.373561 -0.113414,0.30648 -0.233919,0.624625 -0.319762,1.012462 -0.04292,0.193919 -0.08538,0.400916 -0.0682,0.7223046 0.01718,0.321388 0.121169,0.902665 0.671488,1.336158 0.589383,0.464263 1.221266,0.39232 1.539755,0.315858 0.318486,-0.07647 0.507262,-0.177613 0.684467,-0.275483 0.354409,-0.19574 0.638609,-0.40816 0.915957,-0.612809 0.133833,-0.09875 0.222187,-0.162868 0.339709,-0.249312 0.111214,0.08807 0.192884,0.149914 0.319509,0.250798 0.270046,0.215149 0.548646,0.439884 0.896076,0.650314 0.173715,0.105215 0.359743,0.213103 0.667612,0.302783 0.307869,0.08968 0.89347,0.198699 1.507222,-0.202889 0.562052,-0.36776 0.74062,-0.935388 0.788909,-1.262039 0.04829,-0.32665 0.01961,-0.5434976 -0.0082,-0.7426596 -0.05568,-0.398325 -0.15299,-0.721322 -0.245067,-1.03253 -0.05624,-0.190077 -0.09502,-0.32437 -0.140671,-0.479271 0.122698,-0.10819 0.228304,-0.202676 0.380733,-0.335511 0.247364,-0.215566 0.505694,-0.441376 0.765406,-0.734159 0.129857,-0.146392 0.265002,-0.30554 0.402366,-0.567024 0.137364,-0.261484 0.339243,-0.704811 0.17162,-1.339999 -0.172819,-0.654876 -0.686208,-1.019105 -0.99473,-1.162914 -0.308522,-0.14381 -0.528856,-0.17671 -0.729126,-0.204872 -0.400541,-0.05632 -0.735316,-0.05028 -1.057704,-0.04683 -0.131758,0.0014 -0.211297,0.0016 -0.329247,0.0031 C 8.877562,3.7355964 8.853832,3.6565514 8.815962,3.5224564 8.725592,3.2024454 8.633162,2.8698744 8.473838,2.5009114 8.394178,2.3164294 8.308463,2.1200614 8.098723,1.8629733 7.888983,1.6058852 7.416032,1.1702615 6.683949,1.182418 Z"
       id="path3" /></g></svg>
