<?xml version="1.0" encoding="UTF-8" standalone="no"?>
<!-- Created with Inkscape (http://www.inkscape.org/) -->

<svg
   width="297mm"
   height="210mm"
   viewBox="0 0 297 210"
   version="1.1"
   id="svg1"
   xmlns="http://www.w3.org/2000/svg"
   xmlns:svg="http://www.w3.org/2000/svg">
  <defs
     id="defs1" />
  <g
     id="layer1">
    <path
       id="path95"
       style="fill:#c9c9c9;fill-opacity:1;stroke:#010101;stroke-width:1.182;stroke-linecap:round;stroke-linejoin:round;stroke-dasharray:none;stroke-opacity:1"
       d="m 146.8782,72.60668 c 0,8.563508 -0.89104,13.338651 -9.03662,13.338651 -8.14557,0 -12.98896,-4.012036 -12.98896,-12.575544 0,-8.563507 2.47928,-13.828126 10.62486,-13.828126 8.14557,-10e-7 11.40072,4.501512 11.40072,13.065019 z" />
    <path
       style="fill:#00ff00;fill-opacity:1;stroke:none;stroke-width:3.02679;stroke-linecap:round;stroke-linejoin:round;paint-order:markers stroke fill"
       d="m 67.957911,43.44194 c 0.247173,8.71377 1.030319,17.40614 1.453045,26.113658 0.860436,9.000677 2.114589,18.087384 0.870171,27.115715 -0.318439,3.593577 -1.637633,9.371587 -2.131621,12.923677 0.481461,0.69725 1.894377,-2.82906 2.5591,-2.66515 3.754244,-0.5171 7.824859,0.36538 10.87973,2.66174 4.746945,3.57904 6.486576,9.72282 7.038342,15.37493 0.398361,3.02956 -0.310892,6.0627 -2.041462,8.59944 -3.005569,4.69763 -8.384075,4.49697 -13.983824,5.5256 -1.863434,0.27019 -4.041466,-2.52446 -5.457069,-3.59409 -0.354185,2.03894 1.266078,10.49509 1.196088,12.70358 0.341123,5.50925 -0.850682,11.08652 -3.506812,15.92607 0.282835,0.79011 1.451013,-0.51154 1.977016,-0.48236 16.283857,-7.32504 36.114045,-15.58846 52.333265,-23.02982 -0.22365,-0.67376 -3.59634,-2.57464 -4.07312,-3.16464 -4.15051,-2.79687 -6.93544,-5.42729 -6.14744,-10.18972 0.29227,-2.61126 1.29812,-5.09441 2.09489,-7.54291 -4.45613,-3.3778 -9.01529,-7.96407 -9.02683,-13.94125 -0.25114,-6.113417 4.74204,-11.46703 10.53957,-12.746827 2.58959,-0.720881 7.55836,1.320473 10.17545,0.822297 1.8972,-4.318227 1.65301,-11.203659 5.7342,-13.909107 1.02105,-0.808543 4.34524,0.133528 5.37896,-0.628971 -2.19694,-1.552913 -6.86797,-3.95721 -9.23936,-5.357619 C 105.77317,63.726465 86.982839,53.462614 68.105676,43.363361 Z"
       id="path4" />
    <path
       style="fill:#00ff00;fill-opacity:1;stroke:none;stroke-width:7.5292;stroke-linecap:round;stroke-linejoin:round;paint-order:markers stroke fill"
       d="m 164.38162,66.180531 c -5.36787,3.165896 -21.96168,9.732407 -26.55388,13.963897 0.0717,2.702759 6.78345,1.150718 5.99204,3.361472 1.05215,3.095904 2.48194,7.243389 4.27348,9.915537 4.9366,1.273595 11.53827,-0.865617 15.19426,3.368091 4.93305,4.725532 4.46966,12.811472 -0.0246,17.662962 -1.54172,2.49663 -7.52974,3.19048 -8.1377,5.83053 2.53762,6.95951 3.4523,17.8215 -3.90722,21.76725 -1.03055,1.94749 8.06409,2.32228 10.32449,3.63689 11.91348,3.41057 29.35545,9.80605 41.29625,12.66148 -1.7409,-3.87038 -7.78288,-10.4777 -9.63115,-14.42509 -8.66324,-14.29233 -11.80343,-30.03026 -11.68819,-46.184506 -0.27238,-13.268417 -0.26445,-26.766668 -0.87503,-39.884739 l -16.26276,8.326226 z"
       id="path2" />
    <path
       style="fill:#00ff00;fill-opacity:1;stroke:#000000;stroke-width:1.73847;stroke-linecap:round;stroke-linejoin:round;stroke-dasharray:none;stroke-opacity:1"
       d="m 182.49111,56.862305 -47.42157,24.32072"
       id="path82" />
    <path
       style="fill:#00ff00;fill-opacity:1;stroke:#000000;stroke-width:1.73847;stroke-linecap:round;stroke-linejoin:round;stroke-dasharray:none;stroke-opacity:1"
       d="m 57.45497,37.163065 81.9934,44.33541"
       id="path79" />
    <path
       style="fill:#00ff00;fill-opacity:1;stroke:#000000;stroke-width:1.73847;stroke-linecap:round;stroke-linejoin:round;stroke-dasharray:none;stroke-opacity:1"
       d="M 215.76295,162.56227 140.70041,139.46118"
       id="path81" />
    <path
       style="fill:#00ff00;fill-opacity:1;stroke:#000000;stroke-width:1.73847;stroke-linecap:round;stroke-linejoin:round;stroke-dasharray:none;stroke-opacity:1"
       d="M 47.184011,172.81869 121.64625,139.36088"
       id="path80" />
    <g
       id="g65"
       style="fill:#55ff00;fill-opacity:1;stroke:none"
       transform="translate(-120.49217,-36.270839)" />
    <path
       style="fill:#f0f0f0;fill-opacity:1;stroke:#000000;stroke-width:1.95004;stroke-linecap:round;stroke-linejoin:round;stroke-dasharray:none;stroke-opacity:1"
       d="m 51.721297,116.24413 c 0,0 -8.677164,-2.21718 -13.120282,-2.4867 -2.614799,-0.15855 -5.302128,-0.12337 -7.841635,0.5194 -3.548449,0.89825 -7.250776,2.13875 -9.982774,4.57483 -1.473289,1.31371 -2.206089,3.28958 -3.06543,5.06664 -1.240331,2.56493 -2.209681,5.26751 -2.984867,8.00911 -0.736601,2.60513 -1.234754,5.28227 -1.568754,7.96884 -0.419661,3.37564 -1.05342,6.82778 -0.540584,10.19051 0.471757,3.09338 1.811652,6.03078 3.26894,8.79987 1.401601,2.66327 2.859508,5.48675 5.195959,7.38372 3.524218,2.86131 8.071618,4.42841 12.509738,5.38253 5.906347,1.26977 12.192566,1.47285 18.121205,0.31162 2.769401,-0.54244 5.543316,-1.61326 7.784401,-3.3283 2.41403,-1.84739 4.253768,-4.45764 5.651754,-7.15691 1.34057,-2.58843 2.06087,-5.50149 2.4782,-8.38645 0.54085,-3.73881 0,-7.55543 0,-11.33316 0,-1.04655 -0.0368,-3.02866 0,-3.13965 0,0 2.71659,2.88808 4.54302,3.24775 1.76883,0.34833 3.62264,-0.49617 5.2638,-1.24229 1.83586,-0.83464 3.51417,-2.07573 4.91825,-3.52333 2.1497,-2.21634 4.20939,-4.75415 5.16204,-7.69112 0.59037,-1.82009 0.44908,-3.83839 0.20775,-5.73653 -0.39137,-3.07829 -1.25361,-6.1538 -2.65416,-8.92281 -0.70014,-1.38425 -1.66659,-2.66021 -2.80679,-3.71201 -0.99925,-0.92177 -2.16576,-1.71785 -3.44066,-2.18989 -2.34845,-0.86954 -4.97883,-1.54601 -7.43673,-1.06633 -1.05334,0.20546 -2.01886,0.86652 -2.78136,1.62175 -0.84044,0.83245 -1.81678,3.04846 -1.81678,3.04846 3.12461,-13.348755 3.88438,-21.422515 3.17873,-29.244625 0.13586,-4.16593 -1.26298,-10.66813 -1.35771,-14.83518 -0.10859,-4.77735 -0.35192,-9.55717 -0.83101,-14.31168 -0.45086,-4.47431 0.5088,-9.56925 -1.92067,-13.35347 -1.078008,-1.67916 -3.11842,-2.67827 -5.032721,-3.24138 -1.031121,-0.30332 -2.153019,-0.0854 -3.224421,0 -1.057307,0.0844 -2.19772,0.0204 -3.141744,0.50454 -1.658823,0.8497 -3.053398,2.32557 -3.945197,3.96215 -1.174876,2.15606 -1.305781,4.75591 -1.568754,7.19718 -0.273666,2.54054 -0.124216,5.1135 0,7.66571 0.443944,9.12122 2.026483,18.15662 2.66052,27.2666 0.294188,4.22698 0.361713,8.46668 0.529986,12.70054 0.107825,2.71331 0.34207,5.425315 0.307382,8.140535 -0.04838,3.78711 -0.718642,11.33953 -0.718642,11.33953 z"
       id="path5" />
    <path
       style="fill:none;stroke:#000000;stroke-width:1.95004;stroke-linecap:round;stroke-linejoin:round;stroke-dasharray:none;stroke-opacity:1"
       d="m 59.551367,61.885075 c 0,0 2.56043,51.683115 0.343212,77.381875 -0.482313,5.59026 -0.397984,11.57774 -2.956696,16.57139 -1.50166,2.9307 -3.909138,5.66942 -6.8804,7.08911 -3.333769,1.5929 -7.388902,1.58594 -11.038318,1.00878 -3.741235,-0.5917 -7.550837,-2.03174 -10.444666,-4.47564 -2.230789,-1.88396 -3.974432,-4.54523 -4.749264,-7.36043 -0.77238,-2.80628 -1.174025,-5.69963 -0.549152,-8.54242 0.976104,-4.44063 1.814456,-6.48876 3.452514,-9.12353 1.461754,-2.35119 3.713158,-4.25466 6.13137,-5.60265 2.184937,-1.21793 4.719043,-1.96229 7.218971,-2.04998 4.839965,-0.16977 9.518093,1.81944 14.219952,2.9799 2.540647,0.62703 4.941916,1.94256 7.550587,2.14967 2.721596,0.21616 5.542561,-0.10833 8.132641,-0.97163 2.02659,-0.67545 4.25503,-1.50824 5.54699,-3.20946 0.802,-1.05606 0.97699,-2.52588 0.99484,-3.85183 0.0184,-1.36009 -0.34066,-2.74342 -0.91367,-3.97704 -0.36725,-0.79065 -1.56995,-2.09172 -1.56995,-2.09172"
       id="path1" />
    <circle
       style="fill:#000000;fill-opacity:1;stroke:none;stroke-width:0.765999;stroke-linecap:round;stroke-linejoin:round;stroke-dasharray:none;stroke-opacity:1"
       id="path3"
       cx="56.947269"
       cy="46.371597"
       r="1.0333859" />
    <path
       style="fill:#f0f0f0;fill-opacity:1;stroke:#000000;stroke-width:1.73847;stroke-linecap:round;stroke-linejoin:round;stroke-dasharray:none;stroke-opacity:1"
       d="m 284.49501,57.292025 c 0.0836,1.31023 -103.17181,-1.83966 -103.10602,-0.25605 0.78644,18.9333 1.05083,61.682905 1.05083,61.682905 0.97573,9.03812 8.39662,59.14745 63.99573,40.54672 19.62851,-6.56675 17.81347,-27.27821 17.84793,-32.5399 0.0204,-5.03896 -0.57836,-25.30547 -0.57836,-25.30547 0,0 15.24762,0.18327 20.97814,0.0581 z"
       id="path9" />
    <path
       style="fill:none;fill-opacity:1;stroke:#000000;stroke-width:1.73847;stroke-linecap:round;stroke-linejoin:round;stroke-dasharray:none;stroke-opacity:1"
       d="m 275.27404,65.127675 -83.66158,0.51747 -0.0127,24.20708 45.67567,-0.41943 0.10986,30.529365 c -0.0984,6.0613 0.6611,11.35404 -4.8087,13.86347 -3.05461,1.40141 -8.98648,0.74874 -12.39579,-3.05223 -3.37062,-3.75777 -4.62858,-5.67246 -5.236,-27.7971 -0.0179,-0.68167 -22.75253,-0.7351 -22.76601,0.0128 -0.33118,18.3607 7.25272,38.84103 18.81311,43.64476 18.4995,7.6872 39.57993,1.68438 41.38037,-10.93466 1.18611,-8.31324 -0.0612,-33.98711 -1.35374,-46.586445 -0.0331,-0.32281 24.3846,-0.12082 24.3846,-0.12082 z"
       id="path8" />
    <g
       id="g95"
       transform="rotate(-8.7504527,-657.45865,176.77674)">
      <path
         id="path87"
         style="fill:#f0f0f0;stroke:#010101;stroke-width:1.22824;stroke-linecap:round;stroke-linejoin:round"
         d="m 158.62541,158.22192 c -3.12555,0 -4.99038,3.78247 -6.18654,6.60824 -0.0203,0.048 -0.0358,0.0987 -0.048,0.15054 -2.60185,-0.58328 -5.63731,-0.89933 -9.10759,-0.89933 -2.66885,0 -5.01368,0.23428 -7.06459,0.65972 -1.19783,-2.81313 -3.05336,-6.49867 -6.13924,-6.49867 -3.12555,0 -5.65924,2.47989 -5.65924,5.53864 0,2.28777 1.03703,4.68727 2.4058,6.03566 -2.51504,2.36896 -2.58315,4.32839 -2.58315,7.55756 0,7.04645 7.33624,13.06117 21.17722,13.06117 13.84098,0 18.65199,-7.71694 18.65199,-14.76341 0,-2.82548 0.40982,-4.51641 -1.81897,-6.49586 1.36283,-1.39963 2.03163,-3.04882 2.03163,-5.4156 0,-3.05875 -2.53369,-5.53866 -5.65924,-5.53866 z" />
      <path
         style="fill:#f0f0f0;fill-opacity:1;stroke:#010101;stroke-width:1.04022;stroke-linecap:round;stroke-linejoin:round;stroke-dasharray:none;stroke-opacity:1"
         d="m 129.84902,161.92753 1.30203,5.3"
         id="path88" />
      <path
         style="fill:#f0f0f0;fill-opacity:1;stroke:#010101;stroke-width:1.04022;stroke-linecap:round;stroke-linejoin:round;stroke-dasharray:none;stroke-opacity:1"
         d="m 158.84396,161.80658 -1.29202,5.80202"
         id="path89" />
      <path
         style="fill:#f0f0f0;fill-opacity:1;stroke:#010101;stroke-width:1.04022;stroke-linecap:round;stroke-linejoin:round;stroke-dasharray:none;stroke-opacity:1"
         d="m 142.31036,165.68055 c 0.002,-0.13743 1.02021,1.67779 2.80086,0.16586"
         id="path90" />
      <circle
         style="fill:#000000;fill-opacity:1;stroke:none;stroke-width:0.480228;stroke-linecap:round;stroke-linejoin:round;stroke-dasharray:none;stroke-opacity:1"
         id="path91"
         cx="130.16843"
         cy="183.80582"
         r="0.47557959" />
      <circle
         style="fill:#000000;fill-opacity:1;stroke:none;stroke-width:0.480228;stroke-linecap:round;stroke-linejoin:round;stroke-dasharray:none;stroke-opacity:1"
         id="circle91"
         cx="132.10435"
         cy="184.76688"
         r="0.47557959" />
      <circle
         style="fill:#000000;fill-opacity:1;stroke:none;stroke-width:0.480228;stroke-linecap:round;stroke-linejoin:round;stroke-dasharray:none;stroke-opacity:1"
         id="circle92"
         cx="131.47403"
         cy="182.75746"
         r="0.47557959" />
      <circle
         style="fill:#000000;fill-opacity:1;stroke:none;stroke-width:0.480228;stroke-linecap:round;stroke-linejoin:round;stroke-dasharray:none;stroke-opacity:1"
         id="circle93"
         cx="157.20506"
         cy="184.31917"
         r="0.47557959" />
      <circle
         style="fill:#000000;fill-opacity:1;stroke:none;stroke-width:0.480228;stroke-linecap:round;stroke-linejoin:round;stroke-dasharray:none;stroke-opacity:1"
         id="circle94"
         cx="155.43977"
         cy="183.48386"
         r="0.47557959" />
      <circle
         style="fill:#000000;fill-opacity:1;stroke:none;stroke-width:0.480228;stroke-linecap:round;stroke-linejoin:round;stroke-dasharray:none;stroke-opacity:1"
         id="circle95"
         cx="155.06116"
         cy="185.59827"
         r="0.47557959" />
    </g>
    <g
       id="g1"
       transform="translate(-4.907244,-79.742711)">
      <path
         style="color:#000000;fill:#ffff00;fill-opacity:1;stroke:#000000;stroke-width:5.44795;stroke-linecap:round;stroke-linejoin:round;stroke-opacity:1;-inkscape-stroke:none;paint-order:markers stroke fill"
         d="m 139.70288,160.49954 c -3.52351,0.0583 -5.64778,1.80594 -6.82121,2.95311 -1.17349,1.14712 -1.78475,2.10324 -2.32807,3.00558 -1.08671,1.80469 -1.79145,3.4589 -2.47038,5.03854 -0.45817,1.06589 -0.80008,1.84653 -1.1621,2.67276 -0.91869,0.10079 -1.80049,0.20539 -2.98281,0.33069 -1.71485,0.18196 -3.51899,0.36501 -5.57118,0.88126 -1.02612,0.25823 -2.11941,0.56011 -3.55108,1.34532 -1.43167,0.78521 -3.65013,2.2786 -4.76701,5.50853 -1.20552,3.48652 -0.0953,6.3881 0.72621,7.92595 0.82166,1.53785 1.60992,2.39574 2.35798,3.17904 1.49612,1.56661 2.9492,2.69527 4.32742,3.78676 0.63338,0.50176 1.01844,0.81616 1.56993,1.25401 -0.25877,0.70192 -0.44128,1.22612 -0.74054,2.03514 -0.61785,1.66969 -1.27438,3.4029 -1.74203,5.51583 -0.23372,1.05647 -0.46526,2.18419 -0.37155,3.93505 0.0937,1.75092 0.66012,4.9177 3.65824,7.27934 3.21091,2.52932 6.65336,2.13734 8.38848,1.72079 1.73512,-0.41677 2.76353,-0.96761 3.72896,-1.50081 1.93081,-1.06638 3.47912,-2.22363 4.99005,-3.33855 0.72915,-0.53772 1.21048,-0.88731 1.85072,-1.35823 0.60592,0.47996 1.05086,0.8167 1.74068,1.36629 1.47122,1.17213 2.98901,2.3965 4.8818,3.54291 0.94636,0.57318 1.95984,1.16096 3.6371,1.64953 1.67726,0.48868 4.86758,1.08251 8.21126,-1.10533 3.06202,-2.00354 4.03486,-5.09596 4.29794,-6.87553 0.26314,-1.77958 0.10678,-2.96091 -0.0436,-4.04598 -0.30345,-2.17003 -0.83348,-3.92971 -1.33513,-5.62517 -0.30617,-1.03549 -0.51755,-1.76715 -0.76636,-2.61104 0.66846,-0.58941 1.24382,-1.10414 2.07425,-1.82784 1.3476,-1.17436 2.75497,-2.40456 4.16986,-3.99967 0.70747,-0.79752 1.44371,-1.66456 2.19209,-3.08909 0.74833,-1.42453 1.84816,-3.83977 0.93498,-7.30026 -0.94152,-3.56775 -3.73844,-5.552 -5.41924,-6.33547 -1.6808,-0.78347 -2.8812,-0.96271 -3.97226,-1.11618 -2.18213,-0.30672 -4.00594,-0.27403 -5.7623,-0.25496 -0.71782,0.005 -1.15115,0.0109 -1.79374,0.0163 -0.18523,-0.64978 -0.31489,-1.08044 -0.52082,-1.81095 -0.4925,-1.7434 -0.99589,-3.55528 -1.86385,-5.56536 -0.43421,-1.00503 -0.90099,-2.07485 -2.04364,-3.47546 -1.14265,-1.40056 -3.71926,-3.77385 -7.7076,-3.7076 z m -1.16003,26.83458 c 0.50884,0.91068 0.77998,1.78508 2.5753,2.98787 1.62393,1.08791 1.81945,0.4718 2.79333,0.73417 -0.69559,0.83005 -1.37871,0.65435 -2.01983,2.9876 -0.13674,0.49849 0.12639,0.35521 0.0381,0.77639 -0.85321,-0.3454 -1.29623,-0.81725 -3.04584,-0.8069 -1.10752,0.005 -1.24927,0.3296 -1.93048,0.50012 -0.0861,-0.43093 0.0545,-0.51156 -0.0839,-1.01805 -0.57138,-2.12323 -1.22089,-3.0064 -1.8662,-3.86598 0.84138,-0.30399 1.07946,0.11986 2.40386,-0.81125 0.99174,-0.69729 0.58467,-0.92201 1.13371,-1.48391 z"
         id="path3-4" />
      <path
         style="fill:#ffff00;fill-opacity:1;stroke:#000000;stroke-width:0.565;stroke-linecap:round;stroke-linejoin:round;stroke-dasharray:none;stroke-opacity:1;paint-order:markers stroke fill"
         id="path1-3"
         d="M 4.3896603,4.8890095 C 3.9781218,5.1067804 2.5108308,3.1858889 2.0429057,3.1451872 1.5749807,3.1044854 -0.27646119,4.6391077 -0.60560518,4.326334 -0.93474915,4.0135603 0.33981866,2.1669448 0.26092177,1.7078567 0.18202488,1.2487685 -1.6411308,0.00133657 -1.4498397,-0.42064583 -1.2585486,-0.84262821 0.8031059,-0.54532308 1.2114731,-0.77918684 1.6198402,-1.0130506 2.3250093,-2.9997407 2.7784377,-2.9651702 c 0.4534284,0.034571 0.5080707,2.37427484 0.8698509,2.66861722 0.3617802,0.2943424 2.5493868,0.11514336 2.6260646,0.57473881 C 6.3510309,0.73778126 4.3743534,1.7440608 4.2087166,2.1829668 4.0430798,2.6218728 4.8011989,4.6712387 4.3896603,4.8890095 Z"
         transform="matrix(5.4245593,-0.50429613,0.50429613,5.4245593,126.28097,186.61134)" />
    </g>
  </g>
</svg>
