<?xml version="1.0" encoding="UTF-8" standalone="no"?>
<!-- Created with Inkscape (http://www.inkscape.org/) -->

<svg
   width="297mm"
   height="210mm"
   viewBox="0 0 297 210"
   version="1.1"
   id="svg1"
   inkscape:version="1.3 (0e150ed6c4, 2023-07-21)"
   sodipodi:docname="drawing.svg"
   xmlns:inkscape="http://www.inkscape.org/namespaces/inkscape"
   xmlns:sodipodi="http://sodipodi.sourceforge.net/DTD/sodipodi-0.dtd"
   xmlns="http://www.w3.org/2000/svg"
   xmlns:svg="http://www.w3.org/2000/svg">
  <sodipodi:namedview
     id="namedview1"
     pagecolor="#ffffff"
     bordercolor="#000000"
     borderopacity="0.25"
     inkscape:showpageshadow="2"
     inkscape:pageopacity="0.0"
     inkscape:pagecheckerboard="0"
     inkscape:deskcolor="#d1d1d1"
     inkscape:document-units="mm"
     inkscape:zoom="0.43133514"
     inkscape:cx="492.65636"
     inkscape:cy="425.42326"
     inkscape:window-width="1366"
     inkscape:window-height="646"
     inkscape:window-x="0"
     inkscape:window-y="0"
     inkscape:window-maximized="1"
     inkscape:current-layer="layer1" />
  <defs
     id="defs1" />
  <g
     inkscape:label="Layer 1"
     inkscape:groupmode="layer"
     id="layer1">
    <path
       id="path95"
       style="fill:#c9c9c9;fill-opacity:1;stroke:#010101;stroke-width:1.182;stroke-linecap:round;stroke-linejoin:round;stroke-dasharray:none;stroke-opacity:1"
       d="m 148.37757,69.857851 c 0,8.563508 -0.89104,13.338651 -9.03662,13.338651 -8.14557,0 -12.98896,-4.012036 -12.98896,-12.575544 0,-8.563507 2.47928,-13.828126 10.62486,-13.828126 8.14557,-10e-7 11.40072,4.501512 11.40072,13.065019 z"
       sodipodi:nodetypes="sssss" />
    <g
       id="g85"
       transform="translate(-35.091862,-79.131105)">
      <path
         style="fill:#00ff00;fill-opacity:1;stroke:#00ff00;stroke-width:0.730684;stroke-linecap:round;stroke-linejoin:round;stroke-dasharray:none;stroke-opacity:1"
         d="m 211.66097,231.68238 c -13.87588,-3.1617 -26.47882,-6.03391 -28.00653,-6.38269 l -2.77768,-0.63415 1.2754,-0.80883 c 1.68506,-1.06863 2.63786,-2.57409 3.14537,-4.96981 0.71056,-3.35416 0.44857,-9.85232 -0.55396,-13.73967 l -0.18578,-0.72037 2.92145,-0.33902 c 3.61064,-0.41901 9.61083,-2.03076 12.33444,-3.31324 1.14398,-0.53867 2.58836,-1.50749 3.28281,-2.20194 1.52873,-1.52872 2.79631,-4.05013 2.97594,-5.91959 0.11587,-1.20594 -0.0144,-1.71091 -0.90747,-3.51795 -1.26186,-2.5532 -2.22464,-3.34956 -5.18668,-4.29019 -3.31857,-1.05384 -5.31719,-1.40274 -11.98709,-2.0926 -3.35203,-0.3467 -6.23481,-0.77275 -6.40616,-0.94677 -0.17135,-0.17403 -0.66041,-3.36745 -1.0868,-7.0965 -1.18774,-10.38748 -1.9856,-12.73269 -4.93417,-14.50324 l -1.50973,-0.90657 8.74012,-4.47959 c 4.80707,-2.46377 14.1615,-7.25755 20.78762,-10.65283 l 12.04749,-6.17324 0.17302,4.45608 c 0.0951,2.45085 0.3244,15.80907 0.50945,29.68495 0.37312,27.97888 0.41791,28.68227 2.29524,36.04059 3.08352,12.08604 9.16897,22.16426 16.74459,27.73099 2.11709,1.55569 2.13985,1.57526 1.79784,1.54654 -0.14293,-0.012 -11.61285,-2.60866 -25.48873,-5.77036 z"
         id="path85" />
      <path
         style="fill:#00ff00;fill-opacity:1;stroke:#00ff00;stroke-width:0.593309;stroke-linecap:round;stroke-linejoin:round;stroke-dasharray:none;stroke-opacity:1"
         d="m 100.19339,242.85729 c 0,-0.0567 0.40201,-0.90339 0.89336,-1.8817 1.15382,-2.29733 1.95265,-4.85954 2.45629,-7.8784 0.3382,-2.02715 0.38025,-3.26119 0.26083,-7.65334 -0.0783,-2.88006 -0.0925,-5.23649 -0.0315,-5.23649 0.061,0 0.6959,0.38842 1.4109,0.86316 1.22025,0.8102 1.40715,0.8627 3.04629,0.85568 1.46012,-0.006 2.04415,-0.13468 3.56412,-0.7837 0.99981,-0.42692 2.56938,-1.27887 3.48793,-1.89323 3.0218,-2.02112 6.5842,-6.30203 7.89896,-9.49215 1.88421,-4.57182 -0.15776,-14.42433 -3.92469,-18.93661 -2.6342,-3.15541 -6.59863,-4.92969 -11.06778,-4.95339 -1.6975,-0.009 -2.20086,0.0798 -3.17006,0.55949 -0.93404,0.46225 -1.13198,0.50012 -1.0456,0.20003 0.19514,-0.67792 1.26555,-6.77705 1.6808,-9.57717 0.33286,-2.24459 0.40501,-4.16375 0.38505,-10.24281 -0.0219,-6.66107 -0.092,-8.01012 -0.64035,-12.31259 -0.35061,-2.75122 -0.71015,-7.11234 -0.83495,-10.12772 -0.12054,-2.91271 -0.37192,-7.26384 -0.55861,-9.66917 -0.52687,-6.78818 -0.62681,-11.45762 -0.24207,-11.30998 0.32796,0.12585 65.99211,35.59807 66.14963,35.73447 0.0498,0.0431 -0.0538,0.12117 -0.23018,0.1735 -1.60764,0.47697 -2.67122,1.01563 -3.35455,1.69896 -1.67207,1.67208 -3.47017,6.39977 -5.46307,14.36382 l -0.99926,3.99327 -1.92698,0.51482 c -1.05984,0.28314 -3.27351,0.73051 -4.91926,0.99415 -7.86439,1.25983 -13.46057,2.64597 -16.57533,4.10559 -2.52128,1.18151 -2.72608,1.51018 -2.83882,4.55573 -0.0813,2.19732 -0.042,2.47173 0.51831,3.61699 1.15877,2.36844 1.9847,2.88414 7.53297,4.70347 2.70488,0.88696 5.79838,1.78162 6.87445,1.98816 1.07607,0.20653 2.27677,0.4479 2.66823,0.53638 l 0.71174,0.16085 -0.63477,3.33755 c -0.34912,1.83565 -1.06507,4.94301 -1.59098,6.90526 -1.12238,4.1878 -1.13569,5.24783 -0.0847,6.74882 0.3705,0.52913 1.05799,1.16921 1.52775,1.42241 0.46977,0.25319 0.8544,0.52307 0.85474,0.59972 3.4e-4,0.0767 -9.76169,4.52371 -21.69341,9.88234 -11.93173,5.35863 -23.58435,10.59657 -25.89474,11.63987 -2.31039,1.04331 -4.2007,1.85059 -4.2007,1.79396 z"
         id="path84" />
      <path
         style="fill:#00ff00;fill-opacity:1;stroke:#000000;stroke-width:1.73847;stroke-linecap:round;stroke-linejoin:round;stroke-dasharray:none;stroke-opacity:1"
         d="M 217.58297,135.99341 170.1614,160.31413"
         id="path82" />
      <path
         style="fill:#00ff00;fill-opacity:1;stroke:#000000;stroke-width:1.73847;stroke-linecap:round;stroke-linejoin:round;stroke-dasharray:none;stroke-opacity:1"
         d="m 92.546832,116.29417 81.993398,44.33541"
         id="path79" />
      <path
         style="fill:#00ff00;fill-opacity:1;stroke:#000000;stroke-width:1.73847;stroke-linecap:round;stroke-linejoin:round;stroke-dasharray:none;stroke-opacity:1"
         d="M 257.35204,242.94285 173.33865,222.88613"
         id="path81"
         sodipodi:nodetypes="cc" />
      <path
         style="fill:#00ff00;fill-opacity:1;stroke:#000000;stroke-width:1.73847;stroke-linecap:round;stroke-linejoin:round;stroke-dasharray:none;stroke-opacity:1"
         d="M 82.275873,251.9498 156.73811,218.49198"
         id="path80" />
      <g
         id="g65"
         style="fill:#55ff00;fill-opacity:1;stroke:none"
         transform="translate(-85.400303,42.860266)" />
      <path
         style="fill:#ffff00;fill-opacity:1;stroke:#000000;stroke-width:1.73847;stroke-linecap:round;stroke-linejoin:round;stroke-dasharray:none;stroke-opacity:1"
         d="m 156.96009,181.00165 c -3.0611,0.81471 -6.11783,0.99498 -9.15577,1.60416 -1.57979,0.31677 -3.15866,0.64785 -4.7147,1.06594 -1.89455,0.50905 -3.83051,0.94525 -5.61778,1.75402 -0.95372,0.43159 -2.08603,0.77339 -2.68183,1.63411 -0.33971,0.49075 -0.27776,1.16498 -0.3336,1.75922 -0.0903,0.96052 -0.26294,1.96602 0,2.89424 0.32912,1.16185 0.98402,2.29756 1.89996,3.08451 1.139,0.97859 2.73543,1.24795 4.14785,1.75792 2.68139,0.96814 5.40758,1.8428 8.19013,2.46292 1.38597,0.30887 4.21432,0.62159 4.21432,0.62159 0,0 -0.77018,4.74375 -1.28228,7.0903 -0.40002,1.83299 -1.0189,3.61461 -1.39695,5.45226 -0.24043,1.16873 -0.86691,2.38566 -0.55252,3.53669 0.30613,1.12085 1.14726,2.23174 2.214,2.69226 2.19961,0.94958 4.93057,0.36375 7.17111,-0.48476 1.48876,-0.5638 2.77262,-1.68486 3.78297,-2.9151 0.80644,-0.98192 1.10348,-2.2898 1.69537,-3.41418 0.52599,-0.99918 1.64845,-2.95939 1.64845,-2.95939 0,0 2.16967,4.47041 3.2956,6.68502 1.34107,2.63776 1.76839,6.06754 4.12049,7.86305 0.79462,0.60658 1.93556,0.53475 2.92943,0.64245 1.21651,0.13178 2.50193,0.36163 3.6709,0 1.19417,-0.36944 2.37115,-1.09843 3.09492,-2.11757 1.1621,-1.63635 1.38137,-3.8141 1.57288,-5.81194 0.29934,-3.1229 -0.15626,-6.29463 -0.68807,-9.38643 -0.16696,-0.96987 -0.78055,-2.84732 -0.78055,-2.84732 0.30436,-0.18124 5.33631,-0.28435 7.61972,-0.98799 4.36131,-1.34398 9.36366,-1.88854 12.18518,-5.47552 1.21584,-1.5457 2.68025,-4.50283 1.85634,-6.28851 -0.84991,-1.84207 -1.62118,-3.92547 -3.52162,-4.63529 -2.74291,-1.02447 -6.06096,-1.93467 -8.97789,-2.18876 -3.2632,-0.28425 -11.96553,-1.29437 -11.96553,-1.29437 l -1.30235,-10.88934 c 0,0 -0.42632,-6.6683 -2.23095,-9.2939 -0.80156,-1.1662 -2.1643,-1.93375 -3.4989,-2.40426 -0.81141,-0.28606 -1.71969,-0.30013 -2.57367,-0.19552 -1.2898,0.15805 -2.68184,0.41864 -3.70088,1.22494 -1.25435,0.99248 -1.8394,2.63678 -2.51503,4.0866 -0.78626,1.68718 -1.22105,3.51792 -1.75922,5.29983 -1.12792,3.73457 -2.41912,9.537 -2.41912,9.537 0,0 -2.63594,0.57377 -3.64041,0.84112 z"
         id="path7"
         sodipodi:nodetypes="ssssssssssccsssssscssssssscsssssccsssssscs" />
      <path
         style="fill:#f0f0f0;fill-opacity:1;stroke:#000000;stroke-width:1.95004;stroke-linecap:round;stroke-linejoin:round;stroke-dasharray:none;stroke-opacity:1"
         d="m 86.813159,195.37524 c 0,0 -8.677164,-2.21718 -13.120282,-2.4867 -2.614799,-0.15855 -5.302128,-0.12337 -7.841635,0.5194 -3.548449,0.89825 -7.250776,2.13875 -9.982774,4.57483 -1.473289,1.31371 -2.206089,3.28958 -3.06543,5.06664 -1.240331,2.56493 -2.209681,5.26751 -2.984867,8.00911 -0.736601,2.60513 -1.234754,5.28227 -1.568754,7.96884 -0.419661,3.37564 -1.05342,6.82778 -0.540584,10.19051 0.471757,3.09338 1.811652,6.03078 3.26894,8.79987 1.401601,2.66327 2.859508,5.48675 5.195959,7.38372 3.524218,2.86131 8.071618,4.42841 12.509738,5.38253 5.906347,1.26977 12.192566,1.47285 18.121205,0.31162 2.769401,-0.54244 5.543316,-1.61326 7.784401,-3.3283 2.41403,-1.84739 4.253768,-4.45764 5.651754,-7.15691 1.34057,-2.58843 2.06087,-5.50149 2.4782,-8.38645 0.54085,-3.73881 0,-7.55543 0,-11.33316 0,-1.04655 -0.0368,-3.02866 0,-3.13965 0,0 2.71659,2.88808 4.54302,3.24775 1.76883,0.34833 3.62264,-0.49617 5.2638,-1.24229 1.83586,-0.83464 3.51417,-2.07573 4.91825,-3.52333 2.1497,-2.21634 4.20939,-4.75415 5.16204,-7.69112 0.59037,-1.82009 0.44908,-3.83839 0.20775,-5.73653 -0.39137,-3.07829 -1.25361,-6.1538 -2.65416,-8.92281 -0.70014,-1.38425 -1.66659,-2.66021 -2.80679,-3.71201 -0.99925,-0.92177 -2.16576,-1.71785 -3.44066,-2.18989 -2.34845,-0.86954 -4.97883,-1.54601 -7.43673,-1.06633 -1.05334,0.20546 -2.01886,0.86651 -2.78136,1.62175 -0.84044,0.83245 -1.81678,3.04846 -1.81678,3.04846 3.12461,-13.34876 3.88438,-21.42252 3.17873,-29.24463 0.13586,-4.16593 -1.26298,-10.66813 -1.35771,-14.83518 -0.10859,-4.77735 -0.35192,-9.55717 -0.83101,-14.31168 -0.45086,-4.47431 0.5088,-9.56925 -1.92067,-13.35347 -1.078008,-1.67916 -3.11842,-2.67827 -5.032721,-3.24138 -1.031121,-0.30332 -2.153019,-0.0854 -3.224421,0 -1.057307,0.0844 -2.19772,0.0204 -3.141744,0.50454 -1.658823,0.8497 -3.053398,2.32557 -3.945197,3.96215 -1.174876,2.15606 -1.305781,4.75591 -1.568754,7.19718 -0.273666,2.54054 -0.124216,5.1135 0,7.66571 0.443944,9.12122 2.026483,18.15662 2.66052,27.2666 0.294188,4.22698 0.361713,8.46668 0.529986,12.70054 0.107825,2.71331 0.34207,5.42532 0.307382,8.14054 -0.04838,3.78711 -0.718642,11.33953 -0.718642,11.33953 z"
         id="path5"
         sodipodi:nodetypes="cssssssssssssssscssssssssssccssssssssssssc" />
      <path
         style="fill:none;stroke:#000000;stroke-width:1.95004;stroke-linecap:round;stroke-linejoin:round;stroke-dasharray:none;stroke-opacity:1"
         d="m 94.643229,141.01618 c 0,0 2.56043,51.68312 0.343212,77.38187 -0.482313,5.59027 -0.397984,11.57774 -2.956696,16.5714 -1.50166,2.9307 -3.909138,5.66942 -6.8804,7.0891 -3.333769,1.5929 -7.388902,1.58594 -11.038318,1.00878 -3.741235,-0.5917 -7.550837,-2.03174 -10.444666,-4.47564 -2.230789,-1.88395 -3.974432,-4.54523 -4.749264,-7.36043 -0.77238,-2.80628 -1.174025,-5.69963 -0.549152,-8.54241 0.976104,-4.44064 1.814456,-6.48877 3.452514,-9.12354 1.461754,-2.35119 3.713158,-4.25466 6.13137,-5.60264 2.184937,-1.21794 4.719043,-1.9623 7.218971,-2.04999 4.839965,-0.16977 9.518093,1.81945 14.219952,2.9799 2.540647,0.62704 4.941916,1.94257 7.550587,2.14968 2.721596,0.21616 5.542561,-0.10833 8.132641,-0.97163 2.02659,-0.67545 4.25503,-1.50824 5.54699,-3.20946 0.802,-1.05606 0.97699,-2.52588 0.99484,-3.85183 0.0184,-1.36009 -0.34066,-2.74342 -0.91367,-3.97704 -0.36725,-0.79065 -1.56995,-2.09172 -1.56995,-2.09172"
         id="path1"
         sodipodi:nodetypes="cssssssssssssssssc" />
      <circle
         style="fill:#000000;fill-opacity:1;stroke:none;stroke-width:0.765999;stroke-linecap:round;stroke-linejoin:round;stroke-dasharray:none;stroke-opacity:1"
         id="path3"
         cx="92.039131"
         cy="125.5027"
         r="1.0333859" />
      <path
         style="fill:none;fill-opacity:1;stroke:#000000;stroke-width:1.73847;stroke-linecap:round;stroke-linejoin:round;stroke-dasharray:none;stroke-opacity:1"
         d="m 162.04947,187.16982 10.33833,-21.88043 1.83972,25.29015 21.63914,2.65165 -19.98426,5.95395 1.04022,18.70913 -10.24297,-18.55315 -12.1207,12.14532 4.49997,-15.96967 -17.06452,-6.38268 z"
         id="path6" />
      <path
         style="fill:#f0f0f0;fill-opacity:1;stroke:#000000;stroke-width:1.73847;stroke-linecap:round;stroke-linejoin:round;stroke-dasharray:none;stroke-opacity:1"
         d="m 319.58687,136.42313 c 0.0836,1.31023 -103.17181,-1.83966 -103.10602,-0.25605 0.78644,18.9333 1.05083,61.68291 1.05083,61.68291 0.97573,9.03812 8.39662,59.14744 63.99573,40.54672 19.62851,-6.56675 17.81347,-27.27821 17.84793,-32.5399 0.0204,-5.03896 -0.57836,-25.30548 -0.57836,-25.30548 0,0 15.24762,0.18328 20.97814,0.0581 z"
         id="path9"
         sodipodi:nodetypes="cscscccc" />
      <path
         style="fill:none;fill-opacity:1;stroke:#000000;stroke-width:1.73847;stroke-linecap:round;stroke-linejoin:round;stroke-dasharray:none;stroke-opacity:1"
         d="m 310.3659,144.25878 -83.66158,0.51747 -0.0127,24.20708 45.67567,-0.41943 0.10986,30.52937 c -0.0984,6.06129 0.6611,11.35404 -4.8087,13.86347 -3.05461,1.40141 -8.98648,0.74874 -12.39579,-3.05223 -3.37062,-3.75777 -4.62858,-5.67246 -5.236,-27.7971 -0.0179,-0.68167 -22.75253,-0.7351 -22.76601,0.0128 -0.33118,18.3607 7.25272,38.84103 18.81311,43.64476 18.4995,7.6872 39.57993,1.68438 41.38037,-10.93466 1.18611,-8.31324 -0.0612,-33.98711 -1.35374,-46.58645 -0.0331,-0.32281 24.3846,-0.12082 24.3846,-0.12082 z"
         id="path8"
         sodipodi:nodetypes="cccccssssssscc" />
    </g>
    <g
       id="g95"
       transform="rotate(-8.7504527,-629.07191,170.73555)">
      <path
         id="path87"
         style="fill:#f0f0f0;stroke:#010101;stroke-width:1.22824;stroke-linecap:round;stroke-linejoin:round"
         d="m 158.62541,158.22192 c -3.12555,0 -4.99038,3.78247 -6.18654,6.60824 -0.0203,0.048 -0.0358,0.0987 -0.048,0.15054 -2.60185,-0.58328 -5.63731,-0.89933 -9.10759,-0.89933 -2.66885,0 -5.01368,0.23428 -7.06459,0.65972 -1.19783,-2.81313 -3.05336,-6.49867 -6.13924,-6.49867 -3.12555,0 -5.65924,2.47989 -5.65924,5.53864 0,2.28777 1.03703,4.68727 2.4058,6.03566 -2.51504,2.36896 -2.58315,4.32839 -2.58315,7.55756 0,7.04645 7.33624,13.06117 21.17722,13.06117 13.84098,0 18.65199,-7.71694 18.65199,-14.76341 0,-2.82548 0.40982,-4.51641 -1.81897,-6.49586 1.36283,-1.39963 2.03163,-3.04882 2.03163,-5.4156 0,-3.05875 -2.53369,-5.53866 -5.65924,-5.53866 z"
         sodipodi:nodetypes="sscscsscssscsss" />
      <path
         style="fill:#f0f0f0;fill-opacity:1;stroke:#010101;stroke-width:1.04022;stroke-linecap:round;stroke-linejoin:round;stroke-dasharray:none;stroke-opacity:1"
         d="m 129.84902,161.92753 1.30203,5.3"
         id="path88" />
      <path
         style="fill:#f0f0f0;fill-opacity:1;stroke:#010101;stroke-width:1.04022;stroke-linecap:round;stroke-linejoin:round;stroke-dasharray:none;stroke-opacity:1"
         d="m 158.84396,161.80658 -1.29202,5.80202"
         id="path89" />
      <path
         style="fill:#f0f0f0;fill-opacity:1;stroke:#010101;stroke-width:1.04022;stroke-linecap:round;stroke-linejoin:round;stroke-dasharray:none;stroke-opacity:1"
         d="m 142.31036,165.68055 c 0.002,-0.13743 1.02021,1.67779 2.80086,0.16586"
         id="path90"
         sodipodi:nodetypes="cc" />
      <circle
         style="fill:#000000;fill-opacity:1;stroke:none;stroke-width:0.480228;stroke-linecap:round;stroke-linejoin:round;stroke-dasharray:none;stroke-opacity:1"
         id="path91"
         cx="130.16843"
         cy="183.80582"
         r="0.47557959" />
      <circle
         style="fill:#000000;fill-opacity:1;stroke:none;stroke-width:0.480228;stroke-linecap:round;stroke-linejoin:round;stroke-dasharray:none;stroke-opacity:1"
         id="circle91"
         cx="132.10435"
         cy="184.76688"
         r="0.47557959" />
      <circle
         style="fill:#000000;fill-opacity:1;stroke:none;stroke-width:0.480228;stroke-linecap:round;stroke-linejoin:round;stroke-dasharray:none;stroke-opacity:1"
         id="circle92"
         cx="131.47403"
         cy="182.75746"
         r="0.47557959" />
      <circle
         style="fill:#000000;fill-opacity:1;stroke:none;stroke-width:0.480228;stroke-linecap:round;stroke-linejoin:round;stroke-dasharray:none;stroke-opacity:1"
         id="circle93"
         cx="157.20506"
         cy="184.31917"
         r="0.47557959" />
      <circle
         style="fill:#000000;fill-opacity:1;stroke:none;stroke-width:0.480228;stroke-linecap:round;stroke-linejoin:round;stroke-dasharray:none;stroke-opacity:1"
         id="circle94"
         cx="155.43977"
         cy="183.48386"
         r="0.47557959" />
      <circle
         style="fill:#000000;fill-opacity:1;stroke:none;stroke-width:0.480228;stroke-linecap:round;stroke-linejoin:round;stroke-dasharray:none;stroke-opacity:1"
         id="circle95"
         cx="155.06116"
         cy="185.59827"
         r="0.47557959" />
    </g>
  </g>
</svg>
